<svg width="46" height="46" viewBox="0 0 46 46" fill="none" xmlns="http://www.w3.org/2000/svg">
<g filter="url(#filter0_dd_1_1416)">
<rect x="3" y="2" width="40" height="40" rx="8" fill="white" shape-rendering="crispEdges"/>
<rect x="3.5" y="2.5" width="39" height="39" rx="7.5" stroke="#DFE1E6" shape-rendering="crispEdges"/>
<path d="M23.9423 12.833C24.9735 12.8358 25.497 12.8413 25.9489 12.8541L26.1267 12.8605C26.332 12.8678 26.5346 12.877 26.7794 12.888C27.7547 12.9338 28.4202 13.0878 29.0041 13.3143C29.6091 13.5471 30.1188 13.8624 30.6285 14.3712C31.0946 14.8294 31.4553 15.3837 31.6854 15.9955C31.9118 16.5794 32.0658 17.2449 32.1116 18.2212C32.1226 18.465 32.1318 18.6676 32.1391 18.8738L32.1446 19.0517C32.1584 19.5027 32.1639 20.0261 32.1657 21.0573L32.1666 21.7412V22.942C32.1689 23.6106 32.1618 24.2792 32.1455 24.9477L32.14 25.1255C32.1327 25.3318 32.1235 25.5343 32.1125 25.7782C32.0667 26.7544 31.9109 27.419 31.6854 28.0038C31.4559 28.616 31.0952 29.1704 30.6285 29.6282C30.1701 30.0941 29.6158 30.4548 29.0041 30.6851C28.4202 30.9115 27.7547 31.0655 26.7794 31.1113C26.5619 31.1216 26.3443 31.1308 26.1267 31.1388L25.9489 31.1443C25.497 31.1572 24.9735 31.1636 23.9423 31.1654L23.2585 31.1663H22.0585C21.3896 31.1686 20.7207 31.1616 20.052 31.1453L19.8741 31.1398C19.6565 31.1315 19.439 31.122 19.2215 31.1113C18.2461 31.0655 17.5806 30.9115 16.9958 30.6851C16.3841 30.4554 15.83 30.0946 15.3724 29.6282C14.9058 29.1701 14.5448 28.6158 14.3145 28.0038C14.0881 27.4199 13.9341 26.7544 13.8883 25.7782C13.8781 25.5607 13.8689 25.3431 13.8608 25.1255L13.8562 24.9477C13.8393 24.2793 13.8317 23.6106 13.8333 22.942V21.0573C13.8307 20.3887 13.8375 19.7201 13.8535 19.0517L13.8599 18.8738C13.8672 18.6676 13.8764 18.465 13.8874 18.2212C13.9332 17.2449 14.0872 16.5803 14.3136 15.9955C14.5438 15.3831 14.9055 14.8286 15.3733 14.3712C15.8308 13.905 16.3845 13.5443 16.9958 13.3143C17.5806 13.0878 18.2452 12.9338 19.2215 12.888C19.4653 12.877 19.6688 12.8678 19.8741 12.8605L20.052 12.855C20.7204 12.8387 21.389 12.8317 22.0576 12.8339L23.9423 12.833ZM23 17.4163C21.7844 17.4163 20.6186 17.8992 19.7591 18.7588C18.8995 19.6183 18.4166 20.7841 18.4166 21.9997C18.4166 23.2153 18.8995 24.381 19.7591 25.2406C20.6186 26.1001 21.7844 26.583 23 26.583C24.2155 26.583 25.3813 26.1001 26.2409 25.2406C27.1004 24.381 27.5833 23.2153 27.5833 21.9997C27.5833 20.7841 27.1004 19.6183 26.2409 18.7588C25.3813 17.8992 24.2155 17.4163 23 17.4163ZM23 19.2497C23.3611 19.2496 23.7187 19.3207 24.0524 19.4588C24.386 19.597 24.6892 19.7995 24.9446 20.0548C25.2 20.3101 25.4027 20.6133 25.5409 20.9469C25.6792 21.2805 25.7504 21.6381 25.7504 21.9992C25.7505 22.3604 25.6794 22.718 25.5413 23.0516C25.4031 23.3853 25.2006 23.6885 24.9453 23.9439C24.69 24.1993 24.3868 24.4019 24.0532 24.5402C23.7196 24.6784 23.362 24.7496 23.0009 24.7497C22.2715 24.7497 21.5721 24.4599 21.0563 23.9442C20.5406 23.4285 20.2509 22.729 20.2509 21.9997C20.2509 21.2703 20.5406 20.5709 21.0563 20.0551C21.5721 19.5394 22.2715 19.2497 23.0009 19.2497M27.8134 16.0413C27.5095 16.0413 27.218 16.1621 27.0031 16.3769C26.7883 16.5918 26.6675 16.8833 26.6675 17.1872C26.6675 17.4911 26.7883 17.7825 27.0031 17.9974C27.218 18.2123 27.5095 18.333 27.8134 18.333C28.1173 18.333 28.4087 18.2123 28.6236 17.9974C28.8385 17.7825 28.9592 17.4911 28.9592 17.1872C28.9592 16.8833 28.8385 16.5918 28.6236 16.3769C28.4087 16.1621 28.1173 16.0413 27.8134 16.0413Z" fill="#6C63D4"/>
</g>
<defs>
<filter id="filter0_dd_1_1416" x="0" y="0" width="46" height="46" filterUnits="userSpaceOnUse" color-interpolation-filters="sRGB">
<feFlood flood-opacity="0" result="BackgroundImageFix"/>
<feColorMatrix in="SourceAlpha" type="matrix" values="0 0 0 0 0 0 0 0 0 0 0 0 0 0 0 0 0 0 127 0" result="hardAlpha"/>
<feOffset dy="1"/>
<feGaussianBlur stdDeviation="1"/>
<feComposite in2="hardAlpha" operator="out"/>
<feColorMatrix type="matrix" values="0 0 0 0 0.0509804 0 0 0 0 0.0509804 0 0 0 0 0.0705882 0 0 0 0.04 0"/>
<feBlend mode="normal" in2="BackgroundImageFix" result="effect1_dropShadow_1_1416"/>
<feColorMatrix in="SourceAlpha" type="matrix" values="0 0 0 0 0 0 0 0 0 0 0 0 0 0 0 0 0 0 127 0" result="hardAlpha"/>
<feOffset dy="1"/>
<feGaussianBlur stdDeviation="1.5"/>
<feComposite in2="hardAlpha" operator="out"/>
<feColorMatrix type="matrix" values="0 0 0 0 0.0509804 0 0 0 0 0.0509804 0 0 0 0 0.0705882 0 0 0 0.05 0"/>
<feBlend mode="normal" in2="effect1_dropShadow_1_1416" result="effect2_dropShadow_1_1416"/>
<feBlend mode="normal" in="SourceGraphic" in2="effect2_dropShadow_1_1416" result="shape"/>
</filter>
</defs>
</svg>
