<svg width="200" height="36" viewBox="0 0 200 36" fill="none" xmlns="http://www.w3.org/2000/svg">
<path d="M0.0285149 7.17148C0.0142574 7.07168 1.58257 5.41782 3.50733 3.49307C5.44634 1.56832 7.05743 0 7.11446 0C7.15723 0.0142574 7.61346 0.356436 8.12673 0.769901C8.64 1.18337 9.33861 1.71089 9.69505 1.95327C10.0515 2.19564 10.6788 2.55208 11.078 2.76594C11.4915 2.96554 12.0048 3.16515 12.2186 3.20792C12.4467 3.25069 12.8032 3.37901 13.0455 3.50733C13.2737 3.62139 13.8297 3.80673 14.2574 3.92079C14.6851 4.03485 15.6832 4.19168 16.4673 4.29148C17.5937 4.43406 18.1497 4.43406 19.1762 4.30574C19.8749 4.20594 20.5592 4.1204 20.6733 4.1204C20.7873 4.10614 21.2436 4.02059 21.6713 3.90653C22.099 3.80673 22.6408 3.62139 22.8832 3.50733C23.1113 3.37901 23.4107 3.27921 23.5248 3.27921C23.6388 3.27921 24.2234 3.05109 24.8079 2.76594C25.3925 2.48079 26.1053 2.08158 26.3762 1.88198C26.6471 1.66812 27.303 1.16911 28.8 0L29.1137 0.285149C29.299 0.427723 30.8958 1.99604 32.678 3.77822C34.4745 5.54614 35.9287 7.02891 35.9287 7.08594C35.943 7.15723 32.7921 10.3651 28.9426 14.2147C24.0095 19.1905 21.9992 21.3006 22.0848 21.4147C22.156 21.5145 22.7121 21.7141 23.3251 21.8709C23.9525 22.0135 24.6368 22.1846 24.8792 22.2558C25.1073 22.3271 25.8202 22.5552 26.4475 22.7549C27.0749 22.9687 27.9018 23.2824 28.301 23.4677C28.6859 23.6531 29.242 23.8954 29.5129 24.0095C29.7838 24.1378 30.183 24.3517 30.3968 24.48C30.5964 24.6226 31.1382 24.9648 31.5802 25.2356C32.0364 25.5065 32.564 25.8345 32.7493 25.9485C32.9489 26.0626 33.2911 26.3192 33.5049 26.5188C33.7188 26.7184 34.3461 27.2602 34.9164 27.7307C35.4725 28.2012 35.9287 28.6717 35.9287 28.7572C35.9287 28.857 34.503 30.3683 32.7493 32.1077C30.9956 33.8614 29.3988 35.4297 28.8 35.9287L27.6166 35.002C26.975 34.4887 25.9343 33.7758 25.3069 33.4479C24.6796 33.1057 23.5533 32.6067 22.8119 32.3644C22.0705 32.1077 21.2293 31.9081 20.9584 31.8939C20.6875 31.8939 20.3739 31.8226 20.2598 31.737C20.1315 31.6372 19.2618 31.5802 17.9644 31.5802C16.5101 31.5802 15.7972 31.6372 15.6404 31.7513C15.4978 31.8511 15.3125 31.9081 15.2127 31.8796C15.1271 31.8368 14.7137 31.9081 14.3287 32.0079C13.9295 32.1077 13.3877 32.2788 13.1168 32.3786C12.8459 32.4784 12.3612 32.6352 12.0475 32.7493C11.7339 32.8491 10.964 33.2483 10.3366 33.619C9.70931 33.9897 8.72554 34.6741 7.11446 36L6.74376 35.6436C6.5299 35.444 4.93307 33.8614 3.17941 32.1077C1.42574 30.3683 0 28.8855 0 28.8C0 28.7145 3.13663 25.5065 6.98614 21.6713C10.8214 17.836 13.9723 14.6424 13.9723 14.5853C13.9865 14.5141 13.8012 14.4 13.5873 14.3002C13.3735 14.2147 12.7034 14.0293 12.1188 13.9152C11.5343 13.8012 10.5362 13.5303 9.90891 13.3307C9.28158 13.1168 8.22653 12.6891 7.55644 12.3897C6.88634 12.0903 6.27327 11.8337 6.20198 11.8337C6.11644 11.8337 5.9596 11.7339 5.84554 11.6341C5.73148 11.52 5.40356 11.3204 5.13267 11.1636C4.86178 11.021 4.09188 10.5362 3.42178 10.1085C2.75168 9.66653 1.72515 8.86812 1.14059 8.32634C0.55604 7.79881 0.0570297 7.27129 0.0285149 7.17148Z" fill="white"/>
<path d="M44.4327 11.6875V9.03906H58.3545V11.6875H52.9639V26.5H49.835V11.6875H44.4327ZM63.6809 26.7578C62.3684 26.7578 61.2356 26.4844 60.2825 25.9375C59.3294 25.3828 58.595 24.6016 58.0794 23.5938C57.5716 22.5859 57.3177 21.3984 57.3177 20.0312C57.3177 18.6797 57.5716 17.4961 58.0794 16.4805C58.5872 15.457 59.302 14.6602 60.2239 14.0898C61.1458 13.5195 62.2317 13.2344 63.4817 13.2344C64.2864 13.2344 65.0481 13.3633 65.7669 13.6211C66.4934 13.8789 67.1341 14.2773 67.6888 14.8164C68.2513 15.3555 68.6927 16.043 69.013 16.8789C69.3333 17.707 69.4934 18.6953 69.4934 19.8438V20.8047H58.7591V18.7305H67.9583L66.5169 19.3398C66.5169 18.5977 66.4036 17.9531 66.177 17.4062C65.9505 16.8516 65.6145 16.418 65.1692 16.1055C64.7239 15.793 64.1692 15.6367 63.5052 15.6367C62.8411 15.6367 62.2747 15.793 61.8059 16.1055C61.3372 16.418 60.9817 16.8398 60.7395 17.3711C60.4974 17.8945 60.3763 18.4805 60.3763 19.1289V20.5703C60.3763 21.3672 60.513 22.0508 60.7864 22.6211C61.0677 23.1836 61.4583 23.6133 61.9583 23.9102C62.4661 24.207 63.0559 24.3555 63.7278 24.3555C64.1653 24.3555 64.5638 24.293 64.9231 24.168C65.2903 24.043 65.6028 23.8555 65.8606 23.6055C66.1263 23.3477 66.3294 23.0312 66.47 22.6562L69.3528 22.9961C69.1653 23.7539 68.8177 24.418 68.3099 24.9883C67.8099 25.5508 67.1653 25.9883 66.3763 26.3008C65.595 26.6055 64.6966 26.7578 63.6809 26.7578ZM76.6363 26.7578C75.3316 26.7578 74.2105 26.4727 73.273 25.9023C72.3355 25.3242 71.6167 24.5273 71.1167 23.5117C70.6167 22.4961 70.3667 21.3281 70.3667 20.0078C70.3667 18.6719 70.6206 17.4961 71.1284 16.4805C71.6363 15.4648 72.3589 14.6719 73.2964 14.1016C74.2339 13.5234 75.3394 13.2344 76.6128 13.2344C77.6831 13.2344 78.6284 13.4297 79.4488 13.8203C80.2691 14.2109 80.9214 14.7617 81.4058 15.4727C81.898 16.1758 82.1792 17 82.2495 17.9453H79.2964C79.2183 17.5234 79.0659 17.1445 78.8394 16.8086C78.6128 16.4727 78.3159 16.207 77.9488 16.0117C77.5894 15.8164 77.1597 15.7188 76.6597 15.7188C76.0269 15.7188 75.4722 15.8906 74.9956 16.2344C74.5269 16.5703 74.1597 17.0547 73.8941 17.6875C73.6284 18.3203 73.4956 19.0781 73.4956 19.9609C73.4956 20.8516 73.6245 21.6211 73.8824 22.2695C74.1402 22.9102 74.5074 23.4062 74.9839 23.7578C75.4605 24.1016 76.0191 24.2734 76.6597 24.2734C77.3394 24.2734 77.9136 24.0742 78.3824 23.6758C78.8589 23.2773 79.1636 22.7266 79.2964 22.0234H82.2495C82.1792 22.9531 81.9058 23.7734 81.4292 24.4844C80.9527 25.1953 80.3081 25.7539 79.4956 26.1602C78.6831 26.5586 77.73 26.7578 76.6363 26.7578ZM86.7556 18.8359V26.5H83.6736V9.03906H86.6853V15.6367H86.8494C87.1541 14.8945 87.6267 14.3086 88.2673 13.8789C88.908 13.4492 89.7322 13.2344 90.74 13.2344C91.6463 13.2344 92.4353 13.4258 93.1072 13.8086C93.7869 14.1914 94.3142 14.75 94.6892 15.4844C95.0642 16.2188 95.2517 17.1133 95.2517 18.168V26.5H92.158V18.6484C92.158 17.7578 91.9314 17.0703 91.4783 16.5859C91.0252 16.0938 90.3923 15.8477 89.5798 15.8477C89.033 15.8477 88.5447 15.9648 88.115 16.1992C87.6931 16.4336 87.3611 16.7734 87.1189 17.2188C86.8767 17.6562 86.7556 18.1953 86.7556 18.8359ZM108.401 26.7695C107.041 26.7695 105.862 26.5586 104.862 26.1367C103.862 25.7148 103.08 25.1016 102.518 24.2969C101.955 23.4844 101.651 22.5 101.604 21.3438H104.721C104.768 21.9531 104.955 22.4609 105.283 22.8672C105.612 23.2656 106.041 23.5664 106.573 23.7695C107.112 23.9727 107.709 24.0742 108.365 24.0742C109.053 24.0742 109.658 23.9688 110.182 23.7578C110.705 23.5469 111.115 23.2539 111.412 22.8789C111.709 22.5039 111.858 22.0664 111.858 21.5664C111.858 21.1133 111.725 20.7422 111.459 20.4531C111.194 20.1562 110.826 19.9062 110.358 19.7031C109.889 19.5 109.338 19.3203 108.705 19.1641L106.725 18.6484C105.287 18.2812 104.155 17.7227 103.326 16.9727C102.498 16.2148 102.084 15.207 102.084 13.9492C102.084 12.918 102.362 12.0195 102.916 11.2539C103.471 10.4805 104.229 9.87891 105.19 9.44922C106.158 9.01953 107.252 8.80469 108.471 8.80469C109.713 8.80469 110.803 9.01953 111.74 9.44922C112.678 9.87891 113.412 10.4727 113.944 11.2305C114.475 11.9883 114.752 12.8594 114.776 13.8438H111.717C111.639 13.0938 111.307 12.5156 110.721 12.1094C110.143 11.6953 109.381 11.4883 108.436 11.4883C107.78 11.4883 107.213 11.5859 106.737 11.7812C106.268 11.9766 105.908 12.2461 105.658 12.5898C105.408 12.9336 105.283 13.3242 105.283 13.7617C105.283 14.2461 105.428 14.6445 105.717 14.957C106.014 15.2617 106.389 15.5078 106.842 15.6953C107.303 15.8828 107.772 16.0391 108.248 16.1641L109.877 16.5742C110.533 16.7305 111.166 16.9414 111.776 17.207C112.385 17.4648 112.932 17.793 113.416 18.1914C113.908 18.582 114.295 19.0586 114.576 19.6211C114.865 20.1836 115.01 20.8438 115.01 21.6016C115.01 22.6172 114.748 23.5156 114.225 24.2969C113.701 25.0703 112.948 25.6758 111.963 26.1133C110.979 26.5508 109.791 26.7695 108.401 26.7695ZM122.247 26.7578C120.965 26.7578 119.856 26.4766 118.918 25.9141C117.981 25.3516 117.254 24.5625 116.739 23.5469C116.231 22.5312 115.977 21.3516 115.977 20.0078C115.977 18.6562 116.231 17.4727 116.739 16.457C117.254 15.4336 117.981 14.6406 118.918 14.0781C119.856 13.5156 120.965 13.2344 122.247 13.2344C123.528 13.2344 124.637 13.5156 125.575 14.0781C126.512 14.6406 127.239 15.4336 127.754 16.457C128.27 17.4727 128.528 18.6562 128.528 20.0078C128.528 21.3516 128.27 22.5312 127.754 23.5469C127.239 24.5625 126.512 25.3516 125.575 25.9141C124.637 26.4766 123.528 26.7578 122.247 26.7578ZM122.247 24.2734C122.958 24.2734 123.543 24.0859 124.004 23.7109C124.465 23.3281 124.809 22.8125 125.036 22.1641C125.27 21.5156 125.387 20.7969 125.387 20.0078C125.387 19.2031 125.27 18.4766 125.036 17.8281C124.809 17.1797 124.465 16.668 124.004 16.293C123.543 15.9102 122.958 15.7188 122.247 15.7188C121.551 15.7188 120.969 15.9102 120.5 16.293C120.032 16.668 119.68 17.1797 119.446 17.8281C119.219 18.4766 119.106 19.2031 119.106 20.0078C119.106 20.7969 119.219 21.5156 119.446 22.1641C119.68 22.8125 120.032 23.3281 120.5 23.7109C120.969 24.0859 121.551 24.2734 122.247 24.2734ZM133.069 9.03906V26.5H129.987V9.03906H133.069ZM143.458 21.0039V13.3984H146.54V26.5H143.552V24.168H143.411C143.114 24.9023 142.63 25.5039 141.958 25.9727C141.286 26.4414 140.458 26.6719 139.474 26.6641C138.614 26.6641 137.856 26.4766 137.2 26.1016C136.552 25.7188 136.04 25.1602 135.665 24.4258C135.298 23.6836 135.114 22.7891 135.114 21.7422V13.3984H138.196V21.2734C138.196 22.0938 138.423 22.75 138.876 23.2422C139.337 23.7344 139.938 23.9766 140.681 23.9688C141.134 23.9688 141.571 23.8594 141.993 23.6406C142.423 23.4219 142.774 23.0938 143.048 22.6562C143.321 22.2188 143.458 21.668 143.458 21.0039ZM155.113 13.3984V15.7891H147.601V13.3984H155.113ZM149.441 10.2812H152.523V22.5625C152.523 23.0781 152.636 23.4609 152.863 23.7109C153.089 23.9531 153.448 24.0742 153.941 24.0742C154.073 24.0742 154.222 24.0625 154.386 24.0391C154.55 24.0156 154.698 23.9883 154.831 23.957L155.359 26.3711C155.03 26.4727 154.698 26.5469 154.363 26.5938C154.027 26.6484 153.691 26.6758 153.355 26.6758C152.136 26.6758 151.179 26.3555 150.484 25.7148C149.788 25.0664 149.441 24.1836 149.441 23.0664V10.2812ZM156.572 26.5V13.3984H159.654V26.5H156.572ZM158.119 11.5586C157.626 11.5586 157.205 11.3945 156.853 11.0664C156.501 10.7383 156.326 10.3438 156.326 9.88281C156.326 9.41406 156.501 9.01562 156.853 8.6875C157.205 8.35938 157.626 8.19531 158.119 8.19531C158.603 8.19531 159.021 8.35938 159.373 8.6875C159.724 9.01562 159.9 9.41016 159.9 9.87109C159.9 10.3398 159.724 10.7383 159.373 11.0664C159.021 11.3945 158.603 11.5586 158.119 11.5586ZM167.406 26.7578C166.125 26.7578 165.015 26.4766 164.078 25.9141C163.14 25.3516 162.414 24.5625 161.898 23.5469C161.39 22.5312 161.136 21.3516 161.136 20.0078C161.136 18.6562 161.39 17.4727 161.898 16.457C162.414 15.4336 163.14 14.6406 164.078 14.0781C165.015 13.5156 166.125 13.2344 167.406 13.2344C168.687 13.2344 169.797 13.5156 170.734 14.0781C171.672 14.6406 172.398 15.4336 172.914 16.457C173.429 17.4727 173.687 18.6562 173.687 20.0078C173.687 21.3516 173.429 22.5312 172.914 23.5469C172.398 24.5625 171.672 25.3516 170.734 25.9141C169.797 26.4766 168.687 26.7578 167.406 26.7578ZM167.406 24.2734C168.117 24.2734 168.703 24.0859 169.164 23.7109C169.625 23.3281 169.968 22.8125 170.195 22.1641C170.429 21.5156 170.547 20.7969 170.547 20.0078C170.547 19.2031 170.429 18.4766 170.195 17.8281C169.968 17.1797 169.625 16.668 169.164 16.293C168.703 15.9102 168.117 15.7188 167.406 15.7188C166.711 15.7188 166.129 15.9102 165.66 16.293C165.191 16.668 164.84 17.1797 164.605 17.8281C164.379 18.4766 164.265 19.2031 164.265 20.0078C164.265 20.7969 164.379 21.5156 164.605 22.1641C164.84 22.8125 165.191 23.3281 165.66 23.7109C166.129 24.0859 166.711 24.2734 167.406 24.2734ZM178.228 18.8359V26.5H175.146V13.3984H178.17V15.6367H178.322C178.619 14.9023 179.084 14.3203 179.717 13.8906C180.357 13.4531 181.17 13.2344 182.154 13.2344C183.06 13.2344 183.85 13.4258 184.521 13.8086C185.193 14.1914 185.713 14.7539 186.08 15.4961C186.455 16.2305 186.643 17.1211 186.643 18.168V26.5H183.56V18.6484C183.56 17.7734 183.334 17.0898 182.881 16.5977C182.428 16.0977 181.803 15.8477 181.006 15.8477C180.467 15.8477 179.986 15.9648 179.564 16.1992C179.15 16.4336 178.822 16.7734 178.58 17.2188C178.346 17.6562 178.228 18.1953 178.228 18.8359ZM199.024 16.8789L196.223 17.1719C196.106 16.7422 195.852 16.3633 195.461 16.0352C195.07 15.6992 194.52 15.5312 193.809 15.5312C193.168 15.5312 192.629 15.6719 192.192 15.9531C191.762 16.2344 191.547 16.5938 191.547 17.0312C191.547 17.4141 191.688 17.7305 191.969 17.9805C192.258 18.2227 192.735 18.418 193.399 18.5664L195.637 19.0352C196.863 19.293 197.781 19.7148 198.391 20.3008C199 20.8867 199.305 21.6445 199.305 22.5742C199.305 23.3945 199.067 24.1211 198.59 24.7539C198.113 25.3867 197.453 25.8789 196.61 26.2305C195.774 26.582 194.809 26.7578 193.715 26.7578C192.113 26.7578 190.824 26.4219 189.848 25.75C188.879 25.0703 188.297 24.1289 188.102 22.9258L191.113 22.6445C191.246 23.2305 191.535 23.6758 191.981 23.9805C192.434 24.2773 193.012 24.4258 193.715 24.4258C194.449 24.4258 195.039 24.2773 195.485 23.9805C195.93 23.6758 196.153 23.3047 196.153 22.8672C196.153 22.1328 195.567 21.6328 194.395 21.3672L192.156 20.8984C190.899 20.625 189.969 20.1836 189.367 19.5742C188.766 18.957 188.465 18.1719 188.465 17.2188C188.465 16.4062 188.688 15.7031 189.133 15.1094C189.578 14.5156 190.199 14.0547 190.996 13.7266C191.793 13.3984 192.715 13.2344 193.762 13.2344C195.301 13.2344 196.508 13.5664 197.383 14.2305C198.266 14.8867 198.813 15.7695 199.024 16.8789Z" fill="white"/>
</svg>
