<svg width="544" height="350" viewBox="0 0 544 350" fill="none" xmlns="http://www.w3.org/2000/svg">
<rect width="544" height="350" rx="16" fill="white"/>
<g clip-path="url(#clip0_1_604)">
<path d="M40 0V350" stroke="#F3F2FC" stroke-width="2" stroke-linejoin="round"/>
<path d="M80 0V350" stroke="#F3F2FC" stroke-width="2" stroke-linejoin="round"/>
<path d="M120 0V350" stroke="#F3F2FC" stroke-width="2" stroke-linejoin="round"/>
<path d="M160 0V350" stroke="#F3F2FC" stroke-width="2" stroke-linejoin="round"/>
<path d="M200 0V350" stroke="#F3F2FC" stroke-width="2" stroke-linejoin="round"/>
<path d="M240 0V350" stroke="#F3F2FC" stroke-width="2" stroke-linejoin="round"/>
<path d="M280 0V350" stroke="#F3F2FC" stroke-width="2" stroke-linejoin="round"/>
<path d="M320 0V350" stroke="#F3F2FC" stroke-width="2" stroke-linejoin="round"/>
<path d="M360 0V350" stroke="#F3F2FC" stroke-width="2" stroke-linejoin="round"/>
<path d="M400 0V350" stroke="#F3F2FC" stroke-width="2" stroke-linejoin="round"/>
<path d="M440 0V350" stroke="#F3F2FC" stroke-width="2" stroke-linejoin="round"/>
<path d="M480 0V350" stroke="#F3F2FC" stroke-width="2" stroke-linejoin="round"/>
<path d="M520 0V350" stroke="#F3F2FC" stroke-width="2" stroke-linejoin="round"/>
<path d="M0 40H544" stroke="#F3F2FC" stroke-width="2" stroke-linejoin="round"/>
<path d="M0 80H544" stroke="#F3F2FC" stroke-width="2" stroke-linejoin="round"/>
<path d="M0 120H544" stroke="#F3F2FC" stroke-width="2" stroke-linejoin="round"/>
<path d="M0 160H544" stroke="#F3F2FC" stroke-width="2" stroke-linejoin="round"/>
<path d="M0 200H544" stroke="#F3F2FC" stroke-width="2" stroke-linejoin="round"/>
<path d="M0 240H544" stroke="#F3F2FC" stroke-width="2" stroke-linejoin="round"/>
<path d="M0 280H544" stroke="#F3F2FC" stroke-width="2" stroke-linejoin="round"/>
<path d="M0 320H544" stroke="#F3F2FC" stroke-width="2" stroke-linejoin="round"/>
<mask id="mask0_1_604" style="mask-type:alpha" maskUnits="userSpaceOnUse" x="0" y="0" width="544" height="350">
<rect width="544" height="350" fill="white"/>
</mask>
<g mask="url(#mask0_1_604)">
<rect width="544" height="350" fill="url(#paint0_linear_1_604)"/>
</g>
<path fill-rule="evenodd" clip-rule="evenodd" d="M207.928 17.9479C207.987 17.7289 208.213 17.5994 208.432 17.6586C209.252 17.8803 210.058 18.1016 210.852 18.3225C211.071 18.3833 211.199 18.6098 211.138 18.8284C211.077 19.047 210.851 19.1749 210.632 19.114C209.84 18.8937 209.035 18.6729 208.218 18.4517C207.999 18.3925 207.869 18.167 207.928 17.9479ZM214.952 19.9209C215.016 19.7033 215.245 19.579 215.463 19.6432C217.076 20.1195 218.63 20.5938 220.126 21.0664C220.342 21.1347 220.462 21.3655 220.394 21.5818C220.325 21.7982 220.095 21.9181 219.878 21.8498C218.388 21.3789 216.839 20.9061 215.23 20.4312C215.012 20.367 214.888 20.1385 214.952 19.9209ZM224.115 22.8011C224.188 22.5863 224.421 22.4715 224.636 22.5447C226.244 23.0923 227.775 23.6375 229.23 24.1801C229.443 24.2594 229.551 24.496 229.472 24.7085C229.392 24.9211 229.156 25.0292 228.943 24.95C227.496 24.4103 225.972 23.8677 224.371 23.3224C224.156 23.2493 224.042 23.0159 224.115 22.8011ZM233.219 26.1805C233.306 25.971 233.547 25.8717 233.756 25.9587C235.337 26.6152 236.808 27.2681 238.175 27.9174C238.38 28.0147 238.467 28.2598 238.37 28.4647C238.272 28.6696 238.027 28.7568 237.822 28.6595C236.469 28.0167 235.01 27.3693 233.441 26.7174C233.231 26.6304 233.132 26.39 233.219 26.1805ZM241.917 30.296C242.029 30.0986 242.279 30.0293 242.477 30.1412C244.025 31.0193 245.387 31.8916 246.569 32.7584C246.752 32.8925 246.792 33.1496 246.658 33.3325C246.524 33.5155 246.267 33.5552 246.084 33.4211C244.931 32.5763 243.597 31.7211 242.071 30.8559C241.874 30.744 241.805 30.4933 241.917 30.296ZM249.602 35.944C249.773 35.7943 250.032 35.811 250.182 35.9815C251.455 37.4304 252.256 38.8771 252.605 40.3215C252.659 40.542 252.523 40.764 252.302 40.8173C252.082 40.8707 251.86 40.7351 251.807 40.5146C251.496 39.2297 250.773 37.8989 249.565 36.5238C249.415 36.3534 249.432 36.0938 249.602 35.944ZM251.845 44.7274C252.051 44.8239 252.139 45.0686 252.042 45.2739C251.406 46.6286 250.392 47.9404 249.064 49.2109C248.9 49.3678 248.64 49.362 248.483 49.1981C248.326 49.0341 248.332 48.7741 248.496 48.6173C249.774 47.3943 250.717 46.1624 251.299 44.9246C251.395 44.7193 251.64 44.631 251.845 44.7274ZM245.306 51.6889C245.432 51.8774 245.381 52.1326 245.193 52.2587C243.941 53.0959 242.555 53.919 241.051 54.7283C240.852 54.8358 240.602 54.7609 240.495 54.5611C240.387 54.3613 240.462 54.1122 240.662 54.0047C242.147 53.2056 243.51 52.3958 244.736 51.5758C244.924 51.4497 245.18 51.5003 245.306 51.6889ZM236.911 56.3367C237.005 56.5428 236.915 56.7867 236.709 56.8815C235.296 57.5315 233.81 58.1725 232.26 58.8043C232.05 58.89 231.81 58.7891 231.725 58.579C231.639 58.3689 231.74 58.1292 231.95 58.0435C233.49 57.4156 234.965 56.7794 236.366 56.1351C236.572 56.0403 236.816 56.1305 236.911 56.3367ZM227.99 60.0262C228.069 60.239 227.96 60.4753 227.748 60.554C226.272 61.0996 224.751 61.6382 223.192 62.1696C222.978 62.2428 222.744 62.1281 222.671 61.9133C222.598 61.6986 222.712 61.4651 222.927 61.3919C224.48 60.8626 225.994 60.3264 227.463 59.7833C227.675 59.7047 227.912 59.8134 227.99 60.0262ZM218.872 63.1629C218.94 63.3791 218.821 63.6101 218.605 63.6789C217.094 64.1593 215.554 64.6336 213.991 65.1016C213.774 65.1666 213.545 65.0432 213.48 64.8258C213.415 64.6085 213.538 64.3796 213.755 64.3145C215.315 63.8477 216.85 63.3748 218.356 62.8959C218.572 62.8271 218.803 62.9467 218.872 63.1629ZM209.639 65.9451C209.701 66.1633 209.574 66.3905 209.356 66.4524C207.821 66.8882 206.268 67.3183 204.702 67.7425C204.483 67.8019 204.258 67.6724 204.198 67.4534C204.139 67.2345 204.268 67.0089 204.487 66.9495C206.05 66.5261 207.6 66.0969 209.131 65.6621C209.349 65.6001 209.577 65.7268 209.639 65.9451ZM200.329 68.4796C200.386 68.6992 200.254 68.9235 200.035 68.9805C198.483 69.3837 196.922 69.7813 195.356 70.1732C195.136 70.2283 194.913 70.0945 194.858 69.8744C194.803 69.6544 194.936 69.4313 195.157 69.3762C196.72 68.9848 198.279 68.5878 199.828 68.1853C200.047 68.1283 200.272 68.26 200.329 68.4796ZM190.973 70.8304C191.026 71.0509 190.891 71.2729 190.67 71.3263C189.107 71.7049 187.541 72.0779 185.979 72.4451C185.758 72.497 185.537 72.3601 185.485 72.1392C185.433 71.9184 185.57 71.6972 185.791 71.6453C187.352 71.2784 188.915 70.9059 190.477 70.5278C190.698 70.4744 190.92 70.6099 190.973 70.8304ZM181.586 73.0433C181.637 73.2645 181.499 73.4848 181.277 73.5354C179.7 73.8966 178.129 74.2518 176.569 74.601C176.348 74.6506 176.128 74.5113 176.079 74.2899C176.029 74.0685 176.168 73.8488 176.39 73.7993C177.949 73.4503 179.518 73.0954 181.094 72.7346C181.315 72.6839 181.535 72.8222 181.586 73.0433ZM172.17 75.1561C172.218 75.3777 172.078 75.5968 171.857 75.6454C171.072 75.8176 170.292 75.9882 169.516 76.1573C168.702 76.3345 167.898 76.5156 167.102 76.7005C166.881 76.7519 166.66 76.6143 166.609 76.3934C166.558 76.1724 166.695 75.9516 166.916 75.9002C167.715 75.7144 168.524 75.5325 169.341 75.3545C170.117 75.1856 170.897 75.015 171.68 74.843C171.902 74.7943 172.121 74.9345 172.17 75.1561ZM162.728 77.3537C162.785 77.5731 162.654 77.7978 162.435 77.8555C160.83 78.2777 159.264 78.7163 157.737 79.1706C157.52 79.2353 157.291 79.1114 157.226 78.894C157.162 78.6765 157.285 78.4478 157.503 78.3831C159.038 77.9263 160.612 77.4853 162.226 77.0609C162.445 77.0032 162.67 77.1343 162.728 77.3537ZM153.403 80.1023C153.476 80.3174 153.36 80.5503 153.145 80.6225C151.587 81.1453 150.073 81.6853 148.604 82.2416C148.392 82.322 148.155 82.2151 148.075 82.0029C147.994 81.7907 148.101 81.5536 148.313 81.4733C149.793 80.9132 151.316 80.3696 152.883 79.8436C153.098 79.7714 153.331 79.8873 153.403 80.1023ZM144.308 83.5197C144.397 83.7283 144.301 83.9698 144.092 84.0591C142.575 84.709 141.11 85.3775 139.697 86.0633C139.493 86.1624 139.247 86.0773 139.148 85.8732C139.049 85.6691 139.134 85.4233 139.338 85.3242C140.763 84.6326 142.24 83.9587 143.769 83.3038C143.977 83.2145 144.219 83.3112 144.308 83.5197ZM135.586 87.7172C135.695 87.9158 135.623 88.1657 135.425 88.2754C133.984 89.0711 132.606 89.8863 131.29 90.7192C131.098 90.8405 130.844 90.7834 130.723 90.5917C130.602 90.4 130.659 90.1462 130.85 90.0249C132.181 89.183 133.573 88.3595 135.028 87.5562C135.226 87.4465 135.476 87.5186 135.586 87.7172ZM127.379 92.8649C127.513 93.048 127.474 93.305 127.29 93.439C125.953 94.4179 124.692 95.4171 123.506 96.4341C123.334 96.5818 123.075 96.5619 122.927 96.3897C122.779 96.2175 122.799 95.9582 122.971 95.8105C124.174 94.7792 125.451 93.767 126.805 92.776C126.988 92.642 127.245 92.6818 127.379 92.8649ZM119.983 99.141C120.145 99.2996 120.148 99.5597 119.989 99.7219C118.835 100.902 117.774 102.101 116.802 103.316C116.661 103.493 116.402 103.522 116.225 103.38C116.048 103.239 116.019 102.98 116.161 102.803C117.15 101.566 118.23 100.346 119.402 99.1475C119.561 98.9853 119.821 98.9824 119.983 99.141ZM113.889 106.657C114.081 106.778 114.139 107.031 114.018 107.223C113.141 108.617 112.375 110.025 111.715 111.445C111.619 111.651 111.375 111.74 111.169 111.644C110.964 111.549 110.874 111.304 110.97 111.099C111.645 109.647 112.428 108.208 113.322 106.786C113.443 106.594 113.697 106.536 113.889 106.657ZM109.722 115.408C109.939 115.474 110.061 115.704 109.995 115.921C109.521 117.47 109.167 119.027 108.93 120.585C108.896 120.809 108.687 120.964 108.462 120.93C108.238 120.895 108.084 120.686 108.118 120.462C108.361 118.864 108.724 117.268 109.209 115.68C109.276 115.464 109.505 115.341 109.722 115.408ZM108.156 124.943C108.383 124.943 108.566 125.127 108.566 125.354C108.563 126.952 108.68 128.545 108.913 130.129C108.946 130.353 108.79 130.562 108.566 130.595C108.341 130.628 108.133 130.473 108.1 130.248C107.862 128.625 107.742 126.991 107.744 125.353C107.745 125.126 107.929 124.943 108.156 124.943ZM109.432 134.529C109.65 134.465 109.878 134.589 109.942 134.807C110.389 136.326 110.942 137.83 111.599 139.313C111.691 139.52 111.597 139.763 111.389 139.854C111.182 139.946 110.939 139.853 110.848 139.645C110.177 138.131 109.611 136.593 109.154 135.039C109.09 134.821 109.214 134.593 109.432 134.529ZM113.241 143.43C113.436 143.314 113.688 143.378 113.804 143.573C114.609 144.927 115.502 146.256 116.482 147.557C116.618 147.739 116.582 147.996 116.401 148.133C116.22 148.269 115.962 148.233 115.826 148.051C114.829 146.727 113.918 145.373 113.098 143.993C112.982 143.798 113.046 143.546 113.241 143.43ZM118.984 151.225C119.151 151.071 119.41 151.081 119.564 151.248C120.633 152.408 121.774 153.539 122.986 154.636C123.155 154.788 123.167 155.048 123.015 155.216C122.863 155.384 122.603 155.397 122.435 155.245C121.205 154.132 120.046 152.984 118.96 151.805C118.806 151.638 118.817 151.378 118.984 151.225ZM126.116 157.795C126.254 157.614 126.512 157.58 126.692 157.718C127.947 158.678 129.262 159.605 130.633 160.496C130.824 160.62 130.878 160.875 130.754 161.065C130.63 161.255 130.376 161.309 130.186 161.185C128.797 160.283 127.465 159.343 126.193 158.37C126.013 158.233 125.978 157.975 126.116 157.795ZM134.211 163.139C134.321 162.94 134.571 162.868 134.769 162.978C136.154 163.744 137.586 164.476 139.066 165.171C139.271 165.268 139.36 165.512 139.263 165.718C139.167 165.923 138.922 166.011 138.717 165.915C137.221 165.212 135.772 164.472 134.372 163.697C134.173 163.587 134.101 163.337 134.211 163.139ZM142.961 167.315C143.045 167.104 143.283 167.001 143.494 167.085C144.967 167.668 146.48 168.216 148.031 168.728C148.246 168.799 148.363 169.032 148.292 169.247C148.221 169.462 147.989 169.579 147.774 169.508C146.207 168.992 144.68 168.438 143.192 167.848C142.981 167.765 142.878 167.526 142.961 167.315ZM152.152 170.401C152.211 170.182 152.436 170.053 152.655 170.112C153.434 170.322 154.222 170.522 155.018 170.714C155.238 170.767 155.374 170.989 155.321 171.21C155.268 171.43 155.046 171.566 154.825 171.513C154.022 171.32 153.228 171.117 152.442 170.905C152.223 170.846 152.093 170.62 152.152 170.401Z" fill="#6C63D4"/>
<path d="M210.789 18.8715L171.353 20.5129L209.968 25.4371L209.453 28.7771L208.485 35.0651C208.403 35.5934 207.846 35.9043 207.353 35.6964L171.353 20.5129L211.17 5.79688C211.746 5.58376 212.344 6.05563 212.27 6.66533L210.789 18.8715Z" fill="#B4AFE9"/>
<path d="M210.789 18.8713L171.353 20.5127L209.968 25.4368L216.059 29.6107C216.344 29.3263 216.404 28.8876 216.208 28.5367L210.789 18.8713Z" fill="#938CE0"/>
<path d="M215.247 29.8565C215.541 29.9154 215.846 29.8232 216.059 29.6109L209.967 25.437L209.453 28.777L215.247 29.8565Z" fill="#6C63D4"/>
<path d="M268.861 210.917H447.001V331.592H268.861V210.917Z" fill="#FEC36B"/>
<path d="M268.861 350H283.194L287.289 331.592H268.861V350Z" fill="#ECAE51"/>
<path d="M447 350H432.667L428.572 331.592H447V350Z" fill="#ECAE51"/>
<path d="M276.028 218.076H439.834V262.05H276.028V218.076Z" fill="#826334"/>
<path d="M393.562 250.801C393.108 250.801 392.74 250.433 392.74 249.979V240.373C392.74 239.919 393.108 239.552 393.562 239.552H432.87C433.324 239.552 433.692 239.919 433.692 240.373V249.979C433.692 250.433 433.324 250.801 432.87 250.801H393.562Z" fill="#B4AFE9"/>
<path d="M396.632 262.051C396.179 262.051 395.811 261.683 395.811 261.229V251.623C395.811 251.169 396.179 250.801 396.632 250.801H435.941C436.394 250.801 436.762 251.169 436.762 251.623V261.229C436.762 261.683 436.394 262.051 435.941 262.051H396.632Z" fill="#6C63D4"/>
<path d="M285.241 228.101C285.241 227.648 285.609 227.28 286.063 227.28H295.681C296.135 227.28 296.503 227.648 296.503 228.101V261.229C296.503 261.683 296.135 262.051 295.681 262.051H286.063C285.609 262.051 285.241 261.683 285.241 261.229V228.101Z" fill="#B4AFE9"/>
<path d="M296.503 228.101C296.503 227.648 296.871 227.28 297.325 227.28H306.944C307.397 227.28 307.765 227.648 307.765 228.101V261.229C307.765 261.683 307.397 262.051 306.944 262.051H297.325C296.871 262.051 296.503 261.683 296.503 261.229V228.101Z" fill="#6C63D4"/>
<path d="M307.764 228.101C307.764 227.648 308.132 227.28 308.586 227.28H318.204C318.658 227.28 319.026 227.648 319.026 228.101V261.229C319.026 261.683 318.658 262.051 318.204 262.051H308.586C308.132 262.051 307.764 261.683 307.764 261.229V228.101Z" fill="#B4AFE9"/>
<path d="M319.068 231.658C318.855 231.257 319.007 230.76 319.407 230.547L327.9 226.037C328.3 225.824 328.798 225.976 329.011 226.377L344.581 255.627C344.794 256.027 344.642 256.525 344.241 256.738L335.749 261.248C335.348 261.461 334.851 261.309 334.637 260.908L319.068 231.658Z" fill="#6C63D4"/>
<path fill-rule="evenodd" clip-rule="evenodd" d="M275.206 325.255H358.753V268.388H275.206V325.255ZM276.849 323.612V270.031H357.109V323.612H276.849Z" fill="#ECAE51"/>
<path d="M349.74 308.071H352.811V285.572H349.74V308.071Z" fill="#ECAE51"/>
<path d="M370.215 308.071H373.287V285.572H370.215V308.071Z" fill="#ECAE51"/>
<path fill-rule="evenodd" clip-rule="evenodd" d="M364.275 325.255H440.655V268.388H364.275V325.255ZM365.918 323.612V270.031H439.011V323.612H365.918Z" fill="#ECAE51"/>
<path d="M107.681 268.365H194.769V349.613H107.681V268.365Z" fill="#8A86D3"/>
<path d="M107.681 268.365L97.0002 274.664V349.613H107.681V268.365Z" fill="#3A3683"/>
<path d="M179.584 131.521C180.546 137.103 182.031 146.924 177.79 148.694C172.347 150.966 166.046 148.978 163.468 146.138C162.607 146.681 161.661 146.567 160.781 146.051C160.919 147.069 160.963 148.179 160.837 149.459C158.604 147.109 151.596 140.744 154.302 131.085C156.593 122.905 167.669 121.049 172.92 121.144C174.257 120.481 177.446 119.951 179.508 123.132C182.086 127.109 182.659 130.801 181.513 131.937C181.153 132.294 180.426 132.048 179.584 131.521Z" fill="#2C2C2C"/>
<path d="M179.583 131.521C180.545 137.103 182.03 146.924 177.789 148.694C176.363 149.736 173.287 153.174 172.312 157.079C179.16 159.626 165.192 171.116 156.976 156.343C160.263 155.933 160.262 151.828 160.836 149.459C160.962 148.179 160.918 147.069 160.78 146.051C158.439 144.678 156.567 140.456 158.025 138.185C159.629 135.686 161.939 138.469 162.894 140.174L163.316 134.728C166.674 134.035 170.901 129.311 172.919 126.541C172.919 127.866 173.206 130.687 174.351 131.369C175.784 132.221 175.497 130.517 175.784 128.245C176.71 129.221 178.284 130.706 179.583 131.521Z" fill="#F7AA8C"/>
<path d="M231.74 179.805C229.276 183.014 229.687 193.683 235.437 198.607C238.724 196.965 234.205 179.805 231.74 179.805Z" fill="#3A3683"/>
<path d="M234.742 179.701C237.186 176.354 242.773 174.807 246.265 174.807C249.08 174.807 244.868 177.254 240.678 178.504C241.26 178.853 243.541 179.832 248.011 180.951C248.969 181.191 249.845 181.204 250.646 181.071C251.241 180.922 251.809 180.75 252.336 180.551C255.154 179.288 256.812 176.583 257.788 177.804C259.185 179.552 254.296 183.748 249.757 185.146C246.125 186.265 241.26 187.276 238.932 187.743C238.932 187.743 235.998 190.793 230.901 193.682C228.945 190.323 229.155 185.867 229.504 184.06C232.591 182.118 233.879 180.883 234.742 179.701Z" fill="#F7AA8C"/>
<path d="M219.726 338.581L231.488 331.146L229.566 326.834L217.418 331.442L219.726 338.581Z" fill="#F7AA8C"/>
<path d="M252.647 336.774L223.524 349.791L223.145 349.959L222.385 347.431L219.727 338.58L231.489 331.146C234.736 329.99 234.559 331.999 234.065 333.148C236.775 333.064 242.703 334.788 248.327 335.893C249.972 336.216 251.466 336.523 252.647 336.774Z" fill="#2C2C2C"/>
<path d="M177.942 320.257L191.344 324.014L193.266 319.702L181.709 313.767L177.942 320.257Z" fill="#F7AA8C"/>
<path d="M201.315 343.487L172.144 330.578L171.765 330.409L173.138 328.153L177.943 320.258L191.344 324.014C194.377 325.652 192.764 326.865 191.579 327.267C193.454 329.222 196.138 334.777 199.08 339.691C199.94 341.128 200.711 342.442 201.315 343.487Z" fill="#2C2C2C"/>
<path d="M112.957 206.58C110.903 195.09 118.298 176.215 126.514 166.366C130.785 161.247 148.522 157.265 158.786 155.562C161.084 161.267 169.3 165.371 172.712 157.254C180.186 158.537 191.884 161.7 203.743 184.422C211.685 182.917 223.196 181.213 231.74 179.571C229.276 182.78 229.688 193.685 235.439 198.609C235.182 198.727 232.563 201.481 229.143 201.071C214.79 206.732 207.195 206.157 200.52 206.99C194.516 207.74 189.791 202.672 186.267 196.515C186.381 206.472 187.375 214.787 190.25 217.249C193.126 219.711 190.25 221.968 191.072 222.584C195.673 226.03 195.591 227.918 192.304 228.328C184.636 231.338 168.068 235.868 146.707 232.257C144.242 231.841 133.785 235.163 131.507 233.899C127.81 231.847 130.622 230.38 130.622 228.739L130.323 226.174C122.994 220.536 114.161 213.316 112.957 206.58Z" fill="#B4AFE9"/>
<path fill-rule="evenodd" clip-rule="evenodd" d="M129.997 226.157C130.136 225.977 130.393 225.944 130.573 226.082C131.877 227.085 133.133 227.738 134.313 228.34C134.36 228.364 134.406 228.388 134.453 228.412C135.572 228.982 136.642 229.527 137.561 230.299C137.735 230.444 137.758 230.704 137.612 230.877C137.466 231.051 137.207 231.074 137.033 230.928C136.187 230.218 135.193 229.711 134.045 229.126C134.01 229.108 133.975 229.09 133.939 229.072C132.757 228.469 131.441 227.786 130.072 226.733C129.892 226.595 129.859 226.337 129.997 226.157Z" fill="#3A3683"/>
<path fill-rule="evenodd" clip-rule="evenodd" d="M136.026 183.013C136.253 183.013 136.437 183.197 136.437 183.424C136.437 184.465 136.436 185.464 136.435 186.423C136.431 191.518 136.428 195.463 136.548 198.351C136.62 200.067 136.734 201.392 136.913 202.354C137.003 202.834 137.106 203.211 137.222 203.496C137.333 203.769 137.446 203.932 137.547 204.024L148.164 210.984C148.354 211.108 148.407 211.363 148.283 211.553C148.158 211.742 147.904 211.795 147.714 211.671L137.051 204.681L133.643 201.793C133.47 201.646 133.448 201.387 133.595 201.214C133.742 201.04 134.001 201.019 134.174 201.166L136.179 202.865C136.154 202.749 136.129 202.629 136.106 202.504C135.916 201.483 135.799 200.111 135.728 198.385C135.607 195.478 135.61 191.512 135.614 186.418C135.615 185.46 135.615 184.462 135.615 183.424C135.615 183.197 135.799 183.013 136.026 183.013Z" fill="#3A3683"/>
<path d="M137.297 230.614C135.204 223.227 138.901 211.327 147.939 211.327C152.047 215.431 145.873 233.896 137.297 230.614Z" fill="#3A3683"/>
<path d="M149.076 220.925C152.411 219.828 156.189 218.446 155.743 216.662C155.367 215.158 152.922 215.721 145.884 217.718L141.365 213.994C139.093 216.156 137.643 219.383 137.043 222.716L137.848 223.609C139.086 224.984 140.568 226.127 142.316 226.735C145.83 227.956 151.003 229.225 153.278 228.972C155.211 228.758 158.79 227.821 162.316 226.51C166.259 224.501 164.78 224.518 163.137 224.391C158.674 224.048 155.535 224.048 154.921 224.048C154.304 224.048 150.903 222.194 149.076 220.925Z" fill="#F7AA8C"/>
<path d="M176.611 312.613C181.908 295.95 190.702 273.142 201.164 259.074C211.611 251.688 223.524 259.074 223.524 268.102C222.398 278.637 214.445 292.851 205.861 307.762C206.304 309.849 204.613 313.663 202.986 314.738C201.85 315.487 201.454 314.613 201.343 315.969C201.141 318.42 197.948 325.55 196.001 325.55C191.321 323.68 182.569 318.704 177.125 314.342C176.609 313.929 176.41 313.244 176.611 312.613Z" fill="#131039"/>
<path fill-rule="evenodd" clip-rule="evenodd" d="M188.698 173.996C188.919 174.046 189.058 174.266 189.008 174.487C187.322 181.895 186.598 189.792 186.678 196.744C186.735 201.713 187.011 206.257 187.628 209.856C187.936 211.656 188.328 213.208 188.814 214.455C189.301 215.707 189.872 216.617 190.517 217.17C190.69 217.318 190.71 217.577 190.562 217.75C190.415 217.922 190.155 217.942 189.983 217.794C189.191 217.116 188.559 216.064 188.048 214.753C187.535 213.437 187.132 211.826 186.818 209.995C186.191 206.333 185.913 201.74 185.856 196.753C185.776 189.743 186.506 181.781 188.206 174.305C188.257 174.084 188.477 173.945 188.698 173.996Z" fill="#3A3683"/>
<path d="M147.053 231.844C144.589 231.428 133.908 234.33 131.443 233.486C130.713 233.236 130.246 232.952 129.964 232.579C128.042 244.549 131.149 260.009 141.825 268.365H194.872C194.496 270.417 195.509 278.706 196.412 280.675C197.541 283.137 198.466 284.779 199.064 286.831C200.987 294.64 203.058 302.116 205.862 311.528C206.193 312.637 205.892 313.637 205.05 314.43C204.526 314.924 204.155 315.604 204.628 316.786C205.45 318.837 206.252 319.923 207.504 320.479C208.736 322.557 207.915 322.53 208.325 325.813C208.613 328.111 211.002 331.334 212.342 332.724C212.659 333.052 212.918 333.467 213.314 333.693C213.894 334.023 214.839 333.972 215.988 333.61C221.86 331.76 227.722 329.504 231.737 327.15C233.041 326.385 233.665 324.876 233.457 323.378C229.241 292.976 226.091 270.631 222.818 255.234C215.988 223.112 204.628 226.51 185.732 229.718C177.398 232.35 164.476 234.789 147.053 231.844Z" fill="#131039"/>
<path fill-rule="evenodd" clip-rule="evenodd" d="M192.673 257.906C192.784 257.882 192.893 257.953 192.916 258.064L195.082 268.362L195.074 268.402C194.985 268.889 194.976 269.77 195.032 270.867C195.088 271.957 195.207 273.242 195.366 274.526C195.525 275.81 195.724 277.089 195.939 278.17C196.155 279.256 196.384 280.122 196.599 280.59C196.894 281.234 197.177 281.824 197.444 282.382C198.191 283.941 198.817 285.248 199.261 286.773L199.264 286.782C201.186 294.587 203.256 302.06 206.059 311.47C206.413 312.658 206.086 313.737 205.191 314.58C204.945 314.811 204.75 315.073 204.664 315.402C204.578 315.729 204.595 316.149 204.819 316.709C205.634 318.746 206.41 319.768 207.587 320.291L207.647 320.318L207.68 320.374C207.993 320.901 208.182 321.305 208.291 321.668C208.401 322.035 208.428 322.35 208.428 322.694C208.428 322.85 208.423 323.011 208.417 323.186C208.397 323.779 208.372 324.534 208.529 325.788C208.667 326.89 209.316 328.239 210.113 329.499C210.906 330.755 211.83 331.897 212.49 332.581C212.59 332.685 212.692 332.805 212.788 332.919C212.845 332.987 212.9 333.052 212.952 333.11C213.101 333.278 213.247 333.418 213.416 333.514C213.661 333.654 214 333.722 214.43 333.706C214.859 333.69 215.363 333.591 215.927 333.414C216.035 333.38 216.15 333.44 216.184 333.548C216.218 333.656 216.158 333.772 216.05 333.806C215.464 333.991 214.921 334.099 214.445 334.116C213.971 334.134 213.547 334.062 213.213 333.871C212.985 333.742 212.804 333.562 212.645 333.383C212.577 333.307 212.516 333.234 212.457 333.165C212.371 333.061 212.289 332.964 212.195 332.866C211.514 332.161 210.573 330.997 209.765 329.719C208.961 328.446 208.271 327.034 208.122 325.839C207.96 324.55 207.987 323.755 208.006 323.162C208.012 322.992 208.017 322.838 208.017 322.694C208.017 322.375 207.993 322.103 207.898 321.787C207.805 321.479 207.643 321.123 207.36 320.639C206.068 320.042 205.252 318.897 204.438 316.862C204.189 316.241 204.154 315.73 204.266 315.298C204.378 314.868 204.631 314.543 204.909 314.281C205.699 313.537 205.972 312.617 205.665 311.587C202.861 302.175 200.79 294.696 198.866 286.884C198.431 285.395 197.826 284.13 197.085 282.585C196.816 282.022 196.529 281.422 196.226 280.761C195.989 280.244 195.752 279.336 195.536 278.25C195.319 277.158 195.119 275.868 194.959 274.576C194.799 273.285 194.679 271.99 194.622 270.888C194.567 269.819 194.571 268.913 194.663 268.369L192.514 258.149C192.491 258.038 192.562 257.929 192.673 257.906Z" fill="#8A86D3"/>
<path fill-rule="evenodd" clip-rule="evenodd" d="M194.753 269.057C194.95 269.168 195.021 269.418 194.91 269.616C187.196 283.359 180.802 300.633 176.675 313.773C176.607 313.99 176.376 314.11 176.16 314.042C175.944 313.974 175.823 313.744 175.891 313.527C180.025 300.364 186.439 283.029 194.193 269.214C194.304 269.016 194.555 268.946 194.753 269.057Z" fill="#8A86D3"/>
<path d="M148.938 239.526C151.159 243.455 154.383 246.207 158.949 245.599C165.109 244.779 176.018 243.339 185.597 242.825C190.382 242.568 194.866 242.54 198.271 242.944C199.969 243.145 201.437 243.458 202.549 243.925C203.644 244.384 204.528 245.051 204.811 246.04C205.577 248.719 205.566 251.649 205.556 254.162C205.555 254.44 205.554 254.713 205.554 254.981C205.554 256.344 205.581 257.538 205.75 258.511C205.921 259.49 206.218 260.135 206.667 260.509C206.841 260.654 206.97 260.863 207.067 261.048C207.173 261.248 207.278 261.495 207.382 261.775C207.593 262.338 207.821 263.086 208.066 263.986C208.557 265.79 209.127 268.255 209.763 271.174C210.442 274.29 211.199 277.944 212.015 281.882L212.016 281.884L212.016 281.885C212.727 285.316 213.483 288.963 214.27 292.656C215.964 300.604 217.809 308.797 219.691 315.639C219.726 315.764 219.76 315.888 219.794 316.012C220.149 315.9 220.504 315.789 220.857 315.679C224.904 314.418 228.847 313.271 231.739 312.606C231.811 312.59 231.882 312.573 231.952 312.558L232.123 313.781C229.302 314.424 225.355 315.567 221.224 316.854C220.86 316.967 220.494 317.082 220.128 317.198C220.925 319.996 221.725 322.526 222.52 324.669C223.445 327.161 224.347 329.088 225.204 330.306C224.82 330.464 224.43 330.622 224.035 330.778C223.136 329.427 222.244 327.468 221.365 325.096C220.559 322.924 219.752 320.375 218.952 317.57C214.947 318.847 210.972 320.183 207.909 321.242C207.808 321.019 207.676 320.769 207.504 320.479C207.344 320.408 207.191 320.328 207.044 320.238C210.181 319.15 214.384 317.733 218.619 316.384C218.58 316.245 218.542 316.105 218.503 315.965C216.611 309.086 214.759 300.865 213.064 292.912C212.273 289.2 211.517 285.552 210.807 282.124L210.807 282.122L210.806 282.121C209.992 278.193 209.238 274.553 208.559 271.436C207.924 268.52 207.359 266.08 206.877 264.309C206.635 263.422 206.419 262.716 206.228 262.206C206.132 261.951 206.048 261.757 205.976 261.619C205.909 261.492 205.873 261.451 205.873 261.451C205.873 261.451 205.875 261.452 205.878 261.455C205.095 260.803 204.725 259.806 204.536 258.721C204.346 257.63 204.321 256.336 204.321 254.981C204.321 254.712 204.322 254.44 204.323 254.166C204.332 251.627 204.341 248.878 203.626 246.378C203.498 245.931 203.048 245.47 202.072 245.06C201.114 244.658 199.777 244.362 198.125 244.166C194.828 243.775 190.429 243.798 185.663 244.054C176.14 244.566 165.277 245.998 159.112 246.819C153.82 247.524 150.197 244.258 147.865 240.131C146.419 237.572 145.429 234.624 144.803 231.926C145.262 231.871 145.679 231.832 146.042 231.814C146.648 234.372 147.589 237.139 148.938 239.526Z" fill="#8A86D3"/>
<path d="M189.899 307.003C192.491 299.456 195.568 290.597 197.917 283.861C198.179 284.432 198.419 284.984 198.633 285.548C196.302 292.237 193.376 300.67 190.916 307.836C194.607 310.812 198.412 313.354 201.796 315.128C201.637 315.496 201.315 316.239 201.302 316.259C197.929 314.499 194.161 312 190.492 309.074C188.795 314.026 187.363 318.258 186.57 320.709L185.481 320.072C186.316 317.506 187.769 313.217 189.472 308.248C186.539 305.832 183.7 303.158 181.214 300.388L181.695 299.075C184.143 301.862 186.969 304.561 189.899 307.003Z" fill="#8A86D3"/>
<path d="M340.19 0H269.534C267.719 0 266.247 1.46974 266.247 3.28275V36.1103C266.247 37.9233 267.719 39.393 269.534 39.393H330.236C331.087 39.393 331.906 39.7233 332.518 40.3142L343.476 50.8827V3.28275C343.476 1.46974 342.005 0 340.19 0Z" fill="#6C63D4"/>
<path d="M276.106 10.669C276.106 9.76246 276.84 9.02759 277.747 9.02759H331.975C332.882 9.02759 333.617 9.76246 333.617 10.669C333.617 11.5755 332.882 12.3103 331.975 12.3103H277.747C276.84 12.3103 276.106 11.5755 276.106 10.669Z" fill="white"/>
<path d="M276.106 18.8758C276.106 17.9692 276.84 17.2344 277.747 17.2344H331.975C332.882 17.2344 333.617 17.9692 333.617 18.8758C333.617 19.7823 332.882 20.5171 331.975 20.5171H277.747C276.84 20.5171 276.106 19.7823 276.106 18.8758Z" fill="white"/>
<path d="M276.106 27.0828C276.106 26.1763 276.84 25.4414 277.747 25.4414H315.544C316.45 25.4414 317.185 26.1763 317.185 27.0828C317.185 27.9893 316.45 28.7242 315.544 28.7242H277.747C276.84 28.7242 276.106 27.9893 276.106 27.0828Z" fill="white"/>
<path d="M239.612 64.0137H156.977C155.162 64.0137 153.69 65.485 153.69 67.3001V93.1312C153.69 94.9463 155.162 96.4176 156.977 96.4176H162.251V105.869L175.316 96.4176H239.612C241.427 96.4176 242.899 94.9463 242.899 93.1312V67.3001C242.899 65.485 241.427 64.0137 239.612 64.0137Z" fill="#B4AFE9"/>
<path d="M167.207 75.7153C167.207 74.721 168.013 73.915 169.007 73.915H228.484C229.478 73.915 230.284 74.721 230.284 75.7153C230.284 76.7095 229.478 77.5155 228.484 77.5155H169.007C168.013 77.5155 167.207 76.7095 167.207 75.7153Z" fill="white"/>
<path d="M167.207 84.7162C167.207 83.722 168.013 82.916 169.007 82.916H192.44C193.434 82.916 194.24 83.722 194.24 84.7162C194.24 85.7105 193.434 86.5165 192.44 86.5165H169.007C168.013 86.5165 167.207 85.7105 167.207 84.7162Z" fill="white"/>
<path d="M349.257 336.295L334.553 334.02L333.617 326.224L348.816 324.993L349.257 336.295Z" fill="#F7AA8C"/>
<path d="M315.542 348.726L349.605 348.793H350.049L349.257 335.475L333.732 333.199C330.062 333.498 331.108 335.49 332.089 336.45C329.41 337.607 324.378 342.11 319.372 345.833C317.909 346.922 316.585 347.924 315.542 348.726Z" fill="#2C2C2C"/>
<path d="M404.274 348.793L402.22 335.68C399.051 334.572 391.674 333.891 387.842 334.041C386.652 334.088 385.804 334.214 385.53 334.433C384.009 335.648 385.068 336.703 385.788 337.078C381.034 340.528 376.982 346.283 375.518 348.793H404.274Z" fill="#2C2C2C"/>
<path d="M401.398 328.275L402.22 335.68C399.051 334.572 391.674 333.89 387.842 334.041V329.096L401.398 328.275Z" fill="#F7AA8C"/>
<path d="M377.847 57.0856C377.064 59.7125 375.596 63.9265 374.798 66.1502C374.233 68.5916 372.689 73.953 375.671 80.7617C370.206 85.625 362.896 84.2065 359.924 82.8894C360.579 75.2222 360.133 71.5454 359.565 69.4949L357.055 70.5694C357.048 70.5728 357.04 70.5761 357.033 70.5791C356.028 70.9909 354.708 65.4992 354.336 64.7043C353.965 63.9095 352.582 64.6114 352.42 63.776C352.217 62.7316 353.738 59.4016 353.326 58.3979C353.053 57.7338 352.788 55.635 352.638 54.1653L352.678 53.755C352.531 50.9727 354.072 48.8883 355.011 48.1001C355.285 48.5849 356.354 50.1024 358.091 51.6031C360.129 53.3645 363.088 55.1028 366.76 55.1207C367.236 55.1231 367.392 54.14 367.058 53.8025C365.69 52.4238 365.124 50.0779 364.867 48.3539C368.709 49.9468 375.952 53.6556 377.847 57.0856Z" fill="#F7AA8C"/>
<path d="M359.923 58.851L358.09 51.6032C360.128 53.3646 363.087 55.1029 366.759 55.1209C367.235 55.1232 367.391 54.1402 367.057 53.8026C365.689 52.4239 365.123 50.0781 364.866 48.354C368.708 49.947 375.951 53.6557 377.846 57.0857C377.063 59.7127 375.595 63.9267 374.797 66.1504C372.234 68.3678 367.057 68.7933 361.984 63.8695C364.006 60.876 363.739 56.1593 362.159 54.732C360.895 53.5901 360.142 57.0022 359.923 58.851Z" fill="#2C2C2C"/>
<path d="M357.814 318.18C360.129 314.356 359.314 310.32 358.587 308.735C359.843 295.341 364.502 276.928 366.917 243.552L366.963 243.839C370.487 265.673 373.469 284.155 379.329 311.197C379.211 314.083 379.329 315.71 380.562 318.583C377.667 321.252 377.626 324.072 377.986 326.123C378.245 327.597 379.257 328.882 380.626 329.487C389.548 333.434 400.981 332.656 408.017 330.836C409.619 330.422 410.843 329.066 410.513 327.444C410.299 326.399 409.904 325.328 409.465 324.371C408.744 322.798 408.68 320.938 408.619 319.203L408.615 319.082C408.516 316.238 406.95 313.131 406.442 311.607C407.428 303.072 393.707 199.446 392.475 154.856C383.93 153.214 350.637 155.539 335.059 156.907C333.022 171.249 332.499 235.283 328.802 309.555C328.499 309.929 326.702 311.666 328.25 315.075C328.486 315.597 328.203 316.318 327.826 316.749C326.418 318.361 325.599 322.777 326.822 327.691C327.201 329.214 328.461 330.335 329.993 330.673C340.694 333.033 350.509 331.436 355.14 330.174C355.385 330.107 355.623 330.024 355.843 329.899C359.481 327.837 358.737 321.537 357.749 319.018C357.642 318.744 357.661 318.432 357.814 318.18Z" fill="#131039"/>
<path d="M408.619 319.199L408.616 319.088C408.613 319.008 408.609 318.928 408.604 318.848C401.614 319.606 395.221 319.514 390.118 319.069C388.316 318.912 386.682 318.711 385.242 318.49C382.16 291.317 374.065 249.047 369.498 227.64C369.226 228.29 368.947 228.95 368.659 229.622C373.263 251.428 380.96 291.903 383.978 318.282C382.358 317.997 381.045 317.69 380.094 317.405C380.228 317.777 380.383 318.167 380.562 318.583C380.497 318.643 380.434 318.703 380.371 318.763C381.377 319.032 382.64 319.305 384.122 319.556C384.594 323.833 384.936 327.711 385.112 331.044C385.526 331.153 385.943 331.254 386.362 331.348C386.195 327.998 385.857 324.083 385.383 319.756C386.776 319.963 388.327 320.148 390.01 320.295C395.163 320.745 401.607 320.839 408.652 320.081C408.639 319.785 408.629 319.49 408.619 319.199Z" fill="#8A86D3"/>
<path d="M339.422 218.552C340.914 195.482 342.323 173.695 343.314 156.717L344.544 156.789C343.552 173.784 342.142 195.582 340.65 218.657C338.485 252.122 336.147 288.274 334.657 316.364C341.244 317.172 350.309 317.834 358.349 317.181C358.193 317.514 358.015 317.848 357.814 318.181C357.76 318.269 357.723 318.365 357.702 318.464C349.783 319.027 341.028 318.382 334.592 317.596C334.336 322.458 334.107 327.07 333.909 331.374C333.503 331.318 333.094 331.256 332.684 331.189C332.882 326.893 333.111 322.291 333.366 317.441C331.191 317.156 329.335 316.863 327.939 316.607C328.182 316.274 328.36 315.828 328.335 315.428C329.673 315.669 331.412 315.942 333.431 316.208C334.922 288.118 337.259 251.988 339.422 218.552Z" fill="#8A86D3"/>
<path fill-rule="evenodd" clip-rule="evenodd" d="M382.136 184.865C382.247 184.891 382.316 185.001 382.29 185.112C377.363 206.44 374.895 215.484 367.718 231.893C366.313 259.354 363.257 279.318 361.018 293.943C360.126 299.769 359.364 304.748 358.887 309.016C358.875 309.128 358.773 309.209 358.661 309.197C358.548 309.184 358.467 309.083 358.479 308.97C358.958 304.681 359.722 299.689 360.616 293.854C362.855 279.225 365.906 259.293 367.309 231.834L367.311 231.797L367.326 231.762C374.5 215.365 376.962 206.352 381.89 185.019C381.915 184.909 382.026 184.84 382.136 184.865Z" fill="#8A86D3"/>
<path d="M282.122 96.2692C284.301 97.7389 290.271 101.96 292.984 103.887L286.029 111.892L285.999 111.839C283.717 107.892 281.937 104.813 277.704 105.146C264.998 106.145 259.674 104.834 259.874 103.745C260.045 102.82 270.374 100.123 275.473 99.1301C273.061 97.1129 268.504 97.9889 268.993 96.538C269.606 94.7245 279.399 94.4315 282.122 96.2692Z" fill="#F7AA8C"/>
<path d="M349.226 77.9653C360.318 71.3999 386.198 75.5033 395.235 85.7619C397.974 88.6343 403.287 102.668 405.916 114.486C408.642 126.74 403.736 130.523 396.356 137.313C395.087 144.376 393.811 149.841 395.235 159.624C383.048 161.402 351.034 163.891 333.616 159.624C330.74 158.919 336.902 154.7 335.259 152.648C332.732 149.492 330.716 147.526 335.259 141.979C337.195 139.616 337.183 130.125 336.532 126.414C332.336 133.384 329.081 136.507 322.525 137.465C313.345 138.807 312.712 140.852 287.801 119.598C286.375 120.641 285.142 119 285.142 117.322C283.914 117.614 283.117 117.278 282.615 116.714C281.558 115.525 282.085 113.705 282.748 112.258C284.913 107.534 289.128 101.709 292.537 99.7136C293.033 99.9616 293.913 100.704 293.827 101.82C294.134 101.373 295.519 101.346 299.52 103.536L317.184 113.204C337.724 89.8147 345.692 80.0573 349.226 77.9653Z" fill="#6C63D4"/>
<path d="M355.392 75.651C362.875 73.9786 372.825 74.8046 381.272 77.562C378.643 77.2394 362.923 76.1536 355.392 75.651Z" fill="#8A86D3"/>
<path fill-rule="evenodd" clip-rule="evenodd" d="M395.172 87.8184C395.396 87.7828 395.607 87.9357 395.642 88.1598C399.549 112.809 398.733 123.631 397.335 131.129C397.054 132.638 396.751 134.005 396.46 135.319C395.308 140.519 394.341 144.881 395.643 153.82C395.676 154.044 395.52 154.253 395.296 154.286C395.071 154.318 394.863 154.163 394.83 153.938C393.506 144.843 394.504 140.341 395.662 135.116C395.952 133.81 396.251 132.458 396.527 130.978C397.902 123.602 398.729 112.881 394.831 88.2884C394.795 88.0643 394.948 87.8539 395.172 87.8184Z" fill="#3A3683"/>
<path fill-rule="evenodd" clip-rule="evenodd" d="M348.2 105.513C348.397 105.626 348.464 105.877 348.351 106.074C345.759 110.585 343.627 114.5 341.779 117.894C341.36 118.663 340.955 119.406 340.563 120.123C338.446 123.995 336.691 127.118 334.983 129.601C333.273 132.087 331.596 133.953 329.626 135.3C327.651 136.649 325.407 137.459 322.585 137.872C322.361 137.905 322.152 137.749 322.119 137.525C322.087 137.3 322.242 137.092 322.467 137.059C325.191 136.661 327.311 135.886 329.162 134.621C331.017 133.354 332.627 131.576 334.306 129.136C335.987 126.692 337.723 123.605 339.842 119.729C340.233 119.014 340.637 118.272 341.056 117.503C342.904 114.11 345.041 110.185 347.639 105.664C347.752 105.467 348.003 105.4 348.2 105.513Z" fill="#3A3683"/>
<path d="M358.09 51.6031C356.353 50.1025 355.284 48.585 355.01 48.1002C353.971 48.9725 352.195 51.4322 352.784 54.6686C352.845 55.001 352.538 55.2983 352.224 55.1735C349.648 54.1504 346.44 51.6185 349.957 47.7807C348.889 44.5202 349.429 45.0655 358.612 38.7307C365.958 33.6628 372.986 40.4914 375.582 44.5392C379.789 43.4066 381.888 48.8322 382.588 53.3422C382.651 53.749 382.133 53.9918 381.81 53.7354C380.663 52.8229 379.872 52.8371 379.508 52.4471C380.392 55.4868 379.807 57.1939 378.866 58.102C378.635 58.3251 378.271 58.1451 378.175 57.8388C378.096 57.5899 377.986 57.3386 377.846 57.0857C375.951 53.6556 368.708 49.9469 364.866 48.3539C365.123 50.078 365.689 52.4238 367.057 53.8025C367.391 54.1401 367.235 55.1231 366.759 55.1208C363.087 55.1028 360.128 53.3646 358.09 51.6031Z" fill="#2C2C2C"/>
</g>
<defs>
<linearGradient id="paint0_linear_1_604" x1="272" y1="39" x2="272" y2="279.5" gradientUnits="userSpaceOnUse">
<stop stop-color="#F3F2FC" stop-opacity="0"/>
<stop offset="1" stop-color="#F3F2FC"/>
</linearGradient>
<clipPath id="clip0_1_604">
<rect width="544" height="350" rx="6" fill="white"/>
</clipPath>
</defs>
</svg>
