<svg width="544" height="350" viewBox="0 0 544 350" fill="none" xmlns="http://www.w3.org/2000/svg">
<g clip-path="url(#clip0_1_713)">
<path d="M40 0V350" stroke="#F3F2FC" stroke-width="2" stroke-linejoin="round"/>
<path d="M80 0V350" stroke="#F3F2FC" stroke-width="2" stroke-linejoin="round"/>
<path d="M120 0V350" stroke="#F3F2FC" stroke-width="2" stroke-linejoin="round"/>
<path d="M160 0V350" stroke="#F3F2FC" stroke-width="2" stroke-linejoin="round"/>
<path d="M200 0V350" stroke="#F3F2FC" stroke-width="2" stroke-linejoin="round"/>
<path d="M240 0V350" stroke="#F3F2FC" stroke-width="2" stroke-linejoin="round"/>
<path d="M280 0V350" stroke="#F3F2FC" stroke-width="2" stroke-linejoin="round"/>
<path d="M320 0V350" stroke="#F3F2FC" stroke-width="2" stroke-linejoin="round"/>
<path d="M360 0V350" stroke="#F3F2FC" stroke-width="2" stroke-linejoin="round"/>
<path d="M400 0V350" stroke="#F3F2FC" stroke-width="2" stroke-linejoin="round"/>
<path d="M440 0V350" stroke="#F3F2FC" stroke-width="2" stroke-linejoin="round"/>
<path d="M480 0V350" stroke="#F3F2FC" stroke-width="2" stroke-linejoin="round"/>
<path d="M520 0V350" stroke="#F3F2FC" stroke-width="2" stroke-linejoin="round"/>
<path d="M0 40H544" stroke="#F3F2FC" stroke-width="2" stroke-linejoin="round"/>
<path d="M0 80H544" stroke="#F3F2FC" stroke-width="2" stroke-linejoin="round"/>
<path d="M0 120H544" stroke="#F3F2FC" stroke-width="2" stroke-linejoin="round"/>
<path d="M0 160H544" stroke="#F3F2FC" stroke-width="2" stroke-linejoin="round"/>
<path d="M0 200H544" stroke="#F3F2FC" stroke-width="2" stroke-linejoin="round"/>
<path d="M0 240H544" stroke="#F3F2FC" stroke-width="2" stroke-linejoin="round"/>
<path d="M0 280H544" stroke="#F3F2FC" stroke-width="2" stroke-linejoin="round"/>
<path d="M0 320H544" stroke="#F3F2FC" stroke-width="2" stroke-linejoin="round"/>
<mask id="mask0_1_713" style="mask-type:alpha" maskUnits="userSpaceOnUse" x="0" y="0" width="544" height="350">
<rect width="544" height="350" fill="white"/>
</mask>
<g mask="url(#mask0_1_713)">
<rect width="544" height="350" fill="url(#paint0_linear_1_713)"/>
</g>
<path d="M241.249 177.643C241.217 179.447 239.562 184.812 242.331 188.871C237.451 193.456 234.202 192.907 233.187 192.059C231.15 187.963 232.269 184.538 230.094 183.475C228.354 182.625 227.056 180.049 226.625 178.868C225.417 179.491 225.215 172.961 225.37 170.974C225.525 168.988 227.021 170.083 227.144 169.9C227.298 168.423 229.165 168.461 230.079 168.665C231.19 167.17 232.427 168.236 232.906 168.955C232.853 167.473 235.258 166.829 235.878 167.86C236.315 168.586 237.517 171.106 238.261 172.697C238.948 172.687 239.463 172.761 239.656 172.982C240.399 173.831 241.281 175.839 241.249 177.643Z" fill="#F29A77"/>
<path d="M252.16 219.362C253.146 221.334 258.869 232.078 262.84 240.02C257.582 250.208 247.23 251.933 242.711 251.522C239.836 242.759 234.249 231.275 233.263 226.346C232.277 221.416 230.798 197.289 230.387 189.479C235.317 186.206 241.479 186.499 243.944 188.142C245.176 196.358 250.927 211.147 252.16 219.362Z" fill="#6C63D4"/>
<path d="M313.369 193.072C315.833 201.699 326.514 203.753 333.498 200.8C336.455 197.124 314.601 189.375 313.369 193.072Z" fill="#2D3250"/>
<path d="M237.427 169.282L216.575 174.869L218.441 181.83C218.541 182.206 217.911 182.588 217.555 182.415C216.696 181.998 215.679 181.878 214.672 182.147C212.488 182.732 211.181 184.935 211.752 187.066C212.323 189.197 214.556 190.45 216.74 189.865C217.747 189.596 218.567 188.983 219.103 188.192C219.325 187.864 220.062 187.879 220.162 188.256L222.028 195.217L229.161 193.305C229.547 193.202 229.571 192.48 229.24 192.267C228.438 191.752 227.822 190.956 227.559 189.974C226.988 187.843 228.295 185.641 230.479 185.056C232.664 184.471 234.897 185.724 235.468 187.855C235.731 188.837 235.596 189.834 235.159 190.681C234.979 191.031 235.36 191.644 235.746 191.541L242.879 189.629L237.427 169.282Z" fill="#2D3250"/>
<path d="M233.787 175.452C233.609 175.432 233.439 175.408 233.277 175.382C233.239 176.627 233.088 177.626 232.708 177.837C231.869 178.301 230.985 175.904 230.647 174.648C230.744 176.506 230.653 177.789 229.832 178.009C228.389 178.395 227.497 172.499 227.486 172.053C227.562 174.62 227.986 177.209 227.144 177.643C225.936 178.266 225.214 172.961 225.369 170.974C225.524 168.988 227.021 170.083 227.144 169.9C227.298 168.423 229.164 168.461 230.078 168.665C231.19 167.17 232.426 168.236 232.906 168.955C232.852 167.473 235.257 166.829 235.877 167.859C235.84 168.128 235.768 168.689 235.781 168.783C235.879 169.871 235.962 171.433 235.953 172.895C236.792 172.79 237.605 172.706 238.261 172.697C238.948 172.687 239.463 172.761 239.656 172.982L239.319 176.215C239.086 176.17 238.61 176.09 237.895 175.985C237.331 175.901 236.619 175.802 235.76 175.692C235.642 176.354 235.462 176.799 235.198 176.87C234.629 177.023 234.22 176.52 233.886 175.464C233.853 175.46 233.82 175.456 233.787 175.452Z" fill="#F29A77"/>
<path d="M313.741 188.621C313.781 190.851 315.827 197.484 312.403 202.503C318.437 208.172 322.454 207.492 323.709 206.444C326.228 201.38 324.844 197.146 327.533 195.831C329.685 194.78 331.289 191.596 331.822 190.135C333.315 190.905 333.566 182.832 333.374 180.376C333.183 177.919 331.332 179.273 331.18 179.048C330.99 177.221 328.682 177.268 327.552 177.521C326.178 175.672 324.649 176.989 324.057 177.879C324.123 176.047 321.149 175.25 320.382 176.524C319.842 177.423 318.355 180.539 317.436 182.505C316.586 182.494 315.949 182.585 315.71 182.858C314.792 183.907 313.702 186.39 313.741 188.621Z" fill="#F29A77"/>
<path d="M304.742 229.222C298.201 235.048 288.672 238.152 284.613 241.135L296.937 258.388C302.414 256.471 314.519 251.322 319.12 246.064C324.871 239.491 327.746 233.33 333.498 200.8C326.514 203.753 315.833 201.699 313.369 193.072C310.493 202.52 307.316 219.773 304.742 229.222Z" fill="#6C63D4"/>
<path d="M213.922 221.267L224.778 196.884L216.639 193.26C216.198 193.064 216.322 192.161 216.765 191.954C217.835 191.452 218.742 190.569 219.266 189.392C220.403 186.838 219.304 183.868 216.812 182.759C214.32 181.649 211.378 182.82 210.241 185.374C209.717 186.551 209.667 187.816 210.01 188.946C210.152 189.414 209.564 190.11 209.124 189.914L200.985 186.29L197.271 194.631C197.07 195.082 197.745 195.667 198.207 195.515C199.326 195.145 200.57 195.173 201.718 195.684C204.21 196.793 205.309 199.763 204.172 202.317C203.035 204.871 200.092 206.042 197.6 204.933C196.452 204.421 195.6 203.515 195.125 202.437C194.929 201.991 194.043 201.881 193.843 202.332L190.129 210.673L213.922 221.267Z" fill="#938CE0"/>
<path d="M318.466 178.283L344.247 185.191L341.941 193.797C341.816 194.262 342.596 194.734 343.035 194.521C344.099 194.005 345.356 193.856 346.6 194.189C349.3 194.913 350.917 197.636 350.211 200.271C349.505 202.906 346.744 204.455 344.043 203.732C342.799 203.398 341.785 202.641 341.122 201.663C340.848 201.258 339.937 201.277 339.812 201.742L337.506 210.348L328.687 207.985C328.21 207.857 328.179 206.965 328.589 206.702C329.58 206.065 330.342 205.081 330.667 203.867C331.373 201.232 329.757 198.509 327.056 197.786C324.356 197.062 321.594 198.612 320.888 201.247C320.563 202.461 320.731 203.694 321.27 204.741C321.494 205.174 321.021 205.931 320.544 205.803L311.725 203.44L318.466 178.283Z" fill="#938CE0"/>
<path d="M221.35 223.471C217.242 228.811 210.669 231.687 200.81 228.811C199.167 224.703 216.831 216.898 221.35 223.471Z" fill="#2D3250"/>
<path d="M207.177 212.76C212.571 209.587 212.889 211.491 212.254 211.808C211.87 212 209.511 214.168 208.129 216.131C208.831 216.382 210.807 217.786 213.091 221.391C215.376 224.997 217.216 227.336 217.851 228.055C213.536 231.354 213.091 231.276 211.901 231.687C210.632 230.735 204.956 226.404 202.735 224.817C200.514 223.231 201.351 219.805 197.227 217.901C193.102 215.997 191.198 214.981 189.929 211.808C189.171 209.914 193.468 212.942 195.47 214.022C197.492 215.114 199.139 214.135 199.562 214.664C199.879 213.183 200.59 210.412 201.351 208.635C202.303 206.414 203.572 203.623 204.524 204.892C205.126 205.694 204.777 207.342 204.291 208.676C205.386 206.092 206.327 204.575 207.177 204.575C208.129 204.575 207.177 207.366 206.543 208.635C206.035 209.651 204.639 214.558 204.004 216.885C205.273 213.712 207.177 213.077 207.177 212.76Z" fill="#F29A77"/>
<path d="M268.83 220.027C269.647 218.167 271.859 215.284 274.175 218.632C276.473 221.954 274.561 224.397 272.784 225.845L275.413 226.769C275.575 234.973 275.986 239.081 283.38 240.313C276.789 251.287 265.305 252.637 261.197 241.546C263.793 241.956 262.15 236.766 262.15 236.766C257.436 236.766 253.842 229.215 252.73 221.285C253.101 221.21 253.464 221.088 253.776 220.957C256.092 222.817 257.849 221.732 257.924 220.957C262.021 223.375 263.476 218.632 264.144 216.307C266.218 218.167 266.515 218.679 267.94 222.585C267.971 222.197 268.194 221.143 268.83 220.027Z" fill="#F29A77"/>
<path d="M267.945 223.19L270.364 229.756C269.558 232.258 266.77 237.212 262.07 237.014C257.646 236.737 255.509 232.06 254.993 229.756C255.248 230.594 255.923 231.724 257.232 232.867C257.923 231.484 258.614 231.139 261.724 231.139C264.087 231.139 267.052 230.563 268.333 231.484C268.58 231.233 268.799 230.999 268.982 230.793L267.945 223.19Z" fill="#2C2C2C"/>
<path d="M258.269 233.626C259.512 234.574 260.919 235.286 262.15 235.286C263.378 235.286 264.883 234.413 266.217 233.375C265.987 232.745 264.49 233.062 261.725 233.062C258.96 233.062 258.384 232.912 258.269 233.626Z" fill="#F29A77"/>
<path d="M274.175 218.633C271.859 215.285 269.647 218.168 268.831 220.028C268.194 221.143 267.972 222.197 267.94 222.585C266.515 218.679 266.218 218.168 264.145 216.308C263.476 218.633 262.021 223.375 257.924 220.957C257.85 221.732 256.093 222.817 253.777 220.957C253.464 221.088 253.102 221.211 252.73 221.285C251.119 221.609 249.346 221.032 250.794 216.308C247.454 213.285 249.903 205.846 255.693 206.776C258.543 201.568 262.151 200.963 271.503 203.753C273.641 203.753 274.175 205.768 274.175 206.776C279.519 207.241 278.406 215.145 277.738 218.168C277.542 219.057 277.138 219.324 276.658 219.236C276.293 221.038 275.769 223.677 275.413 226.77L272.784 225.845C274.561 224.397 276.473 221.955 274.175 218.633Z" fill="#2C2C2C"/>
<path d="M324.05 298.645C329.801 292.073 313.78 255.101 308.439 250.583C300.759 244.084 288.561 240.708 279.272 239.311C271.288 253.224 265.372 246.164 262.657 240.399C255.857 242.778 248.052 242.367 231.209 246.064C226.178 234.996 226.28 234.562 221.35 223.47C217.242 228.811 210.669 231.686 200.81 228.811C205.876 244.284 213.962 261.768 220.118 265.782C228.231 271.073 234.527 270.912 248.371 265.818C250.461 274.338 252.775 288.511 247.23 299.878C244.765 301.932 244.355 303.575 245.998 305.629C246.135 305.903 246.08 306.615 244.765 307.272C243.122 308.093 240.657 308.093 243.944 310.147C247.23 312.201 275.575 312.201 280.505 317.542L296.107 310.484C296.494 312.348 296.668 314.07 296.526 315.488C305.433 312.024 318.298 305.218 324.05 298.645Z" fill="#6C63D4"/>
<path d="M262.657 240.399C265.372 246.164 271.287 253.224 279.272 239.311C281.134 239.591 283.113 239.951 285.149 240.399C271.677 263.798 261.185 251.014 257.622 241.698C259.424 241.358 261.068 240.955 262.657 240.399Z" fill="#2D3250"/>
<path d="M288.31 292.483C291.049 295.77 297.184 308.915 296.525 315.488C290.897 317.542 284.735 292.483 288.31 292.483Z" fill="#2D3250"/>
<path fill-rule="evenodd" clip-rule="evenodd" d="M278.866 239.25C278.9 239.026 279.109 238.871 279.333 238.905C288.642 240.305 300.935 243.695 308.705 250.269C308.878 250.416 308.899 250.675 308.753 250.848C308.606 251.021 308.347 251.043 308.174 250.896C300.583 244.473 288.48 241.111 279.211 239.717C278.987 239.684 278.832 239.475 278.866 239.25ZM263.045 240.263C263.12 240.477 263.007 240.712 262.793 240.787C259.345 241.993 255.649 242.489 250.754 243.144L250.69 243.153C245.796 243.808 239.665 244.628 231.297 246.465C231.076 246.514 230.857 246.374 230.808 246.152C230.759 245.93 230.899 245.711 231.121 245.663C239.522 243.819 245.68 242.994 250.578 242.339L250.645 242.33C255.562 241.672 259.169 241.184 262.522 240.011C262.736 239.936 262.97 240.049 263.045 240.263ZM256.238 262.752C256.323 262.963 256.221 263.202 256.011 263.287C246.363 267.187 239.738 269.471 234.329 269.991C228.881 270.514 224.681 269.249 219.893 266.126C219.703 266.002 219.649 265.748 219.773 265.557C219.897 265.367 220.152 265.314 220.342 265.438C225.002 268.477 229.018 269.676 234.251 269.173C239.523 268.666 246.043 266.43 255.703 262.526C255.913 262.44 256.153 262.542 256.238 262.752ZM297.758 263.728C297.985 263.728 298.169 263.912 298.169 264.139C298.169 264.243 298.206 264.467 298.306 264.833C298.403 265.187 298.549 265.641 298.742 266.186C299.13 267.276 299.704 268.715 300.446 270.425C301.85 273.66 303.852 277.852 306.322 282.461L308.247 281.44C308.447 281.334 308.696 281.41 308.802 281.61C308.908 281.811 308.832 282.059 308.632 282.166L306.711 283.185L305.985 283.57L288.503 292.846C288.302 292.953 288.054 292.876 287.947 292.676C287.841 292.475 287.917 292.227 288.118 292.12L305.596 282.846C303.117 278.219 301.106 274.008 299.692 270.752C298.945 269.031 298.364 267.574 297.968 266.461C297.771 265.905 297.618 265.43 297.514 265.05C297.413 264.681 297.348 264.363 297.348 264.139C297.348 263.912 297.532 263.728 297.758 263.728Z" fill="#2D3250"/>
<path d="M280.505 296.591C284.449 297.249 288.762 296.318 290.426 295.77C291.774 298.21 293.281 301.482 294.467 304.807C291.045 305.081 283.873 305.465 282.559 304.807C281.463 305.519 279.108 306.155 278.451 303C276.585 303.766 273.889 307.045 272.7 306.451C271.057 305.629 271.878 296.591 280.505 296.591Z" fill="#F29A77"/>
<path d="M271.773 341.226C247.219 347.595 242.19 348.071 234.339 346.68C234.966 345.897 236.508 343.757 237.117 343.038C238.607 341.276 240.03 339.766 241.407 338.456C242.703 336.679 243.844 334.878 244.58 333.254C246.148 331.67 251.02 328.055 259.115 324.725C259.115 326.088 258.481 327.77 258.481 328.434C257.687 333.958 265.575 338.888 271.773 341.226Z" fill="#2C2C2C"/>
<path d="M343.3 315.478C356.038 343.606 320.786 358.991 269.448 341.76C266.424 343.827 264.535 341.286 263.969 339.757C259.999 343.038 256.155 335.223 257.896 329.031C258.102 327.6 257.653 326.232 259.115 324.725C251.019 328.055 246.147 331.67 244.58 333.254C243.843 334.878 242.702 336.678 241.406 338.456C240.029 339.766 238.606 341.276 237.116 343.038C233.602 341.969 232.845 340.478 233.164 339.176C191.514 326.229 186.941 308.874 197.299 297.605C206.667 287.413 246.44 300.457 280.183 313.894C306.945 303.967 335.944 299.234 343.3 315.478Z" fill="#131039"/>
<path fill-rule="evenodd" clip-rule="evenodd" d="M205.76 305.099C205.783 304.988 205.892 304.917 206.003 304.941C218.811 307.656 229.617 310.786 237.22 313.238C241.022 314.464 244.024 315.521 246.075 316.271C247.101 316.646 247.889 316.944 248.422 317.149C248.688 317.251 248.89 317.33 249.025 317.384C249.093 317.41 249.144 317.431 249.178 317.444L249.191 317.45C250.261 317.431 251.89 317.61 253.382 317.975C254.139 318.161 254.868 318.396 255.475 318.682C256.077 318.965 256.583 319.309 256.865 319.725C256.929 319.819 256.904 319.947 256.81 320.011C256.716 320.074 256.589 320.05 256.525 319.956C256.305 319.631 255.879 319.326 255.3 319.053C254.726 318.783 254.026 318.556 253.285 318.374C251.801 318.011 250.185 317.838 249.158 317.861L249.116 317.862L249.077 317.846L249.154 317.656C249.077 317.846 249.077 317.846 249.077 317.846L249.064 317.841L249.026 317.826C248.993 317.813 248.942 317.793 248.875 317.766C248.74 317.713 248.539 317.634 248.274 317.532C247.744 317.328 246.958 317.031 245.934 316.657C243.887 315.908 240.89 314.853 237.094 313.629C229.501 311.181 218.71 308.054 205.918 305.343C205.807 305.319 205.736 305.21 205.76 305.099ZM312.05 308.88C312.07 308.992 311.995 309.098 311.883 309.118C306.309 310.101 277.046 318.032 263.098 321.878C262.988 321.908 262.875 321.844 262.845 321.735C262.815 321.625 262.879 321.512 262.989 321.482C276.921 317.64 306.213 309.701 311.812 308.713C311.924 308.694 312.03 308.768 312.05 308.88Z" fill="#938CE0"/>
<path d="M208.182 318.818C215.178 324.39 223.834 329.176 231.751 332.814C233.986 326.821 238.43 319.935 246.062 316.485C246.731 316.729 247.297 316.941 247.755 317.114C239.753 320.2 235.147 327.184 232.875 333.325C236.243 334.84 239.448 336.138 242.298 337.191C242.062 337.538 241.818 337.886 241.567 338.234C238.795 337.202 235.706 335.947 232.468 334.493C231.981 335.974 231.636 337.376 231.414 338.624C231.016 338.495 230.622 338.367 230.231 338.238C230.471 336.935 230.836 335.492 231.339 333.981C223.343 330.314 214.546 325.462 207.415 319.782C201.014 314.685 195.874 308.855 193.941 302.548C194.19 302.006 194.472 301.472 194.785 300.947C196.269 307.346 201.398 313.415 208.182 318.818Z" fill="#938CE0"/>
<path d="M324.391 339.799C310.149 343.407 290.223 342.72 269.684 339.261C270.366 340.509 270.999 341.58 271.548 342.451L271.497 342.434C270.914 342.247 270.33 342.056 269.744 341.86C269.245 341.019 268.705 340.06 268.141 338.997C264.898 338.43 261.641 337.794 258.39 337.097C258.212 336.668 258.057 336.212 257.926 335.736C261.093 336.425 264.266 337.054 267.427 337.619C265.428 333.669 263.217 328.521 261.518 322.689C261.856 322.447 262.213 322.205 262.591 321.963C264.398 328.282 266.829 333.814 268.95 337.886C289.759 341.472 309.877 342.204 324.088 338.605C331.227 336.796 336.805 333.913 340.254 329.821C342.965 326.605 344.401 322.596 344.202 317.66C344.655 318.875 345.017 320.064 345.288 321.225C344.83 324.853 343.422 327.975 341.196 330.615C337.514 334.983 331.657 337.959 324.391 339.799Z" fill="#938CE0"/>
<path d="M259.115 324.725C251.019 328.055 246.148 331.67 244.58 333.254C247.302 329.55 249.154 323.068 256.695 319.84L263.043 321.68C261.385 322.7 260.091 323.718 259.115 324.725Z" fill="#F29A77"/>
<path d="M294.472 310.969L278.862 315.488V310.353L294.472 308.094V310.969Z" fill="#938CE0"/>
<path d="M278.862 310.353V306.45L294.472 308.094L278.862 310.353Z" fill="#2D3250"/>
<path d="M278.862 271.944L223.815 275.054V311.341L278.862 315.488V310.353V306.451V271.944Z" fill="#938CE0"/>
<path fill-rule="evenodd" clip-rule="evenodd" d="M278.861 271.533C279.088 271.533 279.272 271.717 279.272 271.944V315.489C279.272 315.715 279.088 315.899 278.861 315.899C278.635 315.899 278.451 315.715 278.451 315.489V271.944C278.451 271.717 278.635 271.533 278.861 271.533Z" fill="#2D3250"/>
<path d="M322.966 185.912C323.187 185.887 323.397 185.858 323.598 185.826C323.644 187.364 323.831 188.6 324.301 188.86C325.338 189.434 326.431 186.471 326.848 184.917C326.729 187.215 326.842 188.801 327.857 189.073C329.641 189.551 330.744 182.261 330.758 181.71C330.664 184.883 330.139 188.083 331.18 188.621C332.674 189.391 333.566 182.832 333.374 180.376C333.183 177.919 331.332 179.273 331.18 179.048C330.99 177.221 328.682 177.268 327.552 177.521C326.178 175.672 324.649 176.989 324.056 177.879C324.122 176.047 321.149 175.25 320.382 176.524C320.429 176.857 320.518 177.55 320.501 177.666C320.38 179.012 320.277 180.943 320.289 182.751C319.251 182.621 318.246 182.516 317.436 182.505C316.586 182.494 315.949 182.585 315.71 182.858L316.127 186.855C316.415 186.8 317.004 186.701 317.887 186.57C318.585 186.467 319.466 186.345 320.527 186.209C320.673 187.027 320.896 187.578 321.222 187.665C321.925 187.854 322.431 187.232 322.845 185.926C322.885 185.922 322.926 185.917 322.966 185.912Z" fill="#F29A77"/>
<path d="M252.282 295.359C252.282 298.308 250.626 300.699 248.584 300.699C246.543 300.699 244.887 298.308 244.887 295.359C244.887 292.41 246.543 290.019 248.584 290.019C250.626 290.019 252.282 292.41 252.282 295.359Z" fill="#251E6D"/>
<path d="M404.77 313.864C406.067 319.504 419.201 318.754 420.073 300.786C420.127 299.685 420.932 298.748 422.01 298.515C432.653 296.207 433.299 290.318 433.892 286.321C434.033 285.372 434.633 284.576 435.451 284.077C446.477 277.352 448.667 268.532 445.932 264.136C445.08 262.766 443.435 262.197 441.836 261.985C429.321 260.323 424.109 266.616 422.693 271.113C422.412 272.006 422.108 272.899 421.612 273.693C420.334 275.738 418.053 276.829 415.714 277.417C411.431 278.495 408.33 281.714 408.61 288.673C408.684 290.498 408.089 292.307 406.837 293.638C399.041 301.923 402.147 304.927 404.046 308.703C404.836 310.274 404.377 312.15 404.77 313.864Z" fill="#938CE0"/>
<path d="M356.966 273.15C342.953 266.854 352.077 258.625 350.358 254.601C350.181 254.186 350.089 253.7 350.336 253.322C354.017 247.697 363.471 254.299 367.508 259.059C368.666 260.425 369.101 262.201 369.743 263.872C372.007 269.76 377.762 270.683 379.96 273.69C381.092 275.238 381.496 277.344 381.324 279.253C381.019 282.65 378.351 285.923 383.638 289.889C386.689 292.177 390.958 298.046 388.294 305.732C386.938 309.646 384.174 313.823 380.034 313.702C375.348 313.564 369.387 310.452 369.886 304.465C370.134 301.487 370.626 298.396 369.477 295.637C368.826 294.075 367.728 292.787 366.122 292.255L366.094 292.246C362.245 290.971 356.1 288.936 359.611 279.267C359.89 278.5 360.005 277.677 359.89 276.869C359.654 275.21 358.494 273.836 356.966 273.15Z" fill="#938CE0"/>
<path d="M402.374 245.483C405.406 242.13 409.88 240.564 412.28 242.193C414.719 243.849 413.429 247.583 413.654 250.523C414.219 257.893 419.259 263.284 408.991 270.042C408.381 270.443 408.273 271.307 408.733 271.874C411.751 275.593 414.044 282.202 405.012 286.368C404.244 286.722 404.048 287.774 404.617 288.399C410.481 294.845 405.488 300.084 402.643 303.781C401.038 305.867 401.212 308.701 400.347 311.187C397.832 318.415 389.376 315.954 386.445 310.093C384.762 302.797 388.241 291.236 386.445 289.889C382.287 286.193 385.244 280.923 387.33 277.657C387.855 276.836 388.529 276.119 389.309 275.534C389.959 275.046 390.272 274.228 390.113 273.43L389.896 272.345C389.84 272.069 389.748 271.785 389.637 271.526C382.147 254.156 395.187 257.764 400.121 249.24C400.855 247.972 401.391 246.57 402.374 245.483Z" fill="#938CE0"/>
<path d="M383.689 348.818H407.159L408.333 327.491H404.965H382.516L382.855 333.665L383.689 348.818Z" fill="#B4AFE9"/>
<path fill-rule="evenodd" clip-rule="evenodd" d="M408.57 250.829C408.755 250.96 408.798 251.216 408.667 251.401C405.622 255.693 403.163 261.93 401.234 268.989C399.307 276.04 397.918 283.879 396.997 291.349C396.076 298.819 395.625 305.911 395.572 311.468C395.545 314.248 395.618 316.637 395.781 318.494C395.862 319.423 395.965 320.214 396.088 320.851C396.212 321.494 396.351 321.956 396.494 322.242L395.759 322.609C395.566 322.222 395.409 321.673 395.281 321.006C395.151 320.333 395.045 319.512 394.962 318.566C394.797 316.673 394.724 314.255 394.75 311.461C394.804 305.869 395.258 298.746 396.182 291.248C397.106 283.751 398.501 275.872 400.441 268.772C402.379 261.68 404.869 255.334 407.997 250.926C408.128 250.741 408.385 250.697 408.57 250.829Z" fill="#3A3683"/>
<path fill-rule="evenodd" clip-rule="evenodd" d="M357.573 258.755C373.336 277.333 382.355 297.053 384.609 320.718C384.63 320.944 384.465 321.144 384.239 321.166C384.013 321.187 383.812 321.021 383.791 320.796C381.555 297.317 372.613 277.751 356.947 259.287L357.573 258.755Z" fill="#3A3683"/>
<path d="M380.271 321.578C380.271 321.124 380.639 320.757 381.092 320.757H409.756C410.21 320.757 410.578 321.124 410.578 321.578V326.67C410.578 327.124 410.21 327.492 409.756 327.492H381.092C380.639 327.492 380.271 327.124 380.271 326.67V321.578Z" fill="#CFCCF1"/>
<path d="M382.855 333.665L382.516 327.491H404.965L382.855 333.665Z" fill="#938CE0"/>
<path fill-rule="evenodd" clip-rule="evenodd" d="M424.994 280.334C417.499 287.619 409.566 300.138 405.932 320.828L405.122 320.685C408.784 299.844 416.79 287.163 424.421 279.745C428.235 276.037 431.952 273.647 434.979 272.211C436.493 271.492 437.837 271.011 438.938 270.723C440.028 270.438 440.912 270.334 441.492 270.399C441.717 270.424 441.88 270.627 441.855 270.852C441.83 271.078 441.627 271.24 441.401 271.215C440.971 271.167 440.202 271.242 439.146 271.518C438.101 271.791 436.805 272.254 435.332 272.953C432.386 274.351 428.743 276.689 424.994 280.334Z" fill="#3A3683"/>
<path d="M434.266 156.922H372.996C371.181 156.922 369.709 158.394 369.709 160.209V185.409C369.709 185.93 369.586 186.443 369.349 186.906L362.217 200.851C361.828 201.611 362.713 202.386 363.415 201.901L385.945 186.347C386.083 186.252 386.245 186.201 386.412 186.201H434.266C436.081 186.201 437.552 184.73 437.552 182.915V160.209C437.552 158.394 436.081 156.922 434.266 156.922Z" fill="#B4AFE9"/>
<path d="M381.272 165.96C381.272 165.052 382.008 164.316 382.915 164.316H421.53C422.438 164.316 423.174 165.052 423.174 165.96C423.174 166.867 422.438 167.603 421.53 167.603H382.915C382.008 167.603 381.272 166.867 381.272 165.96Z" fill="white"/>
<path d="M381.272 174.176C381.272 173.268 382.008 172.532 382.915 172.532H397.704C398.612 172.532 399.347 173.268 399.347 174.176C399.347 175.083 398.612 175.819 397.704 175.819H382.915C382.008 175.819 381.272 175.083 381.272 174.176Z" fill="white"/>
<path d="M165.288 324.615C165.236 323.674 165.986 322.882 166.929 322.882H186.501C187.462 322.882 188.218 323.703 188.139 324.66L187.826 328.453L187.551 331.796L186.663 342.567L186.388 345.909L186.175 348.487C186.105 349.339 185.393 349.995 184.537 349.995H168.238C167.366 349.995 166.645 349.313 166.597 348.442L165.288 324.615Z" fill="#A8B3C4"/>
<path d="M192.731 344.929C197.478 340.846 200.482 326.143 187.827 328.453L187.551 331.796C192.601 331.544 192.85 336.255 192.139 339.307C191.708 341.158 190.007 342.4 188.118 342.597C187.631 342.648 187.131 342.649 186.663 342.567L186.388 345.909L188.784 345.909C190.187 345.909 191.668 345.844 192.731 344.929Z" fill="#A8B3C4"/>
<path d="M175.052 317.953C179.981 309.648 171.531 306.229 179.981 299.878C176.007 306.229 182.094 314.533 175.052 317.953Z" fill="white"/>
<path d="M180.803 319.596C185.732 312.046 177.282 308.938 185.732 303.164C181.759 308.938 187.845 316.487 180.803 319.596Z" fill="white"/>
<path d="M168.479 320.418C173.408 314 164.958 311.358 173.408 306.45C169.435 311.358 175.521 317.775 168.479 320.418Z" fill="white"/>
<path d="M249.645 32.899C229.014 59.8172 262.175 85.8066 263.589 94.2949L285.845 94.8806L294.19 79.1381C307.184 51.1003 302.042 23.6476 275.761 21.3029C265.781 20.4125 255.741 24.9462 249.645 32.899Z" fill="#FFC928"/>
<path d="M280.602 113.512C280.602 116.161 278.454 118.308 275.805 118.308C273.156 118.308 271.009 116.161 271.009 113.512C271.009 110.863 273.156 108.716 275.805 108.716C278.454 108.716 280.602 110.863 280.602 113.512Z" fill="#2D3250"/>
<path d="M261.415 97.5241C261.415 94.8752 263.562 92.7278 266.211 92.7278H283.798C286.447 92.7278 288.594 94.8752 288.594 97.5241C288.594 98.7526 288.132 99.8731 287.373 100.722C286.494 101.703 285.218 102.32 283.798 102.32H266.211C265.23 102.32 264.318 102.026 263.559 101.521C262.266 100.662 261.415 99.1924 261.415 97.5241Z" fill="#938CE0"/>
<path fill-rule="evenodd" clip-rule="evenodd" d="M277.759 66.7788C278.831 65.9497 280.039 65.1938 281.274 64.7C282.646 64.1513 284.019 63.9389 285.268 64.2698C286.45 64.5828 287.294 65.4378 287.864 66.5813C288.435 67.7289 288.712 69.1372 288.759 70.4708C288.898 74.3373 287.915 77.9036 286.725 80.6775C285.53 83.4607 284.142 85.4082 283.507 86.0426C283.347 86.203 283.347 86.4631 283.507 86.6235C283.668 86.784 283.928 86.784 284.088 86.6235C284.821 85.8913 286.26 83.8435 287.48 81.0016C288.704 78.1502 289.724 74.4614 289.58 70.4415C289.53 69.028 289.237 67.4965 288.599 66.2151C287.959 64.9296 286.954 63.8665 285.478 63.4756C283.999 63.0837 282.437 63.3502 280.969 63.9371C279.612 64.4795 278.308 65.3062 277.175 66.1918C276.193 65.319 274.961 64.762 273.559 64.7901C271.609 64.829 269.545 65.5263 267.931 66.6245C264.705 64.8876 260.557 65.5867 259.026 69.0867C258.253 70.8538 258.193 73.2656 259.204 76.302C260.216 79.3392 262.31 83.0306 265.893 87.3931C266.037 87.5684 266.296 87.5938 266.471 87.4498C266.646 87.3058 266.672 87.047 266.528 86.8716C262.984 82.5575 260.954 78.9538 259.984 76.0423C259.013 73.13 259.112 70.9396 259.779 69.416C261.01 66.6006 264.338 65.8226 267.201 67.1754C265.695 68.4367 264.697 70.1407 265.008 72.0115C265.206 73.197 265.729 73.9844 266.473 74.4143C267.203 74.8358 268.073 74.8715 268.894 74.7126C271.341 74.2385 272.178 71.3352 270.885 69.3566C270.28 68.4302 269.532 67.677 268.705 67.1008C270.144 66.2051 271.915 65.6447 273.575 65.6115C274.689 65.5892 275.692 66.0102 276.529 66.7184C275.205 67.8429 274.542 69.5529 274.734 71.2745C274.883 72.6148 275.173 74.03 275.708 74.9359C275.977 75.3912 276.346 75.7825 276.852 75.9121C277.371 76.0451 277.911 75.8731 278.449 75.4702C279.295 74.8356 279.693 73.9358 279.805 72.9629C279.917 71.9992 279.753 70.9471 279.467 69.9504C279.133 68.7884 278.548 67.6738 277.759 66.7788ZM267.979 67.604C266.444 68.787 265.559 70.3164 265.819 71.8764C265.986 72.8805 266.401 73.4236 266.884 73.7029C267.383 73.9907 268.031 74.0429 268.737 73.906C270.487 73.567 271.243 71.4066 270.198 69.806C269.589 68.8737 268.822 68.1392 267.979 67.604ZM277.119 67.2954C277.831 68.0938 278.37 69.1074 278.677 70.1773C278.947 71.1181 279.084 72.0532 278.989 72.8682C278.896 73.674 278.58 74.3444 277.956 74.8129C277.531 75.1315 277.245 75.1647 277.056 75.1163C276.854 75.0645 276.634 74.8877 276.416 74.518C275.976 73.7738 275.698 72.5113 275.55 71.1835C275.388 69.7269 275.95 68.2857 277.065 67.3412L276.799 67.0278L277.065 67.3412C277.083 67.3259 277.101 67.3106 277.119 67.2954Z" fill="white"/>
<path d="M284.416 104.736C275.989 104.793 264.298 104.961 263.813 104.719C263.014 107.117 263.174 112.073 270.209 112.713C273.653 112.959 281.779 112.75 286.025 110.199C286.684 109.803 287.077 109.099 287.103 108.331C287.158 106.708 286.996 104.466 286.996 103.334C286.45 104.161 285.516 104.728 284.416 104.736Z" fill="#938CE0"/>
<path d="M266.212 102.32H283.798C285.219 102.32 286.495 101.703 287.373 100.722C287.659 101.658 287.481 102.599 286.996 103.334C286.45 104.161 285.516 104.728 284.417 104.736C275.989 104.793 264.283 104.989 263.814 104.719C263.002 104.252 263.003 103.08 263.56 101.521C264.319 102.026 265.231 102.32 266.212 102.32Z" fill="#BAB8E5"/>
<path d="M242.982 81.3577C243.83 83.062 242.397 85.498 239.783 86.7987C237.168 88.0994 234.361 87.7722 233.514 86.0679C232.666 84.3635 234.098 81.9275 236.712 80.6269C239.327 79.3262 242.134 79.6534 242.982 81.3577Z" fill="#FFC928"/>
<path d="M302.922 86.2212C302.074 87.9255 303.506 90.3616 306.121 91.6622C308.735 92.9629 311.542 92.6357 312.39 90.9314C313.238 89.2271 311.806 86.7911 309.191 85.4904C306.577 84.1897 303.77 84.5169 302.922 86.2212Z" fill="#FFC928"/>
<path d="M308.347 54.7019C308.66 56.5794 311.249 57.7118 314.129 57.2311C317.01 56.7504 319.091 54.8386 318.777 52.961C318.464 51.0834 315.875 49.951 312.994 50.4317C310.114 50.9125 308.033 52.8243 308.347 54.7019Z" fill="#FFC928"/>
<path d="M236.861 53.0079C236.885 54.9113 234.113 56.4898 230.67 56.5335C227.226 56.5772 224.415 55.0696 224.391 53.1662C224.367 51.2627 227.139 49.6843 230.582 49.6406C234.026 49.5969 236.837 51.1045 236.861 53.0079Z" fill="#FFC928"/>
<path d="M245.131 26.9929C244.403 28.7519 241.312 29.1429 238.226 27.8663C235.14 26.5897 233.229 24.1289 233.957 22.3699C234.684 20.611 237.776 20.2199 240.861 21.4965C243.947 22.7731 245.859 25.2339 245.131 26.9929Z" fill="#FFC928"/>
<path d="M268.797 13.4808C266.99 14.0798 264.605 11.7904 263.47 8.36733C262.335 4.94421 262.88 1.68363 264.687 1.08462C266.494 0.485599 268.878 2.77498 270.013 6.1981C271.148 9.62121 270.603 12.8818 268.797 13.4808Z" fill="#FFC928"/>
<path d="M296.932 20.6046C295.291 19.6394 295.655 15.9777 297.745 12.426C299.834 8.8743 302.858 6.77756 304.499 7.74278C306.14 8.70801 305.776 12.3697 303.686 15.9214C301.597 19.4731 298.573 21.5698 296.932 20.6046Z" fill="#FFC928"/>
<path d="M263.336 39.5884C260.602 42.3899 258.508 46.8412 256.5 51.275C255.957 52.4737 254.689 53.1697 253.387 52.9836C252.229 52.8183 251.263 51.9757 251.29 50.8071C251.402 46.0883 254.805 37.5234 260.896 34.1615C261.891 33.6123 263.102 33.9538 263.841 34.8166C265.003 36.1715 264.582 38.3113 263.336 39.5884Z" fill="white"/>
<path d="M275.138 31.0631C275.435 32.6925 273.781 34.3598 271.442 34.7871C269.103 35.2144 266.965 34.24 266.667 32.6106C266.37 30.9813 268.025 29.314 270.364 28.8867C272.703 28.4593 274.84 29.4338 275.138 31.0631Z" fill="white"/>
<path fill-rule="evenodd" clip-rule="evenodd" d="M182.8 100.814C194.255 94.893 198.724 80.776 192.783 69.2831C186.842 57.7902 172.74 53.2734 161.285 59.1947C149.831 65.1159 145.361 79.2329 151.302 90.7258C157.243 102.219 171.346 106.735 182.8 100.814ZM179.214 93.8777C186.85 89.9302 189.83 80.5189 185.869 72.8569C181.909 65.195 172.507 62.1838 164.871 66.1313C157.234 70.0788 154.254 79.4901 158.215 87.1521C162.176 94.814 171.578 97.8252 179.214 93.8777Z" fill="#2D3250"/>
<path d="M214.009 107.08C209.912 98.5206 196.369 92.847 189.43 90.468L183.346 96.552C188.078 101.96 198.894 113.317 204.302 115.48C207.793 116.876 210.721 115.531 212.721 113.735C214.582 112.065 215.089 109.336 214.009 107.08Z" fill="#2D3250"/>
<path fill-rule="evenodd" clip-rule="evenodd" d="M171.178 104.665C184.619 104.665 195.514 93.769 195.514 80.3286C195.514 66.8882 184.619 55.9927 171.178 55.9927C157.738 55.9927 146.842 66.8882 146.842 80.3286C146.842 93.769 157.738 104.665 171.178 104.665ZM171.178 96.5526C180.138 96.5526 187.402 89.2889 187.402 80.3286C187.402 71.3684 180.138 64.1047 171.178 64.1047C162.218 64.1047 154.954 71.3684 154.954 80.3286C154.954 89.2889 162.218 96.5526 171.178 96.5526Z" fill="#938CE0"/>
<path d="M104.648 213.753C103.672 213.753 100.433 215.539 98.535 224.346C98.4535 224.724 98.1205 225.001 97.7336 225.001C97.3845 225.001 97.0738 224.779 97.0352 224.432C96.7479 221.85 98.1734 214.751 102.771 211.878L101.263 210.872C101.034 210.72 100.897 210.463 100.897 210.188V209.755C100.897 209.237 101.371 208.848 101.879 208.95L106.417 209.857C106.831 209.94 107.115 210.324 107.073 210.744L106.631 215.171C106.579 215.693 106.02 216.001 105.55 215.766C105.373 215.677 105.238 215.521 105.175 215.333L104.648 213.753Z" fill="#938CE0"/>
<path d="M147.729 219.77C148.663 219.77 157.67 216.497 161.398 212.5C161.834 212.032 161.771 211.315 161.319 210.863C160.747 210.292 159.796 210.371 159.231 210.948C155.554 214.701 148.239 217.328 147.104 217.895L146.774 215.579C146.668 214.842 145.714 214.614 145.287 215.224L142.611 219.048C142.337 219.438 142.452 219.978 142.861 220.224L146.829 222.604C147.429 222.965 148.177 222.456 148.062 221.764L147.729 219.77Z" fill="#A8B3C4"/>
<path fill-rule="evenodd" clip-rule="evenodd" d="M139.606 206.023C149.96 206.023 158.353 197.629 158.353 187.276C158.353 176.922 149.96 168.529 139.606 168.529C129.252 168.529 120.859 176.922 120.859 187.276C120.859 197.629 129.252 206.023 139.606 206.023ZM139.606 197.274C145.128 197.274 149.604 192.798 149.604 187.276C149.604 181.754 145.128 177.277 139.606 177.277C134.084 177.277 129.608 181.754 129.608 187.276C129.608 192.798 134.084 197.274 139.606 197.274Z" fill="#B4AFE9"/>
<path d="M133.357 163.53C133.357 162.149 134.476 161.03 135.857 161.03H142.106C143.486 161.03 144.605 162.149 144.605 163.53V172.278C144.605 173.659 143.486 174.778 142.106 174.778H135.857C134.476 174.778 133.357 173.659 133.357 172.278V163.53Z" fill="#B4AFE9"/>
<path d="M133.357 202.273C133.357 200.893 134.476 199.773 135.857 199.773H142.106C143.486 199.773 144.605 200.893 144.605 202.273V211.021C144.605 212.402 143.486 213.521 142.106 213.521H135.857C134.476 213.521 133.357 212.402 133.357 211.021V202.273Z" fill="#B4AFE9"/>
<path d="M115.235 192.9C113.854 192.9 112.735 191.781 112.735 190.4V184.151C112.735 182.771 113.854 181.651 115.235 181.651H123.983C125.364 181.651 126.483 182.771 126.483 184.151V190.4C126.483 191.781 125.364 192.9 123.983 192.9H115.235Z" fill="#B4AFE9"/>
<path d="M153.979 192.9C152.598 192.9 151.479 191.781 151.479 190.4V184.151C151.479 182.771 152.598 181.651 153.979 181.651H162.727C164.108 181.651 165.227 182.771 165.227 184.151V190.4C165.227 191.781 164.108 192.9 162.727 192.9H153.979Z" fill="#B4AFE9"/>
<path d="M151.795 166.508C152.771 165.532 154.354 165.532 155.33 166.508L159.749 170.927C160.725 171.903 160.725 173.486 159.749 174.462L153.563 180.648C152.586 181.624 151.004 181.624 150.028 180.648L145.609 176.229C144.633 175.253 144.633 173.671 145.609 172.694L151.795 166.508Z" fill="#B4AFE9"/>
<path d="M124.399 193.904C125.375 192.928 126.958 192.928 127.934 193.904L132.353 198.323C133.329 199.299 133.329 200.882 132.353 201.858L126.167 208.044C125.19 209.02 123.608 209.02 122.632 208.044L118.213 203.625C117.237 202.649 117.237 201.067 118.213 200.09L124.399 193.904Z" fill="#B4AFE9"/>
<path d="M126.166 166.508C125.189 165.532 123.607 165.532 122.631 166.508L118.212 170.927C117.236 171.903 117.236 173.486 118.212 174.462L124.398 180.648C125.374 181.624 126.957 181.624 127.933 180.648L132.352 176.229C133.328 175.253 133.328 173.67 132.352 172.694L126.166 166.508Z" fill="#B4AFE9"/>
<path d="M153.562 193.904C152.586 192.928 151.003 192.928 150.027 193.904L145.608 198.323C144.632 199.299 144.632 200.881 145.608 201.858L151.794 208.044C152.77 209.02 154.353 209.02 155.329 208.044L159.748 203.625C160.724 202.649 160.724 201.066 159.748 200.09L153.562 193.904Z" fill="#B4AFE9"/>
<path fill-rule="evenodd" clip-rule="evenodd" d="M127.116 240.806C133.653 237.914 136.608 230.269 133.716 223.732C130.824 217.194 123.179 214.239 116.641 217.131C110.103 220.024 107.148 227.668 110.041 234.206C112.933 240.744 120.578 243.699 127.116 240.806ZM124.672 235.282C128.159 233.74 129.735 229.662 128.192 226.176C126.65 222.689 122.572 221.113 119.086 222.655C115.599 224.198 114.023 228.275 115.565 231.762C117.108 235.249 121.185 236.825 124.672 235.282Z" fill="#938CE0"/>
<path d="M111.299 215.72C110.913 214.849 111.307 213.829 112.179 213.444L116.125 211.698C116.996 211.312 118.016 211.706 118.401 212.578L120.845 218.102C121.231 218.974 120.837 219.993 119.965 220.379L116.019 222.125C115.148 222.51 114.128 222.116 113.743 221.245L111.299 215.72Z" fill="#938CE0"/>
<path d="M122.122 240.185C121.737 239.313 122.131 238.294 123.003 237.908L126.948 236.162C127.82 235.777 128.839 236.171 129.225 237.042L131.669 242.567C132.055 243.438 131.661 244.457 130.789 244.843L126.843 246.589C125.971 246.975 124.952 246.581 124.567 245.709L122.122 240.185Z" fill="#938CE0"/>
<path d="M108.061 239.328C107.189 239.714 106.17 239.32 105.784 238.448L104.039 234.502C103.653 233.63 104.047 232.611 104.919 232.226L110.443 229.782C111.315 229.396 112.334 229.79 112.72 230.662L114.465 234.607C114.851 235.479 114.457 236.498 113.585 236.884L108.061 239.328Z" fill="#938CE0"/>
<path d="M132.525 228.505C131.654 228.89 130.634 228.496 130.249 227.625L128.503 223.679C128.117 222.807 128.511 221.788 129.383 221.402L134.907 218.958C135.779 218.572 136.798 218.966 137.184 219.838L138.93 223.784C139.315 224.656 138.921 225.675 138.05 226.061L132.525 228.505Z" fill="#938CE0"/>
<path d="M123.773 212.45C124.116 211.561 125.116 211.119 126.005 211.463L130.029 213.018C130.918 213.362 131.36 214.361 131.017 215.25L128.839 220.885C128.495 221.774 127.496 222.216 126.607 221.872L122.582 220.317C121.693 219.973 121.251 218.974 121.595 218.085L123.773 212.45Z" fill="#938CE0"/>
<path d="M114.127 237.402C114.471 236.513 115.47 236.071 116.359 236.415L120.384 237.97C121.273 238.314 121.715 239.314 121.371 240.203L119.193 245.837C118.85 246.726 117.85 247.168 116.961 246.824L112.937 245.269C112.048 244.925 111.606 243.926 111.949 243.037L114.127 237.402Z" fill="#938CE0"/>
<path d="M107.59 219.61C106.7 219.266 105.701 219.709 105.357 220.598L103.802 224.622C103.458 225.511 103.9 226.511 104.789 226.854L110.424 229.032C111.313 229.376 112.312 228.934 112.656 228.045L114.212 224.02C114.555 223.131 114.113 222.132 113.224 221.788L107.59 219.61Z" fill="#938CE0"/>
<path d="M132.542 229.256C131.653 228.912 130.654 229.354 130.31 230.243L128.754 234.268C128.411 235.157 128.853 236.156 129.742 236.5L135.376 238.678C136.265 239.021 137.265 238.579 137.608 237.69L139.164 233.666C139.508 232.777 139.066 231.777 138.176 231.434L132.542 229.256Z" fill="#938CE0"/>
<path fill-rule="evenodd" clip-rule="evenodd" d="M161.528 121.552C162.005 121.859 162.143 122.494 161.836 122.971L150.446 140.686C150.139 141.163 149.504 141.301 149.027 140.994C148.55 140.688 148.411 140.052 148.718 139.575L160.109 121.86C160.415 121.383 161.051 121.245 161.528 121.552ZM166.365 124.662C166.842 124.969 166.981 125.605 166.674 126.082L155.283 143.796C154.977 144.273 154.341 144.411 153.864 144.105C153.387 143.798 153.249 143.163 153.556 142.685L164.946 124.971C165.253 124.494 165.888 124.356 166.365 124.662ZM171.203 127.773C171.68 128.08 171.818 128.715 171.511 129.192L160.121 146.907C159.814 147.384 159.179 147.522 158.702 147.215C158.225 146.908 158.087 146.273 158.393 145.796L169.784 128.081C170.09 127.604 170.726 127.466 171.203 127.773Z" fill="#6C63D4"/>
<path d="M339 102.597C340.45 98.0005 353.281 65.6314 363.151 48.8208C363.369 48.4488 363.834 48.3228 364.219 48.5174L401.113 67.1622C401.464 67.3396 401.644 67.7277 401.534 68.1052C396.784 84.3878 382.101 116.487 378.649 120.365C378.5 120.533 378.297 120.592 378.075 120.558C371.764 119.586 350.045 108.9 339.342 103.352C339.048 103.2 338.9 102.913 339 102.597Z" fill="#2D3250"/>
<path d="M342.715 101.955C342.66 95.926 355.935 68.6902 363.686 53.2667C363.887 52.8668 364.366 52.7109 364.77 52.9042L398.076 68.8591C398.404 69.0164 398.592 69.3608 398.503 69.7138C397.003 75.669 385.128 103.4 377.9 117.753C377.701 118.147 377.231 118.302 376.83 118.117L343.146 102.568C342.897 102.453 342.717 102.23 342.715 101.955Z" fill="white"/>
<path d="M374.189 58.0624L377.478 50.3676C377.671 49.9173 378.212 49.7343 378.638 49.9753L381.829 51.7791C382.014 51.8837 382.248 51.8321 382.371 51.6595L384.015 49.3703C384.647 48.4898 385.806 48.1664 386.802 48.5924C387.608 48.9366 388.149 49.7064 388.202 50.5807L388.46 54.8969C388.473 55.1246 388.603 55.3295 388.803 55.4396L392.648 57.5584C393.018 57.7621 393.173 58.2128 393.007 58.6009L390.081 65.4466C389.947 65.7615 389.632 65.9628 389.292 65.9266C384.761 65.4448 377.497 61.6841 374.382 58.9633C374.125 58.7391 374.055 58.3759 374.189 58.0624Z" fill="#938CE0"/>
<path d="M368.85 67.1406L383.024 74.8358C383.572 75.1333 384.257 74.895 384.502 74.3215C384.727 73.7954 384.493 73.1859 383.974 72.9452L369.345 66.1617C368.969 65.9869 368.542 66.2803 368.567 66.695C368.578 66.8821 368.685 67.0511 368.85 67.1406Z" fill="#938CE0"/>
<path d="M348.643 96.7334C354.106 99.4858 365.633 105.392 372.459 108C373.031 108.218 373.309 108.865 373.069 109.427C372.839 109.966 372.229 110.213 371.702 109.958C367.683 108.016 353.657 100.85 348.299 97.2413C347.629 96.7897 347.921 96.3697 348.643 96.7334Z" fill="#938CE0"/>
<path d="M351.655 89.6872C357.118 92.4397 368.645 98.3462 375.471 100.954C376.042 101.172 376.321 101.819 376.081 102.381C375.851 102.92 375.241 103.167 374.714 102.912C370.694 100.97 356.669 93.8038 351.311 90.1951C350.641 89.7435 350.933 89.3235 351.655 89.6872Z" fill="#938CE0"/>
<path d="M356.104 82.0699C361.38 84.7449 372.18 90.3311 378.913 92.9011C379.484 93.1193 379.764 93.7658 379.523 94.3283C379.293 94.8669 378.682 95.1129 378.155 94.8572C374.241 92.9585 360.94 86.1109 355.751 82.5829C355.083 82.1284 355.383 81.7043 356.104 82.0699Z" fill="#938CE0"/>
<path d="M358.685 76.0303C363.962 78.7054 374.761 84.2915 381.494 86.8616C382.065 87.0797 382.345 87.7263 382.104 88.2888C381.874 88.8274 381.263 89.0733 380.736 88.8176C376.822 86.9189 363.521 80.0713 358.333 76.5434C357.664 76.0888 357.964 75.6648 358.685 76.0303Z" fill="#938CE0"/>
<path d="M361.697 68.9842C366.973 71.6592 377.772 77.2454 384.505 79.8154C385.077 80.0336 385.356 80.6801 385.115 81.2426C384.885 81.7812 384.274 82.0272 383.747 81.7715C379.833 79.8728 366.532 73.0252 361.344 69.4972C360.675 69.0427 360.975 68.6186 361.697 68.9842Z" fill="#938CE0"/>
<path d="M387.187 54.114C386.712 55.2259 385.425 55.742 384.313 55.2668C383.201 54.7916 382.685 53.505 383.161 52.3931C383.636 51.2812 384.922 50.7651 386.034 51.2404C387.146 51.7156 387.662 53.0022 387.187 54.114Z" fill="#2D3250"/>
<path fill-rule="evenodd" clip-rule="evenodd" d="M418.344 123.036C417.472 123.297 416.693 123.85 416.053 124.51C414.913 125.685 413.252 126.604 411.42 126.457C409.223 126.281 407.96 126.554 407.209 126.946C406.499 127.316 406.133 127.851 405.862 128.519C405.059 130.499 403.153 131.387 401.182 131.19C397.214 130.793 395.061 132.931 394.687 133.943C394.49 134.475 393.9 134.747 393.368 134.551C392.836 134.354 392.564 133.763 392.76 133.231C393.511 131.199 396.648 128.672 401.386 129.146C402.61 129.268 403.555 128.742 403.959 127.747C404.347 126.789 404.984 125.79 406.259 125.125C407.493 124.482 409.197 124.218 411.584 124.41C412.62 124.493 413.716 123.97 414.578 123.08L415.316 123.795L414.578 123.08C415.383 122.251 416.452 121.458 417.756 121.068C419.085 120.671 420.596 120.713 422.203 121.467C422.716 121.708 422.937 122.319 422.696 122.833C422.455 123.346 421.843 123.567 421.33 123.326C420.182 122.787 419.191 122.783 418.344 123.036ZM410.822 132.601C409.95 132.861 409.171 133.414 408.531 134.074C407.391 135.25 405.73 136.169 403.898 136.022C401.701 135.845 400.438 136.119 399.687 136.511C398.977 136.881 398.611 137.416 398.34 138.083C397.537 140.063 395.631 140.951 393.66 140.754C389.692 140.357 387.539 142.496 387.165 143.508C386.968 144.04 386.378 144.312 385.846 144.115C385.314 143.918 385.042 143.328 385.238 142.796C385.989 140.763 389.126 138.237 393.864 138.71C395.088 138.833 396.033 138.306 396.437 137.311C396.825 136.354 397.462 135.355 398.737 134.689C399.971 134.046 401.675 133.783 404.062 133.974C405.098 134.057 406.194 133.534 407.056 132.644C407.861 131.815 408.93 131.022 410.234 130.633C411.563 130.236 413.074 130.277 414.681 131.031C415.194 131.272 415.415 131.883 415.174 132.397C414.933 132.91 414.321 133.131 413.808 132.89C412.66 132.352 411.669 132.348 410.822 132.601Z" fill="#6C63D4"/>
<path d="M271.089 180.249H271.589C281.069 180.249 288.753 172.564 288.753 163.084C288.753 153.605 281.069 145.92 271.589 145.92C262.11 145.92 254.424 153.605 254.424 163.084C254.424 168.841 257.259 173.937 261.61 177.052L261.678 177.1L261.726 177.167L270.505 189.463C270.687 189.718 271.089 189.589 271.089 189.276V180.249Z" fill="white" stroke="#E4E2F7"/>
<path d="M265.221 160.417C264.027 159.483 262.302 159.694 261.369 160.889C260.434 162.084 260.648 163.811 261.845 164.743L268.494 169.922C269.774 170.919 271.614 170.717 272.648 169.468L282.704 157.317C283.605 156.228 283.474 154.619 282.408 153.691C281.328 152.751 279.693 152.858 278.745 153.93L271.696 161.901C270.645 163.089 268.85 163.254 267.601 162.277L265.221 160.417Z" fill="#02DCB0"/>
<path d="M153.766 332.759H101.739C101.504 332.759 101.314 332.949 101.314 333.184C101.314 333.419 101.504 333.609 101.739 333.609H103.014V334.945V335.673V343.929H101.8C101.532 343.929 101.314 344.147 101.314 344.415C101.314 344.683 101.532 344.901 101.8 344.901H153.766C157.119 344.901 159.837 342.183 159.837 338.83C159.837 335.477 157.119 332.759 153.766 332.759Z" fill="#FFC600"/>
<path d="M136.889 332.759L138.103 332.759C140.812 336.342 140.83 341.331 138.103 344.901L136.889 344.901C139.672 341.35 139.655 336.323 136.889 332.759Z" fill="#F99D23"/>
<path d="M139.803 332.759L141.017 332.759C143.726 336.342 143.744 341.331 141.017 344.901L139.803 344.901C142.587 341.35 142.569 336.323 139.803 332.759Z" fill="#F99D23"/>
<path d="M152.187 332.759L153.401 332.759C156.11 336.342 156.128 341.331 153.401 344.901L152.187 344.901C154.971 341.35 154.953 336.323 152.187 332.759Z" fill="#F99D23"/>
<path d="M101.739 332.759H128.511C131.864 332.759 134.582 335.477 134.582 338.83C134.582 342.183 131.864 344.901 128.511 344.901H101.8C101.532 344.901 101.314 344.683 101.314 344.415C101.314 344.147 101.532 343.929 101.8 343.929H103.014V335.673V334.945V333.609H101.739C101.504 333.609 101.314 333.419 101.314 333.184C101.314 332.949 101.504 332.759 101.739 332.759Z" fill="#F99D23"/>
<path d="M133.489 338.769C133.489 335.919 131.179 333.609 128.329 333.609H103.014V334.944V335.673V343.929H128.329C131.179 343.929 133.489 341.619 133.489 338.769Z" fill="white"/>
<path d="M103.014 335.673H127.904C128.038 335.673 128.147 335.564 128.147 335.43C128.147 335.296 128.038 335.188 127.904 335.188H103.014V335.673Z" fill="#F4F4F4"/>
<path d="M103.014 337.859H127.904C128.038 337.859 128.147 337.75 128.147 337.616C128.147 337.482 128.038 337.373 127.904 337.373H103.014V337.859Z" fill="#F4F4F4"/>
<path d="M103.014 340.287H127.904C128.038 340.287 128.147 340.178 128.147 340.044C128.147 339.91 128.038 339.801 127.904 339.801H103.014V340.287Z" fill="#F4F4F4"/>
<path d="M103.014 342.472H127.904C128.038 342.472 128.147 342.364 128.147 342.23C128.147 342.096 128.038 341.987 127.904 341.987H103.014V342.472Z" fill="#F4F4F4"/>
<path d="M160.079 344.901H99.1283C98.86 344.901 98.6426 345.118 98.6426 345.386C98.6426 345.655 98.86 345.872 99.1283 345.872H99.2497V349.15H99.0675C98.8328 349.15 98.6426 349.34 98.6426 349.575C98.6426 349.81 98.8328 350 99.0675 350H160.079C161.487 350 162.629 348.859 162.629 347.45C162.629 346.042 161.487 344.901 160.079 344.901Z" fill="#D5E3FF"/>
<path d="M99.0969 344.901H118.798C120.206 344.901 121.348 346.042 121.348 347.45C121.348 348.859 120.206 350 118.798 350H99.0678C98.8331 350 98.6428 349.81 98.6428 349.575C98.6428 349.34 98.8331 349.15 99.0678 349.15H99.2499V345.872H99.1285C98.8603 345.872 98.6428 345.655 98.6428 345.386V345.355C98.6428 345.104 98.8461 344.901 99.0969 344.901Z" fill="#A1BAFC"/>
<path d="M99.2499 345.872H118.616C119.521 345.872 120.255 346.606 120.255 347.511C120.255 348.416 119.521 349.15 118.616 349.15H99.2499V345.872Z" fill="white"/>
<path d="M158.501 346.936C158.501 346.483 158.133 346.115 157.679 346.115H126.297C125.844 346.115 125.476 346.483 125.476 346.936V347.721C125.476 348.175 125.844 348.543 126.297 348.543H157.679C158.133 348.543 158.501 348.175 158.501 347.721V346.936Z" fill="#A1BAFC"/>
</g>
<defs>
<linearGradient id="paint0_linear_1_713" x1="272" y1="39" x2="272" y2="279.5" gradientUnits="userSpaceOnUse">
<stop stop-color="#F3F2FC" stop-opacity="0"/>
<stop offset="1" stop-color="#F3F2FC"/>
</linearGradient>
<clipPath id="clip0_1_713">
<rect width="544" height="350" rx="6" fill="white"/>
</clipPath>
</defs>
</svg>
