<svg width="544" height="350" viewBox="0 0 544 350" fill="none" xmlns="http://www.w3.org/2000/svg">
<g clip-path="url(#clip0_1_874)">
<path d="M40 0V350" stroke="#F3F2FC" stroke-width="2" stroke-linejoin="round"/>
<path d="M80 0V350" stroke="#F3F2FC" stroke-width="2" stroke-linejoin="round"/>
<path d="M120 0V350" stroke="#F3F2FC" stroke-width="2" stroke-linejoin="round"/>
<path d="M160 0V350" stroke="#F3F2FC" stroke-width="2" stroke-linejoin="round"/>
<path d="M200 0V350" stroke="#F3F2FC" stroke-width="2" stroke-linejoin="round"/>
<path d="M240 0V350" stroke="#F3F2FC" stroke-width="2" stroke-linejoin="round"/>
<path d="M280 0V350" stroke="#F3F2FC" stroke-width="2" stroke-linejoin="round"/>
<path d="M320 0V350" stroke="#F3F2FC" stroke-width="2" stroke-linejoin="round"/>
<path d="M360 0V350" stroke="#F3F2FC" stroke-width="2" stroke-linejoin="round"/>
<path d="M400 0V350" stroke="#F3F2FC" stroke-width="2" stroke-linejoin="round"/>
<path d="M440 0V350" stroke="#F3F2FC" stroke-width="2" stroke-linejoin="round"/>
<path d="M480 0V350" stroke="#F3F2FC" stroke-width="2" stroke-linejoin="round"/>
<path d="M520 0V350" stroke="#F3F2FC" stroke-width="2" stroke-linejoin="round"/>
<path d="M0 40H544" stroke="#F3F2FC" stroke-width="2" stroke-linejoin="round"/>
<path d="M0 80H544" stroke="#F3F2FC" stroke-width="2" stroke-linejoin="round"/>
<path d="M0 120H544" stroke="#F3F2FC" stroke-width="2" stroke-linejoin="round"/>
<path d="M0 160H544" stroke="#F3F2FC" stroke-width="2" stroke-linejoin="round"/>
<path d="M0 200H544" stroke="#F3F2FC" stroke-width="2" stroke-linejoin="round"/>
<path d="M0 240H544" stroke="#F3F2FC" stroke-width="2" stroke-linejoin="round"/>
<path d="M0 280H544" stroke="#F3F2FC" stroke-width="2" stroke-linejoin="round"/>
<path d="M0 320H544" stroke="#F3F2FC" stroke-width="2" stroke-linejoin="round"/>
<mask id="mask0_1_874" style="mask-type:alpha" maskUnits="userSpaceOnUse" x="0" y="0" width="544" height="350">
<rect width="544" height="350" fill="white"/>
</mask>
<g mask="url(#mask0_1_874)">
<rect width="544" height="350" fill="url(#paint0_linear_1_874)"/>
</g>
<path d="M416.451 6.94897H346.933C339.766 6.94897 333.956 12.7567 333.956 19.9208V34.7457H429.428V19.9208C429.428 12.7567 423.618 6.94897 416.451 6.94897Z" fill="#6C63D4"/>
<path d="M346.933 105.164H416.451C423.618 105.164 429.428 99.3566 429.428 92.1924V34.7458H333.956V92.1924C333.956 99.3566 339.766 105.164 346.933 105.164Z" fill="#B4AFE9"/>
<path d="M346.933 100.995C339.766 100.995 333.956 95.5309 333.956 88.791V34.7458H429.428V78.7573L406.951 100.995H346.933Z" fill="white"/>
<path d="M429.428 78.7576L406.951 100.995V83.7495C406.951 80.9925 409.186 78.7576 411.944 78.7576H429.428Z" fill="#4236C4"/>
<path d="M344.616 49.3607C344.616 48.4532 345.352 47.7175 346.26 47.7175H350.387C351.295 47.7175 352.031 48.4532 352.031 49.3607V53.4868C352.031 54.3943 351.295 55.13 350.387 55.13H346.26C345.352 55.13 344.616 54.3943 344.616 53.4868V49.3607Z" fill="#B4AFE9"/>
<path d="M355.738 49.3607C355.738 48.4532 356.474 47.7175 357.382 47.7175H361.51C362.418 47.7175 363.154 48.4532 363.154 49.3607V53.4868C363.154 54.3943 362.418 55.13 361.51 55.13H357.382C356.474 55.13 355.738 54.3943 355.738 53.4868V49.3607Z" fill="#B4AFE9"/>
<path d="M366.861 49.3607C366.861 48.4532 367.597 47.7175 368.505 47.7175H372.633C373.541 47.7175 374.277 48.4532 374.277 49.3607V53.4868C374.277 54.3943 373.541 55.13 372.633 55.13H368.505C367.597 55.13 366.861 54.3943 366.861 53.4868V49.3607Z" fill="#B4AFE9"/>
<path d="M377.984 49.3607C377.984 48.4532 378.72 47.7175 379.627 47.7175H383.755C384.663 47.7175 385.399 48.4532 385.399 49.3607V53.4868C385.399 54.3943 384.663 55.13 383.755 55.13H379.627C378.72 55.13 377.984 54.3943 377.984 53.4868V49.3607Z" fill="#B4AFE9"/>
<path d="M377.984 39.1686C377.984 38.2611 378.72 37.5254 379.627 37.5254H383.755C384.663 37.5254 385.399 38.2611 385.399 39.1686V43.2947C385.399 44.2022 384.663 44.9379 383.755 44.9379H379.627C378.72 44.9379 377.984 44.2022 377.984 43.2947V39.1686Z" fill="#B4AFE9"/>
<path d="M389.108 49.3607C389.108 48.4532 389.844 47.7175 390.752 47.7175H394.88C395.788 47.7175 396.524 48.4532 396.524 49.3607V53.4868C396.524 54.3943 395.788 55.13 394.88 55.13H390.752C389.844 55.13 389.108 54.3943 389.108 53.4868V49.3607Z" fill="#B4AFE9"/>
<path d="M389.108 39.1686C389.108 38.2611 389.844 37.5254 390.752 37.5254H394.88C395.788 37.5254 396.524 38.2611 396.524 39.1686V43.2947C396.524 44.2022 395.788 44.9379 394.88 44.9379H390.752C389.844 44.9379 389.108 44.2022 389.108 43.2947V39.1686Z" fill="#B4AFE9"/>
<path d="M400.232 49.3607C400.232 48.4532 400.967 47.7175 401.875 47.7175H406.003C406.911 47.7175 407.647 48.4532 407.647 49.3607V53.4868C407.647 54.3943 406.911 55.13 406.003 55.13H401.875C400.967 55.13 400.232 54.3943 400.232 53.4868V49.3607Z" fill="#B4AFE9"/>
<path d="M400.232 39.1686C400.232 38.2611 400.967 37.5254 401.875 37.5254H406.003C406.911 37.5254 407.647 38.2611 407.647 39.1686V43.2947C407.647 44.2022 406.911 44.9379 406.003 44.9379H401.875C400.967 44.9379 400.232 44.2022 400.232 43.2947V39.1686Z" fill="#B4AFE9"/>
<path d="M411.353 49.3607C411.353 48.4532 412.089 47.7175 412.997 47.7175H417.125C418.032 47.7175 418.768 48.4532 418.768 49.3607V53.4868C418.768 54.3943 418.032 55.13 417.125 55.13H412.997C412.089 55.13 411.353 54.3943 411.353 53.4868V49.3607Z" fill="#6C63D4"/>
<path d="M411.353 39.1686C411.353 38.2611 412.089 37.5254 412.997 37.5254H417.125C418.032 37.5254 418.768 38.2611 418.768 39.1686V43.2947C418.768 44.2022 418.032 44.9379 417.125 44.9379H412.997C412.089 44.9379 411.353 44.2022 411.353 43.2947V39.1686Z" fill="#6C63D4"/>
<path d="M344.616 70.2084C344.616 69.3009 345.352 68.5652 346.26 68.5652H350.387C351.295 68.5652 352.031 69.3009 352.031 70.2084V74.3345C352.031 75.242 351.295 75.9776 350.387 75.9776H346.26C345.352 75.9776 344.616 75.242 344.616 74.3345V70.2084Z" fill="#B4AFE9"/>
<path d="M355.738 70.2084C355.738 69.3009 356.474 68.5652 357.382 68.5652H361.51C362.418 68.5652 363.154 69.3009 363.154 70.2084V74.3345C363.154 75.242 362.418 75.9776 361.51 75.9776H357.382C356.474 75.9776 355.738 75.242 355.738 74.3345V70.2084Z" fill="#B4AFE9"/>
<path d="M366.861 70.2084C366.861 69.3009 367.597 68.5652 368.505 68.5652H372.633C373.541 68.5652 374.277 69.3009 374.277 70.2084V74.3345C374.277 75.242 373.541 75.9776 372.633 75.9776H368.505C367.597 75.9776 366.861 75.242 366.861 74.3345V70.2084Z" fill="#B4AFE9"/>
<path d="M377.984 70.2084C377.984 69.3009 378.72 68.5652 379.627 68.5652H383.755C384.663 68.5652 385.399 69.3009 385.399 70.2084V74.3345C385.399 75.242 384.663 75.9776 383.755 75.9776H379.627C378.72 75.9776 377.984 75.242 377.984 74.3345V70.2084Z" fill="#B4AFE9"/>
<path d="M389.108 70.2084C389.108 69.3009 389.844 68.5652 390.752 68.5652H394.88C395.788 68.5652 396.524 69.3009 396.524 70.2084V74.3345C396.524 75.242 395.788 75.9776 394.88 75.9776H390.752C389.844 75.9776 389.108 75.242 389.108 74.3345V70.2084Z" fill="#B4AFE9"/>
<path d="M400.232 70.2084C400.232 69.3009 400.967 68.5652 401.875 68.5652H406.003C406.911 68.5652 407.647 69.3009 407.647 70.2084V74.3345C407.647 75.242 406.911 75.9776 406.003 75.9776H401.875C400.967 75.9776 400.232 75.242 400.232 74.3345V70.2084Z" fill="#B4AFE9"/>
<path d="M411.353 70.2084C411.353 69.3009 412.089 68.5652 412.997 68.5652H417.125C418.032 68.5652 418.768 69.3009 418.768 70.2084V74.3345C418.768 75.242 418.032 75.9776 417.125 75.9776H412.997C412.089 75.9776 411.353 75.242 411.353 74.3345V70.2084Z" fill="#6C63D4"/>
<path d="M344.616 60.0162C344.616 59.1087 345.352 58.373 346.26 58.373H350.387C351.295 58.373 352.031 59.1087 352.031 60.0162V64.1423C352.031 65.0498 351.295 65.7855 350.387 65.7855H346.26C345.352 65.7855 344.616 65.0498 344.616 64.1423V60.0162Z" fill="#B4AFE9"/>
<path d="M355.738 60.0162C355.738 59.1087 356.474 58.373 357.382 58.373H361.51C362.418 58.373 363.154 59.1087 363.154 60.0162V64.1423C363.154 65.0498 362.418 65.7855 361.51 65.7855H357.382C356.474 65.7855 355.738 65.0498 355.738 64.1423V60.0162Z" fill="#B4AFE9"/>
<path d="M366.861 60.0162C366.861 59.1087 367.597 58.373 368.505 58.373H372.633C373.541 58.373 374.277 59.1087 374.277 60.0162V64.1423C374.277 65.0498 373.541 65.7855 372.633 65.7855H368.505C367.597 65.7855 366.861 65.0498 366.861 64.1423V60.0162Z" fill="#B4AFE9"/>
<path d="M377.984 60.0162C377.984 59.1087 378.72 58.373 379.627 58.373H383.755C384.663 58.373 385.399 59.1087 385.399 60.0162V64.1423C385.399 65.0498 384.663 65.7855 383.755 65.7855H379.627C378.72 65.7855 377.984 65.0498 377.984 64.1423V60.0162Z" fill="#B4AFE9"/>
<path d="M389.108 60.0162C389.108 59.1087 389.844 58.373 390.752 58.373H394.88C395.788 58.373 396.524 59.1087 396.524 60.0162V64.1423C396.524 65.0498 395.788 65.7855 394.88 65.7855H390.752C389.844 65.7855 389.108 65.0498 389.108 64.1423V60.0162Z" fill="#B4AFE9"/>
<path d="M400.232 60.0162C400.232 59.1087 400.967 58.373 401.875 58.373H406.003C406.911 58.373 407.647 59.1087 407.647 60.0162V64.1423C407.647 65.0498 406.911 65.7855 406.003 65.7855H401.875C400.967 65.7855 400.232 65.0498 400.232 64.1423V60.0162Z" fill="#B4AFE9"/>
<path d="M411.353 60.0162C411.353 59.1087 412.089 58.373 412.997 58.373H417.125C418.032 58.373 418.768 59.1087 418.768 60.0162V64.1423C418.768 65.0498 418.032 65.7855 417.125 65.7855H412.997C412.089 65.7855 411.353 65.0498 411.353 64.1423V60.0162Z" fill="#6C63D4"/>
<path d="M344.616 80.8639C344.616 79.9564 345.352 79.2207 346.26 79.2207H350.387C351.295 79.2207 352.031 79.9564 352.031 80.8639V84.99C352.031 85.8975 351.295 86.6332 350.387 86.6332H346.26C345.352 86.6332 344.616 85.8975 344.616 84.99V80.8639Z" fill="#B4AFE9"/>
<path d="M355.738 80.8639C355.738 79.9564 356.474 79.2207 357.382 79.2207H361.51C362.418 79.2207 363.154 79.9564 363.154 80.8639V84.99C363.154 85.8975 362.418 86.6332 361.51 86.6332H357.382C356.474 86.6332 355.738 85.8975 355.738 84.99V80.8639Z" fill="#B4AFE9"/>
<path d="M366.861 80.8639C366.861 79.9564 367.597 79.2207 368.505 79.2207H372.633C373.541 79.2207 374.277 79.9564 374.277 80.8639V84.99C374.277 85.8975 373.541 86.6332 372.633 86.6332H368.505C367.597 86.6332 366.861 85.8975 366.861 84.99V80.8639Z" fill="#B4AFE9"/>
<path d="M377.984 80.8639C377.984 79.9564 378.72 79.2207 379.627 79.2207H383.755C384.663 79.2207 385.399 79.9564 385.399 80.8639V84.99C385.399 85.8975 384.663 86.6332 383.755 86.6332H379.627C378.72 86.6332 377.984 85.8975 377.984 84.99V80.8639Z" fill="#B4AFE9"/>
<path d="M389.108 80.8639C389.108 79.9564 389.844 79.2207 390.752 79.2207H394.88C395.788 79.2207 396.524 79.9564 396.524 80.8639V84.99C396.524 85.8975 395.788 86.6332 394.88 86.6332H390.752C389.844 86.6332 389.108 85.8975 389.108 84.99V80.8639Z" fill="#B4AFE9"/>
<path d="M356.202 14.1299C356.202 15.2813 354.023 16.2147 351.336 16.2147C348.648 16.2147 346.469 15.2813 346.469 14.1299C346.469 12.9785 348.648 12.0452 351.336 12.0452C354.023 12.0452 356.202 12.9785 356.202 14.1299Z" fill="white"/>
<path d="M376.594 14.1299C376.594 15.2813 374.415 16.2147 371.728 16.2147C369.04 16.2147 366.861 15.2813 366.861 14.1299C366.861 12.9785 369.04 12.0452 371.728 12.0452C374.415 12.0452 376.594 12.9785 376.594 14.1299Z" fill="white"/>
<path d="M397.45 14.1299C397.45 15.2813 395.271 16.2147 392.584 16.2147C389.896 16.2147 387.717 15.2813 387.717 14.1299C387.717 12.9785 389.896 12.0452 392.584 12.0452C395.271 12.0452 397.45 12.9785 397.45 14.1299Z" fill="white"/>
<path d="M416.914 14.1299C416.914 15.2813 414.736 16.2147 412.048 16.2147C409.36 16.2147 407.182 15.2813 407.182 14.1299C407.182 12.9785 409.36 12.0452 412.048 12.0452C414.736 12.0452 416.914 12.9785 416.914 14.1299Z" fill="white"/>
<path d="M349.25 2.31639C349.25 1.03709 350.288 0 351.568 0C352.847 0 353.885 1.03708 353.885 2.31639V12.0452C353.885 13.3246 352.847 14.3616 351.568 14.3616C350.288 14.3616 349.25 13.3246 349.25 12.0452V2.31639Z" fill="#3A3683"/>
<path d="M369.179 2.31639C369.179 1.03709 370.216 0 371.496 0C372.776 0 373.813 1.03708 373.813 2.31639V12.0452C373.813 13.3246 372.776 14.3616 371.496 14.3616C370.216 14.3616 369.179 13.3246 369.179 12.0452V2.31639Z" fill="#3A3683"/>
<path d="M390.034 2.31639C390.034 1.03709 391.071 0 392.351 0C393.631 0 394.669 1.03708 394.669 2.31639V12.0452C394.669 13.3246 393.631 14.3616 392.351 14.3616C391.071 14.3616 390.034 13.3246 390.034 12.0452V2.31639Z" fill="#3A3683"/>
<path d="M409.964 2.31639C409.964 1.03709 411.001 0 412.281 0C413.561 0 414.598 1.03708 414.598 2.31639V12.0452C414.598 13.3246 413.561 14.3616 412.281 14.3616C411.001 14.3616 409.964 13.3246 409.964 12.0452V2.31639Z" fill="#3A3683"/>
<path d="M436.315 265.375H345.083V350H436.315V265.375Z" fill="#6C63D4"/>
<path d="M436.315 265.375L447 271.936V350H436.315V265.375Z" fill="#251E6D"/>
<path d="M376.667 142.06C377.735 140.332 380.328 137.785 382.156 141.423C383.97 145.032 381.736 147.185 379.774 148.371L382.249 149.653C381.268 157.799 381.103 161.924 388.257 164.174C380.199 174.123 368.635 173.862 366.109 162.307C368.624 163.075 367.719 157.707 367.719 157.707C363.049 157.051 360.54 149.072 360.542 141.065C360.92 141.043 361.296 140.972 361.624 140.886C363.66 143.05 365.551 142.22 365.733 141.463C369.455 144.428 371.557 139.934 372.543 137.724C374.338 139.855 374.561 140.403 375.429 144.469C375.514 144.089 375.881 143.077 376.667 142.06Z" fill="#F29A77"/>
<path d="M375.35 145.069L376.832 151.908C375.685 154.273 372.233 158.791 367.605 157.941C363.261 157.051 361.795 152.122 361.605 149.769C361.741 150.634 362.252 151.847 363.389 153.161C364.267 151.888 364.999 151.642 368.081 152.075C370.421 152.403 373.438 152.246 374.579 153.337C374.859 153.123 375.108 152.921 375.318 152.742L375.35 145.069Z" fill="#2C2C2C"/>
<path d="M382.156 141.423C380.328 137.785 377.736 140.332 376.668 142.06C375.882 143.077 375.515 144.09 375.43 144.469C374.562 140.403 374.339 139.855 372.543 137.725C371.558 139.934 369.456 144.428 365.733 141.463C365.552 142.22 363.66 143.05 361.625 140.886C361.297 140.972 360.921 141.043 360.543 141.065C358.902 141.161 357.226 140.343 359.318 135.866C356.43 132.409 359.892 125.382 365.498 127.109C369.047 122.349 372.704 122.252 381.581 126.316C383.699 126.614 383.947 128.684 383.807 129.681C389.037 130.885 386.833 138.558 385.751 141.458C385.432 142.312 384.995 142.519 384.532 142.366C383.92 144.1 383.033 146.64 382.25 149.653L379.774 148.372C381.736 147.185 383.97 145.032 382.156 141.423Z" fill="#2C2C2C"/>
<path d="M430.973 216.08C433.027 204.578 422.406 179.93 414.187 170.071C409.88 164.904 398.051 161.689 387.822 160.008C382.891 167.49 371.302 177.889 364.398 159.625C357.269 160.806 349.749 164.513 338.458 185.27C333.816 194.472 345.494 208.275 354.41 200.253C354.296 210.22 353.302 218.545 350.425 221.01C347.549 223.474 350.425 225.734 349.603 226.35C345.001 229.801 345.083 231.69 348.37 232.101C356.041 235.114 372.269 239.003 393.639 235.388C396.105 234.97 406.79 237.876 409.256 237.031C412.48 235.926 410.077 234.155 410.077 232.512C411.102 229.792 411.776 226.506 412.206 223.346C423.737 225.132 430.063 221.17 430.973 216.08Z" fill="#6C63D4"/>
<path d="M403.027 221.009C412.89 214.34 411.657 199.551 404.671 199.551C400.121 199.551 398.12 221.667 403.027 221.009Z" fill="#2C2C2C"/>
<path d="M364.398 159.625C371.302 177.889 382.891 167.49 387.822 160.008C386.157 159.734 383.353 159.199 381.761 158.992C373.954 170.505 369.329 163.498 367.876 159.007C366.954 159.136 365.157 159.499 364.398 159.625Z" fill="#2D3250"/>
<path d="M408.498 201.599C404.432 201.276 400.271 202.113 394.418 202.113C389.899 202.113 386.776 207.453 385.79 209.096C385.05 210.328 386.612 211.561 388.255 209.918C389.351 208.04 391.214 205.728 393.185 205.399C390.72 207.453 391.542 215.669 399.757 211.561C403.992 209.444 403.433 209.753 410.065 209.369C410.423 206.29 409.837 203.429 408.498 201.599Z" fill="#F29A77"/>
<path d="M314.484 237.891L312.383 224.131L316.904 222.749L321.394 234.945L314.484 237.891Z" fill="#F29A77"/>
<path fill-rule="evenodd" clip-rule="evenodd" d="M412.43 199.141H419.877C420.104 199.141 420.288 199.324 420.288 199.551C420.288 199.778 420.104 199.962 419.877 199.962H405.082C404.855 199.962 404.671 199.778 404.671 199.551C404.671 199.324 404.855 199.141 405.082 199.141H411.601L410.275 188.92C410.246 188.695 410.405 188.489 410.63 188.46C410.855 188.431 411.061 188.589 411.091 188.814L412.43 199.141ZM403.028 221.009C402.954 221.224 403.068 221.458 403.283 221.53C406.358 222.564 409.186 223.268 411.767 223.692C411.991 223.729 412.2 223.575 412.235 223.35C412.27 223.126 412.116 222.917 411.892 222.88C409.364 222.464 406.582 221.772 403.55 220.753C403.335 220.681 403.101 220.795 403.028 221.009Z" fill="#2C2C2C"/>
<path d="M312.383 224.13C311.125 220.921 309.722 222.373 309.179 223.501L281.795 232.534L297.412 239.517L309.178 242.804L314.483 237.89L312.383 224.13Z" fill="#2C2C2C"/>
<path d="M320.117 334.869L308.35 327.426L310.272 323.109L322.426 327.722L320.117 334.869Z" fill="#F29A77"/>
<path d="M383.302 182.394L324.124 179.108L329.056 218.545L388.233 221.831L406.726 222.858V218.545L387.69 217.487L383.302 182.394Z" fill="#938CE0"/>
<path d="M287.182 333.061L316.317 346.092L316.696 346.261L317.456 343.729L320.116 334.869L308.349 327.426C305.1 326.269 305.277 328.28 305.772 329.43C303.061 329.346 297.13 331.073 291.504 332.179C289.858 332.502 288.364 332.809 287.182 333.061Z" fill="#2C2C2C"/>
<path d="M368.889 209.529C382.368 209.858 402.998 243.215 410.395 236.231C410.395 264.165 408.751 267.863 387.381 267.863C383.436 267.933 358.276 266.249 346.189 265.398C344.517 278.42 342.097 281.617 341.354 283.473C340.532 285.527 333.135 309.764 333.546 314.283C333.875 317.898 332.313 319.075 331.491 319.212C332.478 326.114 328.889 330.852 326.971 332.358C320.396 331.372 310.259 327.018 306.012 324.964C308.341 307.162 313.902 268.191 317.519 254.717C318.777 250.031 320.369 246.732 322.027 244.452C321.135 244.389 320.44 244.223 319.985 244.036C316.368 236.478 316.012 226.646 316.286 222.675C346.697 214.459 352.039 209.118 368.889 209.529Z" fill="#131039"/>
<path fill-rule="evenodd" clip-rule="evenodd" d="M336.511 240.941C338.573 240.506 340.887 239.968 343.187 239.434C346.012 238.777 348.815 238.125 351.101 237.676L351.022 237.273C348.739 237.722 345.915 238.378 343.078 239.037C340.759 239.576 338.431 240.117 336.38 240.549L336.334 240.558L336.297 240.587C334.683 241.829 333.181 242.29 332.043 242.364C331.473 242.401 330.997 242.34 330.645 242.234C330.281 242.125 330.085 241.979 330.023 241.876L329.914 241.696L329.737 241.809C327.603 243.168 326.251 243.812 325.154 244.101C324.062 244.389 323.208 244.329 322.041 244.247L322.012 244.657L322.035 244.658C323.187 244.74 324.1 244.804 325.258 244.499C326.391 244.2 327.747 243.552 329.806 242.252C329.974 242.41 330.229 242.538 330.527 242.628C330.932 242.75 331.458 242.813 332.069 242.774C333.285 242.695 334.851 242.208 336.511 240.941Z" fill="#8A86D3"/>
<path fill-rule="evenodd" clip-rule="evenodd" d="M347.102 258.195C346.864 260.75 346.523 264.413 346.393 265.424L345.986 265.372C346.115 264.368 346.454 260.727 346.692 258.173C346.783 257.197 346.859 256.38 346.903 255.929L347.312 255.969C347.268 256.415 347.193 257.225 347.102 258.195Z" fill="#8A86D3"/>
<path fill-rule="evenodd" clip-rule="evenodd" d="M351.344 237.629C356.204 236.676 360.33 235.929 362.751 235.613L362.698 235.206C360.222 235.529 355.986 236.298 351.023 237.273L350.781 237.321L350.871 237.55C352.943 242.849 357.216 249.521 362.819 255.308C368.422 261.093 375.374 266.013 382.813 267.78L382.908 267.381C375.573 265.638 368.687 260.776 363.114 255.022C357.623 249.352 353.426 242.834 351.344 237.629Z" fill="#8A86D3"/>
<path d="M328.834 227.655C329.068 228.625 329.285 229.637 329.477 230.679C332.867 229.767 336.402 228.84 339.813 227.983C344.071 226.912 348.142 225.947 351.505 225.249C354.844 224.556 357.545 224.113 359.025 224.113C361.264 224.113 362.948 224.514 364.472 225.426C365.975 226.325 367.277 227.692 368.797 229.521C369.413 230.262 370.071 231.086 370.799 231.998L370.799 231.998C373.678 235.605 377.66 240.595 384.524 247.293C388.052 250.735 391.016 252.12 393.458 252.231C395.874 252.34 397.919 251.205 399.638 249.278C401.365 247.341 402.724 244.643 403.73 241.755C404.339 240.004 404.814 238.199 405.16 236.476C405.561 236.659 405.95 236.81 406.327 236.925C405.974 238.637 405.499 240.423 404.894 242.16C403.861 245.128 402.435 247.994 400.558 250.098C398.673 252.211 396.296 253.593 393.402 253.462C390.533 253.332 387.297 251.72 383.663 248.175C376.738 241.417 372.702 236.359 369.823 232.752C369.101 231.848 368.453 231.035 367.849 230.309C366.339 228.492 365.149 227.267 363.839 226.484C362.552 225.714 361.102 225.345 359.025 225.345C357.692 225.345 355.116 225.758 351.755 226.455C348.417 227.148 344.364 228.109 340.113 229.178C336.672 230.043 333.104 230.979 329.686 231.899C330.215 235.203 330.466 238.764 330.191 242.272C330.025 242.184 329.909 242.084 329.847 241.982C329.525 242.188 329.219 242.377 328.93 242.552C329.241 239.085 329.01 235.533 328.489 232.222C324.272 233.365 320.338 234.469 317.224 235.369C317.143 234.961 317.068 234.555 316.999 234.151C320.129 233.248 324.067 232.143 328.282 231.002C328.091 229.949 327.872 228.926 327.635 227.944C326.87 224.776 325.918 222.068 325.081 220.184C325.484 220.065 325.88 219.947 326.272 219.829C327.137 221.803 328.079 224.531 328.834 227.655Z" fill="#938CE0"/>
<path d="M321.677 314.268C324.632 315.32 328.33 316.879 331.602 318.437C331.85 318.555 332.094 318.673 332.336 318.79C332.035 319.043 331.731 319.172 331.491 319.212C331.519 319.405 331.542 319.596 331.563 319.785C331.401 319.707 331.237 319.629 331.072 319.55C327.885 318.033 324.298 316.518 321.418 315.485C320.685 318.968 319.997 322.645 319.368 326.011C319.097 327.456 318.838 328.843 318.59 330.134C318.198 329.999 317.805 329.862 317.414 329.722C317.649 328.494 317.895 327.177 318.152 325.804C318.792 322.382 319.496 318.621 320.244 315.076C315.892 313.609 311.989 312.76 307.739 312.235C307.795 311.832 307.852 311.425 307.91 311.015C312.176 311.543 316.12 312.394 320.503 313.863C325.958 288.431 333.694 256.756 337.809 240.451C338.25 240.354 338.7 240.254 339.156 240.151C335.076 256.291 327.197 288.516 321.677 314.268Z" fill="#938CE0"/>
<path fill-rule="evenodd" clip-rule="evenodd" d="M99.3783 241.287C98.023 241.33 96.9588 242.467 97.0012 243.828C98.2012 282.251 129.604 313.028 168.167 313.028C191.313 313.028 214.787 301.811 227.527 281.993L229.388 291.228C229.657 292.563 230.953 293.425 232.282 293.155C233.611 292.886 234.47 291.585 234.201 290.251L231.328 275.995C231.128 275.003 230.573 274.179 229.837 273.626C228.708 272.779 227.116 272.549 225.707 273.272L211.663 280.468C210.456 281.087 209.976 282.572 210.593 283.784C211.209 284.996 212.688 285.478 213.896 284.859L222.735 280.329C210.863 297.937 189.485 308.098 168.167 308.098C132.264 308.098 103.026 279.444 101.909 243.673C101.867 242.313 100.734 241.244 99.3783 241.287Z" fill="#4236C4"/>
<path fill-rule="evenodd" clip-rule="evenodd" d="M238.456 234.203C239.811 234.161 240.876 233.023 240.833 231.663C239.633 193.24 208.231 162.463 169.667 162.463C146.522 162.463 123.047 173.68 110.307 193.498L108.446 184.262C108.177 182.928 106.882 182.065 105.553 182.335C104.224 182.605 103.364 183.905 103.633 185.24L106.506 199.496C106.706 200.488 107.261 201.311 107.998 201.864C109.127 202.712 110.718 202.941 112.128 202.219L126.171 195.022C127.379 194.403 127.858 192.919 127.242 191.706C126.625 190.494 125.146 190.013 123.939 190.632L115.099 195.161C126.971 177.553 148.35 167.392 169.667 167.392C205.57 167.392 234.808 196.047 235.925 231.817C235.968 233.178 237.101 234.246 238.456 234.203Z" fill="#4236C4"/>
<path fill-rule="evenodd" clip-rule="evenodd" d="M169.63 271.585C151.858 271.585 137.45 257.122 137.45 239.28C137.45 221.438 151.858 206.975 169.63 206.975C187.402 206.975 201.809 221.438 201.809 239.28C201.809 257.122 187.402 271.585 169.63 271.585ZM169.628 262.775C156.703 262.775 146.225 252.256 146.225 239.28C146.225 226.305 156.703 215.786 169.628 215.786C182.553 215.786 193.031 226.305 193.031 239.28C193.031 252.256 182.553 262.775 169.628 262.775Z" fill="#6C63D4"/>
<path fill-rule="evenodd" clip-rule="evenodd" d="M169.625 281.863C146.198 281.863 127.207 262.797 127.207 239.279C127.207 215.761 146.198 196.695 169.625 196.695C193.052 196.695 212.043 215.761 212.043 239.279C212.043 262.797 193.052 281.863 169.625 281.863ZM169.625 274.521C150.237 274.521 134.52 258.743 134.52 239.279C134.52 219.816 150.237 204.037 169.625 204.037C189.012 204.037 204.729 219.816 204.729 239.279C204.729 258.743 189.012 274.521 169.625 274.521Z" fill="#6C63D4"/>
<path d="M122.682 210.048L138.177 213.583L129.4 231.938L116.087 222.09C115.755 221.844 115.657 221.387 115.86 221.026L121.788 210.446C121.965 210.129 122.329 209.967 122.682 210.048Z" fill="#6C63D4"/>
<path d="M219.493 214.453L203.999 217.988L210.783 236.85L226.046 226.488C226.399 226.248 226.51 225.777 226.301 225.405L220.388 214.851C220.21 214.534 219.846 214.372 219.493 214.453Z" fill="#6C63D4"/>
<path d="M187.75 187.748L177.127 199.61L194.844 209.519L200.058 193.764C200.188 193.371 200.006 192.941 199.632 192.763L188.71 187.555C188.383 187.399 187.993 187.478 187.75 187.748Z" fill="#6C63D4"/>
<path d="M143.733 190.746L145.509 206.598L164.655 199.884L156.388 185.506C156.181 185.147 155.74 184.999 155.359 185.161L144.227 189.898C143.893 190.04 143.692 190.385 143.733 190.746Z" fill="#6C63D4"/>
<path d="M114.526 250.781L128.702 243.574L135.984 262.774L117.12 264.26C116.702 264.293 116.326 264.003 116.251 263.588L114.091 251.661C114.026 251.303 114.203 250.945 114.526 250.781Z" fill="#6C63D4"/>
<path d="M221.184 256.803L209.79 245.685L197.142 261.836L214.709 268.895C215.098 269.052 215.543 268.887 215.738 268.513L221.339 257.773C221.507 257.451 221.444 257.056 221.184 256.803Z" fill="#6C63D4"/>
<path d="M138.841 285.82L142.801 270.372L161.977 277.547L150.642 292.757C150.391 293.095 149.926 293.187 149.566 292.97L139.213 286.729C138.902 286.542 138.751 286.172 138.841 285.82Z" fill="#6C63D4"/>
<path d="M193.739 289.048L193.857 273.097L173.489 275.098L180.561 292.717C180.718 293.108 181.144 293.316 181.547 293.199L193.148 289.831C193.496 289.73 193.736 289.412 193.739 289.048Z" fill="#6C63D4"/>
<path d="M187.066 142.761C187.066 173.498 211.993 198.415 242.741 198.415C273.49 198.415 298.416 173.498 298.416 142.761C298.416 112.024 273.49 87.1072 242.741 87.1072C211.993 87.1072 187.066 112.024 187.066 142.761Z" fill="#6C63D4"/>
<path d="M180.946 104.515L201.466 109.177L189.947 133.166L172.294 120.163C171.959 119.917 171.861 119.461 172.065 119.099L180.047 104.914C180.225 104.597 180.591 104.435 180.946 104.515Z" fill="#6C63D4"/>
<path d="M308.379 110.272L287.859 114.934L296.764 139.586L316.989 125.913C317.344 125.674 317.455 125.203 317.245 124.83L309.278 110.671C309.099 110.354 308.734 110.192 308.379 110.272Z" fill="#6C63D4"/>
<path d="M266.658 75.2739L252.588 90.9163L275.842 103.866L282.756 83.0648C282.887 82.6711 282.704 82.2416 282.329 82.0636L267.622 75.081C267.293 74.925 266.901 75.0035 266.658 75.2739Z" fill="#6C63D4"/>
<path d="M208.737 79.1446L211.089 100.048L236.22 91.2735L225.256 72.2902C225.049 71.9309 224.606 71.7826 224.224 71.9445L209.233 78.2963C208.898 78.4382 208.697 78.7833 208.737 79.1446Z" fill="#6C63D4"/>
<path d="M170.255 157.877L189.029 148.374L198.587 173.467L173.601 175.427C173.18 175.46 172.803 175.169 172.728 174.755L169.818 158.757C169.753 158.399 169.931 158.041 170.255 157.877Z" fill="#6C63D4"/>
<path d="M310.551 165.794L295.461 151.132L278.86 172.24L302.128 181.551C302.519 181.707 302.966 181.542 303.162 181.169L310.706 166.764C310.875 166.442 310.811 166.047 310.551 165.794Z" fill="#6C63D4"/>
<path d="M202.292 203.767L207.536 183.395L232.705 192.773L217.692 212.834C217.439 213.171 216.972 213.263 216.611 213.046L202.665 204.676C202.353 204.489 202.202 204.119 202.292 203.767Z" fill="#6C63D4"/>
<path d="M274.392 207.993L274.548 186.959L247.815 189.574L257.182 212.812C257.339 213.202 257.768 213.411 258.173 213.294L273.798 208.777C274.148 208.676 274.389 208.357 274.392 207.993Z" fill="#6C63D4"/>
<path d="M197.571 143.424C197.571 167.963 217.471 187.855 242.019 187.855C266.567 187.855 286.467 167.963 286.467 143.424C286.467 118.886 266.567 98.9934 242.019 98.9934C217.471 98.9934 197.571 118.886 197.571 143.424Z" fill="white"/>
<path d="M242.02 146.201V104.547C224.696 104.547 210.221 116.741 206.715 133.011L242.02 146.201Z" fill="#CFCCF1"/>
<path fill-rule="evenodd" clip-rule="evenodd" d="M265.846 105.583C265.651 105.467 265.399 105.53 265.282 105.724L259.031 116.138C258.914 116.332 258.978 116.585 259.172 116.701C259.367 116.818 259.619 116.755 259.736 116.56L265.987 106.147C266.103 105.952 266.04 105.7 265.846 105.583ZM281.567 123.314C281.456 123.116 281.205 123.046 281.007 123.158L270.294 129.181C270.096 129.293 270.026 129.543 270.137 129.741C270.249 129.939 270.499 130.009 270.697 129.897L281.41 123.874C281.608 123.762 281.678 123.512 281.567 123.314ZM210.485 146.201C210.485 145.974 210.301 145.79 210.074 145.79H197.935C197.708 145.79 197.524 145.974 197.524 146.201C197.524 146.428 197.708 146.612 197.935 146.612H210.074C210.301 146.612 210.485 146.428 210.485 146.201ZM286.186 146.895C286.186 146.668 286.002 146.484 285.775 146.484H274.663C274.436 146.484 274.252 146.668 274.252 146.895C274.252 147.122 274.436 147.306 274.663 147.306H285.775C286.002 147.306 286.186 147.122 286.186 146.895ZM267.383 162.624C267.251 162.808 267.294 163.065 267.479 163.197L277.202 170.139C277.387 170.271 277.643 170.228 277.775 170.044C277.907 169.859 277.864 169.603 277.68 169.471L267.957 162.528C267.772 162.396 267.515 162.439 267.383 162.624ZM216.659 162.624C216.527 162.439 216.27 162.396 216.086 162.528L206.363 169.471C206.178 169.603 206.135 169.859 206.267 170.044C206.399 170.228 206.656 170.271 206.84 170.139L216.563 163.197C216.748 163.065 216.791 162.808 216.659 162.624ZM230.367 174.283C230.157 174.199 229.917 174.301 229.833 174.512L225.802 184.585C225.718 184.795 225.821 185.034 226.031 185.119C226.242 185.203 226.481 185.1 226.566 184.89L230.596 174.817C230.68 174.607 230.578 174.367 230.367 174.283ZM248.895 174.954C248.671 174.994 248.522 175.207 248.561 175.43L250.569 186.8C250.608 187.023 250.821 187.172 251.045 187.133C251.268 187.093 251.417 186.88 251.378 186.657L249.371 175.287C249.331 175.064 249.118 174.915 248.895 174.954Z" fill="#3A3683"/>
<path fill-rule="evenodd" clip-rule="evenodd" d="M242.717 107.48C242.037 107.48 241.485 108.032 241.485 108.713V145.599L227.18 140.189C226.543 139.948 225.832 140.269 225.591 140.905C225.35 141.542 225.671 142.253 226.308 142.494L241.485 148.235V155.226C241.485 155.907 242.037 156.459 242.717 156.459C243.398 156.459 243.95 155.907 243.95 155.226V149.167L252.004 152.213C252.641 152.454 253.353 152.134 253.593 151.497C253.834 150.86 253.514 150.149 252.877 149.908L243.95 146.532V108.713C243.95 108.032 243.398 107.48 242.717 107.48Z" fill="#251E6D"/>
<path fill-rule="evenodd" clip-rule="evenodd" d="M219.271 37.0566C220.091 36.7822 220.922 36.5062 221.764 36.2285L221.507 35.4482C220.663 35.7263 219.831 36.0027 219.01 36.2775L219.271 37.0566ZM209.702 40.3697C211.249 39.815 212.844 39.2529 214.49 38.6835L214.221 37.9071C212.572 38.4775 210.974 39.0406 209.425 39.5964L209.702 40.3697ZM200.22 43.9155C201.754 43.3157 203.35 42.7062 205.008 42.0869L204.721 41.3172C203.058 41.9379 201.459 42.549 199.92 43.1503L200.22 43.9155ZM190.946 47.7392C192.411 47.0988 193.952 46.4453 195.572 45.7787L195.259 45.019C193.634 45.6877 192.087 46.3435 190.617 46.9865L190.946 47.7392ZM169.891 48.5766C171.533 48.62 173.126 48.7313 174.661 48.9012L174.752 48.0846C173.193 47.9122 171.577 47.7993 169.913 47.7553L169.891 48.5766ZM160.314 49.0964C161.936 48.8782 163.531 48.73 165.093 48.6448L165.049 47.8244C163.465 47.9108 161.848 48.061 160.204 48.2822L160.314 49.0964ZM183.019 50.5185C181.873 50.1916 180.667 49.8967 179.407 49.6408L179.57 48.8356C181.17 49.1605 182.686 49.5475 184.106 49.9835C184.704 49.6921 185.319 49.3976 185.952 49.1001L186.302 49.8435C184.677 50.608 183.167 51.3518 181.764 52.0747L181.388 51.3445C181.916 51.072 182.46 50.7967 183.019 50.5185ZM150.956 51.1065C152.518 50.6424 154.067 50.2484 155.6 49.9192L155.427 49.1159C153.874 49.4495 152.304 49.8487 150.721 50.319L150.956 51.1065ZM188.505 52.5182C190.115 53.256 191.499 54.0534 192.628 54.8712L193.11 54.2061C191.931 53.351 190.497 52.5275 188.848 51.7713L188.505 52.5182ZM141.995 54.5278C143.471 53.8333 144.945 53.208 146.412 52.6476L146.118 51.8801C144.632 52.4478 143.14 53.0811 141.645 53.7844L141.995 54.5278ZM173.139 57.1423C174.36 56.2973 175.758 55.4119 177.348 54.4864L176.935 53.7763C175.328 54.7109 173.912 55.6079 172.671 56.4669L173.139 57.1423ZM133.629 59.2294C134.993 58.3308 136.36 57.4984 137.728 56.7289L137.324 56.0129C135.94 56.7919 134.556 57.6343 133.177 58.5436L133.629 59.2294ZM195.729 58.2221C196.073 58.9676 196.14 59.6528 195.948 60.2669C195.708 61.0371 195.358 61.7619 194.913 62.4419L195.601 62.8918C196.084 62.1527 196.468 61.3593 196.733 60.5116C196.998 59.6613 196.885 58.7638 196.475 57.8776L195.729 58.2221ZM166.368 64.1264C166.763 63.0336 167.654 61.7503 169.199 60.2808L168.633 59.6856C167.039 61.2009 166.05 62.588 165.595 63.8473L166.368 64.1264ZM125.994 65.0313C127.227 63.9617 128.468 62.9539 129.715 62.0053L129.217 61.3515C127.956 62.3108 126.701 63.3297 125.455 64.4108L125.994 65.0313ZM191.428 65.8464C190.119 66.7306 188.613 67.4748 186.999 68.078L187.286 68.8476C188.95 68.2262 190.515 67.4542 191.888 66.5273L191.428 65.8464ZM119.147 71.7346C120.245 70.5278 121.354 69.3777 122.471 68.2822L121.896 67.6955C120.767 68.8021 119.647 69.9635 118.539 71.1818L119.147 71.7346ZM172.251 69.6995C170.346 69.3887 168.766 68.8392 167.688 68.0804L167.215 68.7522C168.434 69.6104 170.15 70.1892 172.118 70.5104L172.251 69.6995ZM182.186 69.4117C180.518 69.7315 178.833 69.9193 177.213 69.9763L177.242 70.7974C178.905 70.7388 180.631 70.5463 182.341 70.2186L182.186 69.4117ZM113.076 79.1656C114.044 77.8486 115.026 76.5833 116.017 75.3679L115.381 74.8486C114.38 76.0747 113.39 77.3509 112.414 78.6789L113.076 79.1656ZM107.731 87.1867C108.579 85.7831 109.44 84.4263 110.313 83.115L109.628 82.6599C108.749 83.9813 107.881 85.3482 107.027 86.762L107.731 87.1867ZM104.184 93.4826C104.567 92.7531 104.954 92.0344 105.343 91.3266L104.623 90.9305C104.231 91.6431 103.842 92.3664 103.456 93.1007L104.184 93.4826Z" fill="#6C63D4"/>
<path d="M221.734 26.8846L265.447 28.7053L222.644 34.1673L223.215 37.8722L224.288 44.8471C224.378 45.4331 224.996 45.778 225.542 45.5473L265.447 28.7053L221.312 12.3817C220.673 12.1453 220.01 12.6687 220.092 13.345L221.734 26.8846Z" fill="#B4AFE9"/>
<path d="M221.734 26.8845L265.447 28.7052L222.645 34.1672L215.893 38.7971C215.577 38.4816 215.51 37.9949 215.728 37.6057L221.734 26.8845Z" fill="#938CE0"/>
<path d="M216.793 39.0695C216.466 39.1349 216.128 39.0326 215.892 38.7971L222.644 34.1672L223.215 37.8721L216.793 39.0695Z" fill="#6C63D4"/>
</g>
<defs>
<linearGradient id="paint0_linear_1_874" x1="272" y1="39" x2="272" y2="279.5" gradientUnits="userSpaceOnUse">
<stop stop-color="#F3F2FC" stop-opacity="0"/>
<stop offset="1" stop-color="#F3F2FC"/>
</linearGradient>
<clipPath id="clip0_1_874">
<rect width="544" height="350" rx="6" fill="white"/>
</clipPath>
</defs>
</svg>
