<svg width="544" height="350" viewBox="0 0 544 350" fill="none" xmlns="http://www.w3.org/2000/svg">
<g clip-path="url(#clip0_1_1009)">
<path d="M40 0V350" stroke="#F3F2FC" stroke-width="2" stroke-linejoin="round"/>
<path d="M80 0V350" stroke="#F3F2FC" stroke-width="2" stroke-linejoin="round"/>
<path d="M120 0V350" stroke="#F3F2FC" stroke-width="2" stroke-linejoin="round"/>
<path d="M160 0V350" stroke="#F3F2FC" stroke-width="2" stroke-linejoin="round"/>
<path d="M200 0V350" stroke="#F3F2FC" stroke-width="2" stroke-linejoin="round"/>
<path d="M240 0V350" stroke="#F3F2FC" stroke-width="2" stroke-linejoin="round"/>
<path d="M280 0V350" stroke="#F3F2FC" stroke-width="2" stroke-linejoin="round"/>
<path d="M320 0V350" stroke="#F3F2FC" stroke-width="2" stroke-linejoin="round"/>
<path d="M360 0V350" stroke="#F3F2FC" stroke-width="2" stroke-linejoin="round"/>
<path d="M400 0V350" stroke="#F3F2FC" stroke-width="2" stroke-linejoin="round"/>
<path d="M440 0V350" stroke="#F3F2FC" stroke-width="2" stroke-linejoin="round"/>
<path d="M480 0V350" stroke="#F3F2FC" stroke-width="2" stroke-linejoin="round"/>
<path d="M520 0V350" stroke="#F3F2FC" stroke-width="2" stroke-linejoin="round"/>
<path d="M0 40H544" stroke="#F3F2FC" stroke-width="2" stroke-linejoin="round"/>
<path d="M0 80H544" stroke="#F3F2FC" stroke-width="2" stroke-linejoin="round"/>
<path d="M0 120H544" stroke="#F3F2FC" stroke-width="2" stroke-linejoin="round"/>
<path d="M0 160H544" stroke="#F3F2FC" stroke-width="2" stroke-linejoin="round"/>
<path d="M0 200H544" stroke="#F3F2FC" stroke-width="2" stroke-linejoin="round"/>
<path d="M0 240H544" stroke="#F3F2FC" stroke-width="2" stroke-linejoin="round"/>
<path d="M0 280H544" stroke="#F3F2FC" stroke-width="2" stroke-linejoin="round"/>
<path d="M0 320H544" stroke="#F3F2FC" stroke-width="2" stroke-linejoin="round"/>
<mask id="mask0_1_1009" style="mask-type:alpha" maskUnits="userSpaceOnUse" x="0" y="0" width="544" height="350">
<rect width="544" height="350" fill="white"/>
</mask>
<g mask="url(#mask0_1_1009)">
<rect width="544" height="350" fill="url(#paint0_linear_1_1009)"/>
</g>
<path fill-rule="evenodd" clip-rule="evenodd" d="M250.051 20.5407C250.857 20.3247 251.67 20.1105 252.489 19.8982L252.282 19.1027C251.462 19.3156 250.647 19.5303 249.838 19.7469L250.051 20.5407ZM240.648 23.2176C242.168 22.7575 243.713 22.3042 245.28 21.8578L245.055 21.0674C243.483 21.515 241.935 21.9696 240.41 22.431L240.648 23.2176ZM231.246 26.2462C232.761 25.727 234.301 25.2148 235.868 24.7099L235.616 23.9278C234.044 24.4342 232.499 24.948 230.98 25.4689L231.246 26.2462ZM221.994 29.6313C223.493 29.0463 225.022 28.4686 226.58 27.8986L226.298 27.1268C224.734 27.6988 223.2 28.2785 221.695 28.8657L221.994 29.6313ZM212.919 33.42C214.391 32.7624 215.896 32.1124 217.435 31.4703L217.119 30.7119C215.574 31.3565 214.062 32.0092 212.584 32.6697L212.919 33.42ZM204.067 37.67C205.495 36.9325 206.962 36.2027 208.466 35.4811L208.111 34.7401C206.599 35.4651 205.126 36.1985 203.691 36.9398L204.067 37.67ZM195.515 42.448C196.877 41.6231 198.283 40.8059 199.733 39.9969L199.332 39.2793C197.875 40.0929 196.46 40.915 195.089 41.745L195.515 42.448ZM187.34 47.8563C188.62 46.9277 189.951 46.0064 191.332 45.0933L190.879 44.4077C189.488 45.3272 188.148 46.2552 186.858 47.191L187.34 47.8563ZM179.672 54.0339C180.858 52.9661 182.105 51.9051 183.415 50.852L182.9 50.2116C181.579 51.2738 180.32 52.3447 179.123 53.4232L179.672 54.0339ZM172.866 61.0131C173.889 59.8027 174.987 58.5976 176.16 57.3993L175.572 56.8245C174.386 58.0364 173.275 59.2562 172.238 60.4825L172.866 61.0131ZM167.211 69.0052C167.999 67.6312 168.879 66.2594 169.85 64.892L169.181 64.416C168.194 65.804 167.301 67.1981 166.498 68.5961L167.211 69.0052ZM163.357 77.928C163.802 76.4061 164.355 74.8812 165.018 73.3563L164.265 73.0286C163.589 74.584 163.023 76.1412 162.568 77.6973L163.357 77.928ZM161.967 87.5161C161.962 85.9107 162.078 84.2954 162.315 82.6738L161.503 82.5547C161.259 84.216 161.141 85.8718 161.145 87.5184L161.967 87.5161ZM163.445 97.0846C162.961 95.523 162.594 93.9452 162.347 92.3546L161.535 92.4807C161.789 94.1118 162.164 95.7289 162.66 97.3281L163.445 97.0846ZM167.538 105.89C166.656 104.485 165.878 103.059 165.203 101.617L164.459 101.965C165.148 103.439 165.943 104.894 166.842 106.326L167.538 105.89ZM173.575 113.558C172.417 112.351 171.344 111.121 170.356 109.872L169.712 110.382C170.717 111.653 171.807 112.902 172.982 114.127L173.575 113.558ZM180.894 120.039C179.57 119.032 178.313 118.003 177.123 116.955L176.58 117.571C177.785 118.633 179.057 119.675 180.397 120.693L180.894 120.039ZM189.039 125.455C187.595 124.612 186.206 123.747 184.872 122.863L184.418 123.548C185.765 124.441 187.167 125.314 188.625 126.165L189.039 125.455ZM197.744 129.963C196.243 129.274 194.787 128.564 193.375 127.835L192.998 128.566C194.421 129.3 195.889 130.015 197.401 130.71L197.744 129.963ZM206.859 133.7C205.283 133.125 203.745 132.53 202.247 131.917L201.935 132.677C203.444 133.295 204.991 133.893 206.578 134.472L206.859 133.7ZM216.186 136.736C214.577 136.271 213.001 135.787 211.46 135.285L211.205 136.067C212.756 136.571 214.34 137.058 215.957 137.526L216.186 136.736ZM225.685 139.176C224.061 138.809 222.466 138.424 220.9 138.022L220.696 138.818C222.27 139.222 223.873 139.608 225.504 139.977L225.685 139.176ZM235.318 141.089C233.684 140.808 232.075 140.51 230.491 140.195L230.332 141.002C231.922 141.317 233.538 141.616 235.179 141.899L235.318 141.089ZM245.042 142.528C243.399 142.323 241.779 142.102 240.18 141.866L240.06 142.679C241.665 142.916 243.292 143.138 244.941 143.344L245.042 142.528ZM252.423 143.327C251.587 143.25 250.757 143.169 249.931 143.084L249.847 143.902C250.675 143.987 251.509 144.068 252.348 144.146C253.211 144.225 254.061 144.31 254.897 144.401L254.985 143.584C254.145 143.493 253.291 143.407 252.423 143.327ZM264.63 144.959C263.1 144.681 261.512 144.425 259.865 144.191L259.749 145.005C261.386 145.237 262.964 145.492 264.483 145.768L264.63 144.959ZM274.189 147.183C272.695 146.746 271.124 146.336 269.475 145.955L269.29 146.756C270.925 147.134 272.48 147.539 273.958 147.972L274.189 147.183ZM283.383 150.658C281.969 149.971 280.444 149.32 278.805 148.709L278.518 149.479C280.135 150.082 281.636 150.722 283.024 151.397L283.383 150.658ZM291.516 156.062C290.389 155.01 289.101 154.007 287.647 153.057L287.198 153.745C288.616 154.672 289.866 155.646 290.955 156.663L291.516 156.062ZM296.871 164.309C296.394 162.755 295.684 161.255 294.733 159.821L294.048 160.275C294.957 161.646 295.632 163.074 296.086 164.55L296.871 164.309ZM297.043 174.133C297.435 172.464 297.631 170.821 297.617 169.216L296.796 169.223C296.809 170.757 296.622 172.333 296.243 173.944L297.043 174.133ZM293.17 183.197C294.062 181.726 294.828 180.264 295.46 178.815L294.707 178.486C294.091 179.898 293.343 181.328 292.467 182.771L293.17 183.197ZM287.294 191.039C288.405 189.789 289.434 188.539 290.377 187.292L289.722 186.796C288.792 188.025 287.777 189.258 286.68 190.493L287.294 191.039ZM280.309 197.96C281.577 196.839 282.783 195.713 283.925 194.584L283.348 194C282.217 195.117 281.022 196.233 279.765 197.345L280.309 197.96ZM272.717 204.078C274.055 203.09 275.348 202.094 276.592 201.093L276.077 200.453C274.842 201.447 273.558 202.435 272.229 203.417L272.717 204.078ZM264.646 209.594C266.034 208.714 267.385 207.825 268.699 206.929L268.236 206.25C266.93 207.141 265.586 208.025 264.206 208.9L264.646 209.594ZM256.23 214.574C257.658 213.785 259.057 212.985 260.426 212.177L260.008 211.469C258.646 212.274 257.254 213.07 255.833 213.855L256.23 214.574ZM247.548 219.071C249.017 218.358 250.461 217.635 251.88 216.901L251.503 216.171C250.09 216.901 248.652 217.622 247.19 218.331L247.548 219.071ZM238.65 223.117C240.15 222.478 241.629 221.827 243.087 221.165L242.747 220.417C241.296 221.076 239.822 221.725 238.328 222.361L238.65 223.117ZM229.571 226.736C231.096 226.169 232.603 225.588 234.092 224.995L233.788 224.231C232.305 224.822 230.803 225.401 229.285 225.966L229.571 226.736ZM220.337 229.942C221.889 229.442 223.426 228.927 224.947 228.399L224.677 227.623C223.162 228.149 221.631 228.661 220.085 229.16L220.337 229.942ZM210.97 232.74C212.546 232.307 214.109 231.858 215.659 231.395L215.424 230.608C213.88 231.069 212.322 231.516 210.752 231.948L210.97 232.74ZM97.6973 232.468C98.4779 232.716 99.2595 232.957 100.042 233.193L100.279 232.406C99.5001 232.171 98.7223 231.931 97.9455 231.685L97.6973 232.468ZM201.489 235.132C203.086 234.765 204.673 234.383 206.247 233.986L206.046 233.189C204.477 233.585 202.897 233.966 201.306 234.331L201.489 235.132ZM104.747 234.534C106.318 234.958 107.892 235.358 109.469 235.736L109.66 234.937C108.091 234.561 106.524 234.163 104.961 233.741L104.747 234.534ZM191.913 237.112C193.527 236.814 195.133 236.5 196.728 236.17L196.562 235.365C194.972 235.694 193.372 236.007 191.764 236.304L191.913 237.112ZM114.249 236.809C115.845 237.144 117.442 237.456 119.041 237.746L119.187 236.937C117.596 236.649 116.006 236.338 114.418 236.005L114.249 236.809ZM182.278 238.671C183.899 238.445 185.513 238.202 187.119 237.942L186.988 237.13C185.388 237.389 183.78 237.632 182.165 237.857L182.278 238.671ZM123.859 238.552C125.473 238.8 127.088 239.025 128.703 239.229L128.805 238.414C127.198 238.211 125.591 237.986 123.984 237.74L123.859 238.552ZM172.581 239.803C174.207 239.65 175.826 239.479 177.439 239.291L177.344 238.474C175.737 238.662 174.123 238.832 172.504 238.985L172.581 239.803ZM133.546 239.776C135.173 239.939 136.8 240.08 138.425 240.2L138.486 239.38C136.867 239.261 135.248 239.12 133.628 238.958L133.546 239.776ZM162.838 240.495C164.465 240.417 166.088 240.32 167.706 240.205L167.648 239.386C166.036 239.5 164.419 239.596 162.799 239.674L162.838 240.495ZM143.297 240.498C144.927 240.577 146.555 240.636 148.181 240.675L148.201 239.853C146.582 239.815 144.96 239.756 143.337 239.677L143.297 240.498ZM153.069 240.732C154.697 240.731 156.322 240.711 157.944 240.672L157.924 239.85C156.309 239.889 154.69 239.91 153.069 239.91L153.069 240.732Z" fill="#6C63D4"/>
<path d="M249.787 19.7733L304.316 22.6262L250.827 28.8796L251.489 33.5135L252.736 42.2375C252.841 42.9706 253.608 43.4093 254.293 43.1286L304.316 22.6262L249.453 1.65751C248.658 1.35384 247.824 1.99866 247.917 2.84426L249.787 19.7733Z" fill="#B4AFE9"/>
<path d="M249.786 19.7732L304.316 22.6261L250.826 28.8794L242.339 34.5713C241.949 34.1732 241.871 33.5646 242.149 33.0815L249.786 19.7732Z" fill="#938CE0"/>
<path d="M243.458 34.9235C243.05 35.0007 242.629 34.8686 242.338 34.5713L250.826 28.8794L251.489 33.5134L243.458 34.9235Z" fill="#6C63D4"/>
<path d="M209.559 33.6197L97 33.6197C97 27.6947 103.488 18.9482 115.337 20.9232C117.029 16.4089 123.235 8.33965 134.52 12.1768C141.29 -2.77679 164.14 -3.34107 172.039 12.1768C183.323 8.33965 189.529 16.4089 191.222 20.9232C203.07 18.9482 209.559 27.6947 209.559 33.6197Z" fill="white"/>
<path d="M337.728 143.736L225.169 143.736C225.169 137.811 231.657 129.065 243.506 131.04C245.198 126.526 251.404 118.456 262.689 122.293C269.459 107.34 292.309 106.776 300.208 122.293C311.492 118.456 317.698 126.526 319.391 131.04C331.239 129.065 337.728 137.811 337.728 143.736Z" fill="white"/>
<path d="M151.225 133.875C149.171 128.945 140.545 121.549 131.096 123.603C129.042 128.534 149.582 139.463 151.225 133.875Z" fill="#3A3683"/>
<path d="M301.578 68.1339C299.113 67.2908 293.772 64.8502 292.54 47.1822C295.005 45.1244 305.85 66.8191 301.578 68.1339Z" fill="#3A3683"/>
<path d="M248.965 238.466L263.669 236.188L264.606 229.203L250.228 227.971L248.965 238.466Z" fill="#F7AA8C"/>
<path d="M281.992 252.23L247.929 252.297H247.485L247.844 249.333L248.965 238.467L263.669 236.188C267.338 236.487 266.293 238.483 265.311 239.443C267.991 240.602 273.156 245.605 278.162 249.333C279.626 250.424 280.949 251.427 281.992 252.23Z" fill="#2C2C2C"/>
<path d="M136.588 292.834L151.315 294.955L154.253 288.549L140.863 283.166L136.588 292.834Z" fill="#F7AA8C"/>
<path d="M151.315 294.955C154.737 296.314 153.154 297.916 151.934 298.547C153.159 299.59 155.624 302.993 158.209 306.68L165.603 311.24L151.315 311.24L131.571 305.244L131.147 305.115L132.356 302.386L136.588 292.834L151.315 294.955Z" fill="#2C2C2C"/>
<path d="M146.323 149.492C148.377 147.849 147.966 140.453 147.145 136.344C146.556 133.399 148.122 128.693 149.537 126.072L140.161 122.146C138.475 125.137 136.073 128.737 132.766 132.646C125.536 141.193 124.981 144.973 125.608 145.794C124.309 149.026 124.805 150.746 127.837 147.438C137.754 136.619 141.93 138.125 143.447 141.275C145.001 146.179 144.722 150.773 146.323 149.492Z" fill="#3A3683"/>
<path d="M146.323 149.492C148.377 147.849 147.966 140.453 147.145 136.344C146.556 133.399 148.122 128.693 149.537 126.072L140.161 122.146C138.475 125.137 136.073 128.737 132.766 132.646C125.536 141.193 124.981 144.973 125.608 145.794C124.309 149.026 124.805 150.746 127.837 147.438C137.754 136.619 141.93 138.125 143.447 141.275C145.001 146.179 144.722 150.773 146.323 149.492Z" fill="#F7AA8C"/>
<path d="M164.371 290.836C171.047 273.527 181.934 244.851 184.5 236.188C186.445 229.623 195.554 197.916 203.213 171.213C214.924 168.378 233.402 163.977 248.323 159.258C246.749 169.846 243.533 186.811 245.298 211.946C243.655 215.233 241.601 215.233 245.298 218.931C247.352 220.986 234.793 231.814 245.298 232.901C257.211 234.134 269.458 233.673 273.342 230.436C278.271 226.327 272.218 221.439 273.342 215.233C279.495 180.279 290.738 141.054 283.502 127.304C276.93 114.813 228.455 127.304 207.094 135.111C195.263 133.468 178.612 123.469 171.765 118.676C164.037 127.997 156.811 171.035 151.133 208.248C145.885 226.327 143.795 257.132 141.777 258.784C137.258 262.482 141.777 264.125 139.723 264.947C138.579 265.405 135.51 271.114 133.867 280.564C140.768 286.481 159.269 290.151 164.371 290.836Z" fill="#131039"/>
<path fill-rule="evenodd" clip-rule="evenodd" d="M203.016 171.157C205.709 161.764 208.223 152.991 210.183 146.149L210.578 146.262C208.618 153.104 206.104 161.878 203.411 171.27L203.016 171.157ZM248.12 159.228C248.35 157.678 248.578 156.331 248.794 155.206L249.197 155.283C248.983 156.402 248.756 157.743 248.526 159.288L248.12 159.228Z" fill="#938CE0"/>
<path d="M279.768 124.656C281.967 127.086 283.297 130.37 283.297 134.697C283.297 140.004 282.078 147.686 280.339 156.51C279.201 162.286 277.834 168.581 276.429 175.051L276.428 175.053L276.427 175.06C275.684 178.48 274.931 181.948 274.195 185.415C272.064 195.454 270.079 205.488 268.908 214.342C268.797 215.181 268.693 216.009 268.597 216.825C270.208 216.433 271.786 215.995 273.296 215.512C273.23 215.96 273.2 216.401 273.2 216.835C271.665 217.312 270.071 217.743 268.45 218.129C267.851 223.659 267.642 228.584 267.996 232.594C267.604 232.677 267.199 232.754 266.78 232.825C266.409 228.774 266.606 223.862 267.179 218.421C263.763 219.178 260.263 219.738 256.972 220.106C253.048 220.545 249.397 220.714 246.51 220.617C246.091 220.602 245.688 220.583 245.301 220.557C245.488 220.073 245.574 219.657 245.509 219.335C245.842 219.356 246.19 219.372 246.552 219.385C249.365 219.48 252.954 219.315 256.835 218.881C260.232 218.501 263.835 217.916 267.322 217.125C267.432 216.158 267.554 215.176 267.686 214.18C268.864 205.276 270.858 195.202 272.989 185.159C273.728 181.679 274.483 178.203 275.226 174.78L275.228 174.775C276.631 168.313 277.994 162.038 279.13 156.271C280.871 147.44 282.065 139.868 282.065 134.697C282.065 130.643 280.828 127.664 278.854 125.483C277.778 124.294 276.47 123.329 274.998 122.556C276.304 122.785 277.498 123.091 278.562 123.48C278.987 123.847 279.39 124.238 279.768 124.656Z" fill="#938CE0"/>
<path d="M189.97 195.476C186.651 206.773 182.92 218.699 179.009 231.202L179.009 231.202C174.743 244.836 170.263 259.155 165.87 274.094C167.369 274.493 168.875 274.852 170.373 275.159C170.224 275.549 170.077 275.938 169.929 276.326C168.462 276.021 166.989 275.668 165.522 275.277C164.072 280.225 162.631 285.241 161.212 290.321C160.825 290.25 160.42 290.174 159.996 290.092C161.424 284.98 162.873 279.932 164.334 274.951C154.523 272.191 145.128 267.83 139.749 264.937C140.432 264.654 140.355 264.274 140.141 263.748C145.439 266.614 154.866 271.009 164.681 273.768C169.083 258.8 173.575 244.443 177.847 230.788C181.756 218.291 185.482 206.382 188.787 195.129C195.656 171.746 200.712 151.195 201.906 133.974C202.313 134.091 202.717 134.202 203.118 134.306C201.881 151.645 196.8 172.226 189.97 195.476Z" fill="#938CE0"/>
<path d="M299.972 41.4556C297.787 47.4293 290.298 51.0141 288.632 52.3754C288.846 53.3026 291.897 58.9462 295.472 60.5622C296.419 58.7773 298.742 55.5114 300.148 55.0876C307.091 52.9962 306.994 52.5763 307.613 50.9685C308.232 49.3606 311.735 49.5282 313.615 49.0941C315.119 48.7468 313.233 44.5787 312.321 43.4872C313.482 41.6564 311.301 39.0663 310.171 38.4637C313.543 36.8639 318.688 35.0753 317.081 34.0867C315.35 33.0214 300.847 38.8121 299.972 41.4556Z" fill="#F7AA8C"/>
<path d="M235.55 37.8058C235.886 35.1167 235.091 32.767 234.535 31.4417C233.62 29.9162 231.82 28.0096 231.057 27.2468C229.532 29.3825 226.863 30.4249 225.719 30.6792L223.813 37.1625C222.542 36.2727 220.399 35.238 219.237 36.3998C217.331 38.3067 217.331 42.1204 222.669 44.4086C221.016 45.6799 217.407 48.4512 216.187 49.3665C215.884 51.0794 211.613 55.3963 207.916 56.218C212.563 63.4984 227.244 74.1498 232.564 59.5051C228.045 58.6833 224.867 58.0101 224.867 58.0101C224.956 56.1737 228.162 54.1344 229.059 53.0389C231.306 50.292 236.299 52.04 235.8 49.2931C235.591 48.147 235.55 45.6441 235.8 44.0625C236.216 43.9792 237.122 43.8638 237.921 43.2645C238.919 42.5153 235.55 39.5539 235.55 37.8058Z" fill="#F7AA8C"/>
<path d="M226.862 30.6797L223.812 37.163C222.541 36.2732 220.398 35.2385 219.236 36.4003C217.33 38.3072 217.33 42.1209 222.668 44.4092C221.016 45.6804 217.406 48.4517 216.186 49.367C210.467 45.1719 209.704 37.9258 209.412 37.5444C208.597 38.5099 208.536 38.6647 207.996 39.0551C207.741 39.2389 207.387 39.0629 207.369 38.7494C207.109 34.2735 207.835 32.1313 208.56 30.6797C208.039 30.6797 207.535 31.4624 207.103 32.1836C206.776 32.7299 206.33 32.5457 206.39 31.9118C206.819 27.4078 207.735 24.6455 210.848 25.3374C215.642 19.8232 222.313 17.9435 226.862 19.9981C232.963 20.9017 233.471 22.9796 233.344 24.1932C239.826 27.2442 236.823 30.6795 234.535 31.4423C233.62 29.9168 232.2 28.3915 231.438 27.6287C229.913 29.7644 228.006 30.4255 226.862 30.6797Z" fill="#2C2C2C"/>
<path d="M131.096 123.603C139.312 98.1283 147.528 87.5234 153.279 82.5181C183.914 55.8565 192.586 54.6309 209.148 55.6999C214.351 63.1532 225.744 74.2326 229.688 58.9231C238.172 60.3045 252.846 64.8595 261.73 66.9045C269.535 61.1522 279.805 55.8107 292.54 47.1821C293.772 64.8501 299.113 67.2907 301.578 68.1338C276.93 89.9106 272.822 89.914 264.195 91.5575C259.311 92.488 247.435 90.8274 236.671 87.8562C234.612 94.0344 231.491 105.229 230.141 118.676C230.101 119.087 231.331 122.949 229.688 125.743C229.682 126.072 235.028 128.898 227.634 130.983C224.439 132.195 218.131 133.311 210.791 135.933C189.958 143.375 184.089 142.507 167.246 121.552C167.246 117.608 169.164 116.621 170.122 116.621C169.711 115.8 169.465 115.964 171.765 110.047C172.861 108.404 175.298 104.459 176.284 101.83C177.181 99.4383 178.145 93.9208 178.622 91.0865L170.533 98.5426C167.394 104.161 161.853 113.586 157.445 121.552C155.191 128.786 152.359 132.782 151.225 133.875C149.171 128.945 140.545 121.549 131.096 123.603Z" fill="#6C63D4"/>
<path d="M229.688 58.9231C225.744 74.2325 214.352 63.1532 209.148 55.6998C207.282 55.5794 205.516 55.4881 203.808 55.459C211.476 66.7751 227.962 83.4176 232.563 59.459C231.546 59.2495 230.582 59.0687 229.688 58.9231Z" fill="#251E6D"/>
<path fill-rule="evenodd" clip-rule="evenodd" d="M191.786 78.9528C191.94 79.1196 191.929 79.3796 191.762 79.5333L170.811 98.8449C170.645 98.9986 170.385 98.988 170.231 98.8212C170.077 98.6543 170.088 98.3943 170.255 98.2406L191.205 78.9291C191.372 78.7753 191.632 78.7859 191.786 78.9528ZM238.856 82.1285C239.071 82.2002 239.187 82.4329 239.115 82.6482C239.065 82.8004 238.891 83.231 238.662 83.7976C238.542 84.0954 238.407 84.4307 238.266 84.7829C237.85 85.8233 237.377 87.0393 237.062 87.9863C235.009 94.144 231.896 105.309 230.55 118.717C230.527 118.943 230.326 119.107 230.1 119.085C229.875 119.062 229.71 118.861 229.733 118.635C231.087 105.151 234.216 93.9251 236.282 87.7264C236.606 86.7544 237.087 85.5186 237.503 84.4781C237.658 84.09 237.802 83.7326 237.926 83.4257C238.14 82.8958 238.293 82.5163 238.336 82.3883C238.408 82.1731 238.64 82.0567 238.856 82.1285Z" fill="#3A3683"/>
<path d="M120.826 310.555H195.592V350H120.826V310.555Z" fill="#938CE0"/>
<path d="M120.826 310.555V350H108.913V316.718L120.826 310.555Z" fill="#3A3683"/>
<path d="M239.958 252.21H314.723V350H239.958V252.21Z" fill="#938CE0"/>
<path d="M239.958 252.21V350H222.293V265.358L239.958 252.21Z" fill="#3A3683"/>
<path d="M363.197 106.757H447V350H363.197V106.757Z" fill="#938CE0"/>
<path d="M363.197 106.757V350H340.193V120.727L363.197 106.757Z" fill="#3A3683"/>
<path fill-rule="evenodd" clip-rule="evenodd" d="M379.218 124.014C379.218 121.745 381.057 119.905 383.326 119.905H437.141C438.502 119.905 439.606 121.009 439.606 122.371C439.606 123.732 438.502 124.836 437.141 124.836H384.148V340.55C384.148 341.911 383.044 343.015 381.683 343.015C380.322 343.015 379.218 341.911 379.218 340.55V124.014Z" fill="#3A3683"/>
<path fill-rule="evenodd" clip-rule="evenodd" d="M256.39 268.645C256.39 266.376 258.229 264.536 260.498 264.536H285.967C287.328 264.536 288.432 265.64 288.432 267.001C288.432 268.363 287.328 269.467 285.967 269.467H261.319V341.782C261.319 343.144 260.216 344.248 258.854 344.248C257.493 344.248 256.39 343.144 256.39 341.782V268.645Z" fill="#3A3683"/>
<path fill-rule="evenodd" clip-rule="evenodd" d="M138.08 320.416C138.08 318.147 139.919 316.308 142.188 316.308H158.62C159.981 316.308 161.085 317.411 161.085 318.773C161.085 320.134 159.981 321.238 158.62 321.238H143.009V345.069C143.009 346.431 141.906 347.535 140.545 347.535C139.183 347.535 138.08 346.431 138.08 345.069V320.416Z" fill="#3A3683"/>
<path d="M389.488 59.0945H399.233V75.5891H389.488V59.0945Z" fill="#FFC928"/>
<path d="M391.131 59.0945H393.596V76.3516H391.131V59.0945Z" fill="white"/>
<path d="M373.389 57.337C375.637 56.7748 376.182 53.198 375.932 51.6984L370.181 41.4264C367.34 40.132 351.991 29.8655 349.026 20.5989C346.893 13.9296 359.961 17.5141 362.436 14.7028L365.251 11.4319L362.144 7.47824C358.247 4.17932 351.65 8.22793 355.023 10.8521C344.904 10.8521 339.588 18.7246 348.277 29.9709C361.02 46.4655 370.765 41.2173 370.39 55.0877C370.362 56.1379 370.765 57.9931 373.389 57.337Z" fill="#FFC928"/>
<path d="M416.34 57.337C414.092 56.7748 413.547 53.198 413.797 51.6984L419.548 41.4264C422.389 40.132 437.738 29.8655 440.703 20.5989C442.836 13.9296 429.768 17.5141 427.293 14.7028L424.478 11.4319L427.585 7.47824C431.483 4.17932 438.079 8.22793 434.706 10.8521C444.825 10.8521 450.141 18.7246 441.452 29.9709C428.709 46.4655 418.964 41.2173 419.339 55.0877C419.367 56.1379 418.964 57.9931 416.34 57.337Z" fill="#FFC928"/>
<path d="M376.591 98.1987H413.322V79.0651C413.322 76.7959 411.483 74.9563 409.214 74.9563H380.699C378.431 74.9563 376.591 76.7959 376.591 79.0651V98.1987Z" fill="#3A3683"/>
<path d="M381.464 93.6282V82.3782C381.464 81.9243 381.846 81.585 382.273 81.4325C383.027 81.1633 383.25 80.5012 383.314 79.9009C383.362 79.4496 383.706 79.0801 384.16 79.0801H406.13C406.584 79.0801 406.928 79.4496 406.976 79.9009C407.04 80.5012 407.263 81.1633 408.017 81.4325C408.445 81.585 408.826 81.9243 408.826 82.3782V93.6282C408.826 94.0821 408.453 94.4126 408.006 94.4939C407.478 94.5902 407.115 94.8974 406.995 95.8779C406.94 96.3283 406.584 96.6993 406.13 96.6993H384.16C383.706 96.6993 383.35 96.3283 383.295 95.8779C383.175 94.8974 382.812 94.5902 382.284 94.4939C381.837 94.4126 381.464 94.0821 381.464 93.6282Z" fill="#938CE0"/>
<path d="M391.208 63.8992C379.942 59.6276 362.66 44.829 361.974 7.47852H427.939C427.246 45.2563 410.215 60.6041 397.281 64.1868C395.276 64.7423 393.154 64.6369 391.208 63.8992Z" fill="#FFC928"/>
<path d="M369.845 102.841C369.845 101.934 370.581 101.198 371.489 101.198H418.425C419.333 101.198 420.069 101.934 420.069 102.841V105.552C420.069 106.46 419.333 107.196 418.425 107.196H371.489C370.581 107.196 369.845 106.46 369.845 105.552V102.841Z" fill="#3A3683"/>
<path d="M372.844 101.198H417.07V99.0209C417.07 98.5672 416.702 98.1994 416.249 98.1994H373.665C373.212 98.1994 372.844 98.5672 372.844 99.0209V101.198Z" fill="#3A3683"/>
<path d="M395.351 15.1167C395.668 14.5724 396.454 14.5724 396.771 15.1167L401.722 23.6191C401.839 23.8185 402.033 23.9598 402.258 24.0086L411.873 26.0911C412.489 26.2244 412.731 26.9721 412.312 27.4418L405.757 34.779C405.604 34.951 405.529 35.1798 405.552 35.4093L406.543 45.1988C406.607 45.8254 405.971 46.2875 405.395 46.0335L396.393 42.0658C396.182 41.9727 395.941 41.9727 395.73 42.0658L386.728 46.0335C386.152 46.2875 385.516 45.8254 385.579 45.1988L386.57 35.4093C386.593 35.1798 386.519 34.951 386.365 34.779L379.811 27.4418C379.391 26.9721 379.634 26.2244 380.249 26.0911L389.864 24.0087C390.09 23.9598 390.284 23.8185 390.4 23.6191L395.351 15.1167Z" fill="white"/>
<path d="M366.484 12.2539H372.283C373.363 41.429 387.863 57.1891 391.071 59.0602C391.091 59.0717 391.111 59.0832 391.131 59.0946C391.112 59.0837 391.092 59.0723 391.071 59.0602C371.403 47.8582 366.484 23.1955 366.484 12.2539Z" fill="white"/>
</g>
<defs>
<linearGradient id="paint0_linear_1_1009" x1="272" y1="39" x2="272" y2="279.5" gradientUnits="userSpaceOnUse">
<stop stop-color="#F3F2FC" stop-opacity="0"/>
<stop offset="1" stop-color="#F3F2FC"/>
</linearGradient>
<clipPath id="clip0_1_1009">
<rect width="544" height="350" rx="6" fill="white"/>
</clipPath>
</defs>
</svg>
