<svg width="109" height="40" viewBox="0 0 109 40" fill="none" xmlns="http://www.w3.org/2000/svg">
<path d="M57.295 11.7591C57.295 12.9573 56.3298 13.9225 55.1316 13.9225C53.9334 13.9225 52.9681 12.9573 52.9681 11.7591C52.9681 10.5609 53.9001 9.59572 55.1316 9.59572C56.363 9.629 57.295 10.5942 57.295 11.7591ZM48.375 16.1192C48.375 16.3189 48.375 16.6518 48.375 16.6518C48.375 16.6518 47.3433 15.3204 45.1466 15.3204C41.5187 15.3204 38.6896 18.083 38.6896 21.9105C38.6896 25.7048 41.4854 28.5006 45.1466 28.5006C47.3766 28.5006 48.375 27.136 48.375 27.136V27.7018C48.375 27.9681 48.5748 28.1678 48.841 28.1678H51.537V15.6533C51.537 15.6533 49.074 15.6533 48.841 15.6533C48.5748 15.6533 48.375 15.8863 48.375 16.1192ZM48.375 24.1405C47.8758 24.8727 46.8773 25.5051 45.6791 25.5051C43.549 25.5051 41.9181 24.1738 41.9181 21.9105C41.9181 19.6473 43.549 18.3159 45.6791 18.3159C46.844 18.3159 47.9091 18.9816 48.375 19.6806V24.1405ZM53.534 15.6533H56.7292V28.1678H53.534V15.6533ZM101.262 15.3204C99.0655 15.3204 98.0337 16.6518 98.0337 16.6518V9.629H94.8385V28.1678C94.8385 28.1678 97.3015 28.1678 97.5345 28.1678C97.8007 28.1678 98.0004 27.9348 98.0004 27.7018V27.136C98.0004 27.136 99.0322 28.5006 101.229 28.5006C104.857 28.5006 107.686 25.7048 107.686 21.9105C107.686 18.1162 104.857 15.3204 101.262 15.3204ZM100.73 25.4718C99.4982 25.4718 98.533 24.8395 98.0337 24.1072V19.6473C98.533 18.9816 99.598 18.2827 100.73 18.2827C102.86 18.2827 104.491 19.614 104.491 21.8773C104.491 24.1405 102.86 25.4718 100.73 25.4718ZM93.1743 20.7456V28.2011H89.9791V21.1117C89.9791 19.0482 89.3135 18.2161 87.5162 18.2161C86.551 18.2161 85.5525 18.7153 84.9201 19.4476V28.1678H81.7249V15.6533H84.2544C84.5207 15.6533 84.7204 15.8863 84.7204 16.1192V16.6518C85.6523 15.6866 86.8838 15.3204 88.1153 15.3204C89.5132 15.3204 90.6781 15.7198 91.61 16.5186C92.7417 17.4506 93.1743 18.6488 93.1743 20.7456ZM73.9699 15.3204C71.7732 15.3204 70.7414 16.6518 70.7414 16.6518V9.629H67.5462V28.1678C67.5462 28.1678 70.0092 28.1678 70.2422 28.1678C70.5084 28.1678 70.7081 27.9348 70.7081 27.7018V27.136C70.7081 27.136 71.7399 28.5006 73.9366 28.5006C77.5645 28.5006 80.3936 25.7048 80.3936 21.9105C80.4268 18.1162 77.5978 15.3204 73.9699 15.3204ZM73.4374 25.4718C72.2059 25.4718 71.2407 24.8395 70.7414 24.1072V19.6473C71.2407 18.9816 72.3057 18.2827 73.4374 18.2827C75.5675 18.2827 77.1984 19.614 77.1984 21.8773C77.1984 24.1405 75.5675 25.4718 73.4374 25.4718ZM64.7837 15.3204C65.7489 15.3204 66.2482 15.4869 66.2482 15.4869V18.4491C66.2482 18.4491 63.5855 17.5504 61.9213 19.4476V28.2011H58.7262V15.6533C58.7262 15.6533 61.1891 15.6533 61.4221 15.6533C61.6884 15.6533 61.8881 15.8863 61.8881 16.1192V16.6518C62.4872 15.9528 63.7852 15.3204 64.7837 15.3204ZM31.6003 27.0362C31.4339 26.6368 31.2674 26.2041 31.101 25.838C30.8348 25.2389 30.5685 24.673 30.3355 24.1405L30.3022 24.1072C28.0057 19.1147 25.5427 14.0557 22.9466 9.06319L22.8468 8.86349C22.5805 8.36424 22.3142 7.83171 22.048 7.29917C21.7151 6.70007 21.3823 6.06769 20.8498 5.46859C19.7847 4.13726 18.2537 3.40503 16.6228 3.40503C14.9586 3.40503 13.4609 4.13726 12.3625 5.40203C11.8633 6.00113 11.4972 6.63351 11.1644 7.23261C10.8981 7.76514 10.6318 8.29767 10.3656 8.79692L10.2657 8.99662C7.70289 13.9891 5.20664 19.0482 2.9101 24.0407L2.87681 24.1072C2.64383 24.6398 2.37757 25.2056 2.1113 25.8047C1.94488 26.1708 1.77847 26.5702 1.61205 27.0029C1.17937 28.2344 1.04623 29.3993 1.21265 30.5975C1.57877 33.0937 3.24293 35.1906 5.53948 36.1225C6.40484 36.4886 7.30349 36.655 8.23542 36.655C8.50169 36.655 8.83452 36.6217 9.10079 36.5885C10.1991 36.4553 11.3308 36.0892 12.4291 35.4568C13.7937 34.6913 15.0918 33.593 16.5562 31.9954C18.0207 33.593 19.352 34.6913 20.6834 35.4568C21.7817 36.0892 22.9133 36.4553 24.0117 36.5885C24.278 36.6217 24.6108 36.655 24.8771 36.655C25.809 36.655 26.7409 36.4886 27.573 36.1225C29.9028 35.1906 31.5337 33.0604 31.8998 30.5975C32.1661 29.4326 32.033 28.2676 31.6003 27.0362ZM16.5895 28.7669C14.7922 26.5036 13.6273 24.3735 13.2279 22.5762C13.0615 21.8107 13.0282 21.145 13.1281 20.5459C13.1946 20.0134 13.3943 19.5474 13.6606 19.148C14.293 18.2494 15.358 17.6836 16.5895 17.6836C17.821 17.6836 18.9194 18.2161 19.5185 19.148C19.7847 19.5474 19.9844 20.0134 20.051 20.5459C20.1508 21.145 20.1176 21.844 19.9511 22.5762C19.5517 24.3402 18.3868 26.4703 16.5895 28.7669ZM29.8696 30.3312C29.6366 32.0619 28.4717 33.5597 26.8408 34.2253C26.042 34.5582 25.1766 34.658 24.3112 34.5582C23.4792 34.4583 22.6471 34.1921 21.7817 33.6928C20.5835 33.0271 19.3853 31.9954 17.9874 30.4643C20.1841 27.7684 21.5154 25.3054 22.0147 23.1087C22.2477 22.077 22.281 21.145 22.1811 20.2797C22.048 19.4476 21.7484 18.6821 21.2825 18.0164C20.2507 16.5186 18.52 15.6533 16.5895 15.6533C14.6591 15.6533 12.9284 16.5519 11.8966 18.0164C11.4306 18.6821 11.1311 19.4476 10.9979 20.2797C10.8648 21.145 10.8981 22.1102 11.1644 23.1087C11.6636 25.3054 13.0282 27.8017 15.1916 30.4976C13.827 32.0287 12.5955 33.0604 11.3973 33.7261C10.532 34.2253 9.69989 34.4916 8.8678 34.5915C7.96916 34.6913 7.10379 34.5582 6.33828 34.2586C4.70739 33.593 3.54248 32.0952 3.3095 30.3645C3.20965 29.5324 3.27621 28.7003 3.60905 27.7684C3.7089 27.4356 3.87531 27.1027 4.04173 26.7033C4.27471 26.1708 4.54098 25.605 4.80724 25.0392L4.84053 24.9726C7.13707 20.0134 9.60004 14.9543 12.1628 10.0284L12.2627 9.8287C12.529 9.32945 12.7952 8.79692 13.0615 8.29767C13.3278 7.76514 13.6273 7.26589 13.9934 6.83321C14.6924 6.03441 15.6243 5.60173 16.6561 5.60173C17.6879 5.60173 18.6198 6.03441 19.3188 6.83321C19.6849 7.26589 19.9844 7.76514 20.2507 8.29767C20.517 8.79692 20.7832 9.32945 21.0495 9.8287L21.1493 10.0284C23.6789 14.9876 26.1418 20.0467 28.4384 25.0059V25.0392C28.7046 25.5717 28.9376 26.1708 29.2039 26.7033C29.3703 27.1027 29.5367 27.4356 29.6366 27.7684C29.9028 28.6338 30.0027 29.4658 29.8696 30.3312Z" fill="#6C63D4"/>
</svg>
