<svg width="140" height="40" viewBox="0 0 140 40" fill="none" xmlns="http://www.w3.org/2000/svg">
<g clip-path="url(#clip0_1_567)">
<path fill-rule="evenodd" clip-rule="evenodd" d="M49.5016 25.157C49.5016 25.7488 49.0678 26.2354 48.4506 26.2354C47.8501 26.2354 47.4162 25.7477 47.4162 25.157V14.875C47.4162 14.2832 47.8501 13.7966 48.4673 13.7966C49.0678 13.7966 49.5016 14.2843 49.5016 14.875V25.157Z" fill="#6C63D4"/>
<path fill-rule="evenodd" clip-rule="evenodd" d="M62.9809 14.875V24.2703C62.9809 25.5404 62.3306 26.2542 61.2963 26.2542H61.2134C60.2294 26.2542 59.7616 25.6624 59.3449 24.7923L57.2428 20.5297L55.3743 16.1285L55.4245 20.3911L55.4413 25.1403C55.4413 25.7322 55.0079 26.2187 54.3902 26.2187C53.7897 26.2187 53.3563 25.7311 53.3563 25.1403V15.745C53.3563 14.5791 54.0066 13.7611 55.1415 13.7611H55.2248C56.2759 13.7611 56.7093 14.353 57.1268 15.223L59.195 19.4513L60.9635 23.5577L60.9137 19.6253L60.8969 14.8761C60.8969 14.2842 61.3303 13.7977 61.948 13.7977C62.5471 13.7966 62.9809 14.2832 62.9809 14.875Z" fill="#6C63D4"/>
<path fill-rule="evenodd" clip-rule="evenodd" d="M71.3397 25.1404C71.3397 25.7322 70.9064 26.2188 70.2886 26.2188C69.6886 26.2188 69.2548 25.7311 69.2548 25.1404V15.8326H66.6689C66.1355 15.8326 65.7021 15.4148 65.7021 14.8063C65.7021 14.2144 66.1355 13.7977 66.6689 13.7977H73.9256C74.459 13.7977 74.8929 14.2156 74.8929 14.824C74.8929 15.4159 74.459 15.8326 73.9256 15.8326H71.3397V25.1404Z" fill="#6C63D4"/>
<path fill-rule="evenodd" clip-rule="evenodd" d="M77.6123 24.7924V15.1367C77.6123 14.2323 78.0959 13.728 78.9804 13.7623H84.9862C85.5197 13.7623 85.953 14.1968 85.953 14.7887C85.953 15.3805 85.5197 15.7972 84.9862 15.7972H79.6805V18.7897H84.3685C84.8861 18.7897 85.3027 19.1898 85.3027 19.764C85.3027 20.3381 84.8861 20.7382 84.3685 20.7382H79.6805V24.1829H84.9862C85.5197 24.1829 85.953 24.6173 85.953 25.2092C85.953 25.801 85.5197 26.2178 84.9862 26.2178H78.9301C78.0629 26.2188 77.5797 25.7146 77.6123 24.7924Z" fill="#6C63D4"/>
<path fill-rule="evenodd" clip-rule="evenodd" d="M97.3152 26.2709C97.899 25.9573 98.0828 25.3134 97.7989 24.8091L95.7134 20.9476C97.4321 20.5996 98.4334 19.2774 98.4334 17.4852C98.4334 15.6066 97.2994 13.7623 94.5795 13.7623H90.626C89.742 13.728 89.2584 14.2323 89.2584 15.1367V25.1582C89.2584 25.7489 89.6917 26.2366 90.2922 26.2366C90.91 26.2366 91.3433 25.75 91.3433 25.1582L91.3266 21.3655H93.5284L95.8475 25.8365C96.1301 26.3408 96.7478 26.5669 97.3152 26.2709ZM94.6284 19.3982H91.3252V15.7962H94.6116C95.7125 15.7962 96.3302 16.5265 96.3302 17.5883C96.3302 18.6501 95.7465 19.3982 94.6284 19.3982Z" fill="#6C63D4"/>
<path fill-rule="evenodd" clip-rule="evenodd" d="M102.736 25.2967C101.486 24.1307 100.918 22.3042 100.918 20.0077C100.918 17.6935 101.469 15.8847 102.704 14.7365C103.471 14.0405 104.505 13.5705 106.007 13.5705C107.325 13.5705 108.343 13.8842 109.11 14.5625C109.778 15.1189 110.261 15.9025 110.545 16.9986C110.695 17.5727 110.311 18.1468 109.677 18.2687C109.077 18.3729 108.594 17.9728 108.41 17.3987C108.21 16.8423 107.942 16.4422 107.626 16.1629C107.192 15.7628 106.658 15.5888 105.957 15.5888C105.206 15.5888 104.555 15.8149 104.071 16.3192C103.371 17.0496 103.07 18.3552 103.07 20.0077C103.07 21.6436 103.354 22.9481 104.088 23.6785C104.572 24.1828 105.206 24.4089 105.94 24.4089C106.707 24.4089 107.291 24.2005 107.775 23.7306C108.025 23.4868 108.243 23.1742 108.393 22.8084C108.61 22.2687 109.06 21.8686 109.644 22.0083C110.227 22.1479 110.595 22.7386 110.411 23.3128C110.11 24.2692 109.594 25.0351 108.893 25.5571C108.126 26.1312 107.175 26.4271 105.974 26.4271C104.439 26.4271 103.471 25.9572 102.736 25.2967Z" fill="#6C63D4"/>
<path fill-rule="evenodd" clip-rule="evenodd" d="M118.052 13.5705C114.431 13.5705 112.897 16.1108 112.897 20.0077C112.897 24.0265 114.416 26.4449 118.052 26.4449C121.622 26.4449 123.191 24.0265 123.191 20.0077C123.191 16.041 121.639 13.5705 118.052 13.5705ZM118.035 15.6065C120.021 15.6065 121.054 17.0496 121.054 20.0077C121.054 22.9647 120.003 24.4089 118.035 24.4089C116.05 24.4089 115.049 22.9658 115.049 20.0077C115.049 17.0507 116.083 15.6065 118.035 15.6065Z" fill="#6C63D4"/>
<path fill-rule="evenodd" clip-rule="evenodd" d="M139.373 25.1403C139.373 25.7322 138.939 26.2187 138.322 26.2187C137.722 26.2187 137.288 25.7311 137.288 25.1403V20.4776L137.338 15.9368L135.886 20.5474L134.418 25.0882C134.169 25.8885 133.651 26.2021 133 26.2021C132.316 26.2021 131.816 25.8718 131.549 25.0716L130.047 20.5485L128.662 16.0077L128.712 20.4787V25.1414C128.712 25.7333 128.278 26.2198 127.661 26.2198C127.061 26.2198 126.627 25.7322 126.627 25.1414V15.8337C126.627 14.5458 127.294 13.7977 128.462 13.7977C129.564 13.7977 130.181 14.4062 130.531 15.52L132.065 20.2692L133 23.5055L133.951 20.2692L135.485 15.52C135.836 14.4062 136.437 13.7977 137.538 13.7977C138.706 13.7977 139.356 14.5281 139.356 15.8337L139.373 25.1403Z" fill="#6C63D4"/>
<path d="M30.5781 21.7853C30.5781 22.0965 30.4589 22.395 30.2467 22.6151C30.0345 22.8351 29.7467 22.9587 29.4466 22.9587C29.1465 22.9587 28.8587 22.8351 28.6464 22.6151C28.4342 22.395 28.315 22.0965 28.315 21.7853V11.3019C28.315 10.9907 28.4342 10.6922 28.6464 10.4722C28.8587 10.2521 29.1465 10.1284 29.4466 10.1284C29.7467 10.1284 30.0345 10.2521 30.2467 10.4722C30.4589 10.6922 30.5781 10.9907 30.5781 11.3019V21.7853ZM30.1854 29.049C30.0357 29.2042 25.8275 32.8409 18.1123 32.8409C10.3972 32.8409 6.21699 29.2235 6.03931 29.0684C5.92731 28.9705 5.83509 28.8506 5.76788 28.7157C5.70066 28.5807 5.65983 28.4333 5.64764 28.282C5.63549 28.1306 5.65225 27.9782 5.69698 27.8336C5.74171 27.689 5.81354 27.5549 5.90836 27.4392C6.10369 27.2048 6.38038 27.0601 6.6782 27.0365C6.97603 27.0128 7.27078 27.1123 7.49813 27.3131C7.56363 27.3616 11.323 30.5231 18.103 30.5231C24.8829 30.5231 28.6704 27.3422 28.7078 27.3131C28.9377 27.1141 29.2334 27.0159 29.532 27.0395C29.8307 27.063 30.1087 27.2064 30.3069 27.4392C30.4977 27.67 30.593 27.9696 30.5719 28.2729C30.5509 28.5761 30.4154 28.8585 30.1947 29.0587L30.1854 29.049ZM5.63716 11.3019C5.65406 10.9897 5.78948 10.6971 6.0138 10.4881C6.23808 10.2792 6.53306 10.1708 6.83419 10.1866C7.11335 10.2031 7.37678 10.3261 7.57363 10.5321C7.77049 10.738 7.88687 11.0122 7.90027 11.3019V21.7659C7.90027 22.0771 7.78106 22.3756 7.56884 22.5956C7.35667 22.8157 7.06885 22.9393 6.76874 22.9393C6.46864 22.9393 6.18082 22.8157 5.9686 22.5956C5.75638 22.3756 5.63716 22.0771 5.63716 21.7659V11.3019ZM11.3136 8.97443C11.3306 8.66222 11.4659 8.36965 11.6903 8.16064C11.9145 7.95168 12.2095 7.84327 12.5107 7.85914C12.7898 7.87557 13.0532 7.99865 13.2501 8.20459C13.447 8.41052 13.5633 8.68475 13.5767 8.97443V24.491C13.5767 24.8022 13.4575 25.1007 13.2454 25.3208C13.0331 25.5408 12.7453 25.6644 12.4452 25.6644C12.1451 25.6644 11.8573 25.5408 11.6451 25.3208C11.4328 25.1007 11.3136 24.8022 11.3136 24.491V8.97443ZM17.0182 8.39256C17.0182 8.08132 17.1374 7.78285 17.3496 7.5628C17.5618 7.34272 17.8496 7.21908 18.1497 7.21908C18.4499 7.21908 18.7377 7.34272 18.9498 7.5628C19.1621 7.78285 19.2813 8.08132 19.2813 8.39256V25.2668C19.2813 25.578 19.1621 25.8765 18.9498 26.0966C18.7377 26.3167 18.4499 26.4403 18.1497 26.4403C17.8496 26.4403 17.5618 26.3167 17.3496 26.0966C17.1374 25.8765 17.0182 25.578 17.0182 25.2668V8.39256ZM22.6292 8.97443C22.6292 8.6632 22.7484 8.36472 22.9606 8.14468C23.1728 7.92459 23.4607 7.80095 23.7608 7.80095C24.0609 7.80095 24.3487 7.92459 24.5609 8.14468C24.7731 8.36472 24.8923 8.6632 24.8923 8.97443V24.491C24.8923 24.8022 24.7731 25.1007 24.5609 25.3208C24.3487 25.5408 24.0609 25.6644 23.7608 25.6644C23.4607 25.6644 23.1728 25.5408 22.9606 25.3208C22.7484 25.1007 22.6292 24.8022 22.6292 24.491V8.97443ZM30.8867 2.57383H5.37532C4.81942 2.56997 4.26828 2.67987 3.75343 2.89726C3.23855 3.1146 2.77012 3.43514 2.37486 3.8405C1.97961 4.2459 1.66535 4.72811 1.45011 5.25961C1.23481 5.79107 1.12277 6.3614 1.1203 6.93787V33.1221C1.12277 33.6986 1.23481 34.2689 1.45011 34.8004C1.66535 35.3319 1.97961 35.8141 2.37486 36.2195C2.77012 36.6248 3.23855 36.9454 3.75343 37.1627C4.26828 37.3801 4.81942 37.4899 5.37532 37.4861H30.8867C31.4418 37.4899 31.9922 37.3804 32.5065 37.1636C33.0207 36.9469 33.4888 36.6272 33.8839 36.2229C34.279 35.8185 34.5934 35.3374 34.8093 34.8071C35.0251 34.2767 35.1381 33.7075 35.1418 33.1318V6.93787C35.1393 6.36219 35.0275 5.7927 34.8128 5.26185C34.5982 4.73099 34.2847 4.2492 33.8905 3.84394C33.4962 3.43872 33.0289 3.118 32.5151 2.90005C32.0013 2.6821 31.4512 2.57127 30.8961 2.57383" fill="#6C63D4"/>
</g>
<defs>
<clipPath id="clip0_1_567">
<rect width="139" height="40" fill="white" transform="translate(0.799988)"/>
</clipPath>
</defs>
</svg>
