<svg width="81" height="40" viewBox="0 0 81 40" fill="none" xmlns="http://www.w3.org/2000/svg">
<path fill-rule="evenodd" clip-rule="evenodd" d="M34.8945 14.7398C36.3525 14.4628 37.8106 14.1712 39.254 13.8941C39.2394 20.3532 39.2394 26.7977 39.254 33.2422C37.8106 32.9506 36.3525 32.6444 34.9091 32.3674C34.8653 31.7987 34.8945 31.2301 34.8945 30.6615C34.8799 25.3688 34.8799 20.0616 34.8945 14.7398ZM70.1642 17.5975C68.9395 17.6267 67.6856 18.0058 66.7379 18.7931C65.9505 19.4346 65.3819 20.3095 65.0611 21.2718C64.7112 22.307 64.6383 23.4296 64.7695 24.5232C64.9153 25.7771 65.4111 27.0164 66.2859 27.935C66.9712 28.664 67.9043 29.1743 68.8812 29.393C70.1059 29.67 71.4327 29.6263 72.5846 29.0868C73.4302 28.7077 74.1301 28.037 74.6258 27.2497C75.1799 26.3603 75.4569 25.3251 75.5444 24.2753C75.6464 23.0943 75.5152 21.8841 75.0778 20.776C74.6987 19.7846 74.0134 18.8952 73.0949 18.3265C72.2201 17.7871 71.1849 17.5538 70.1642 17.5975ZM69.5227 13.5296C71.6369 13.3838 73.8531 13.7775 75.6756 14.9002C76.6962 15.5271 77.571 16.3582 78.2563 17.3351C78.8541 18.2099 79.2915 19.1868 79.5977 20.2074C79.9185 21.3009 80.0351 22.4528 80.0497 23.59C80.0497 25.675 79.5685 27.8037 78.4167 29.568C77.4107 31.1426 75.8797 32.3674 74.1301 33.0089C72.9928 33.4317 71.7972 33.6359 70.5871 33.665C68.3126 33.7088 65.9651 33.1547 64.1134 31.8133C62.5387 30.6906 61.3869 29.0431 60.8037 27.2059C60.3955 25.9812 60.2351 24.669 60.2496 23.3713C60.2642 21.1114 60.9203 18.8077 62.3346 17.0289C63.4865 15.5563 65.134 14.5065 66.9274 13.9816C67.7585 13.7192 68.6333 13.5734 69.5227 13.5296ZM7.01697 14.3899C8.06676 13.7775 9.27692 13.4859 10.4871 13.5005C12.4117 13.5734 14.2634 14.5648 15.3861 16.1395C15.9547 15.3667 16.742 14.769 17.5877 14.3461C19.4977 13.4276 21.816 13.2818 23.7843 14.0837C24.7029 14.4628 25.534 15.046 26.1755 15.8042C26.8316 16.5769 27.269 17.51 27.5315 18.4723C27.8085 19.4784 27.8814 20.5282 27.8522 21.5634C27.8522 25.4563 27.8522 29.3638 27.8522 33.2568C26.4088 32.9652 24.9507 32.659 23.4927 32.382C23.4781 28.6494 23.4927 24.9168 23.4781 21.1843C23.4927 20.324 23.1865 19.4492 22.5742 18.8514C21.918 18.1807 20.9557 17.86 20.0226 17.8746C19.1915 17.86 18.3459 18.1078 17.6898 18.6327C16.9462 19.2159 16.5525 20.1782 16.5525 21.126C16.5525 25.1647 16.5525 29.218 16.5525 33.2568C15.0945 32.9652 13.6364 32.659 12.1784 32.382C12.1638 31.1864 12.1784 29.9762 12.1638 28.766C12.1638 26.2582 12.1638 23.7504 12.1638 21.228C12.193 20.3678 11.9014 19.4784 11.289 18.866C10.7495 18.312 10.0059 17.9912 9.26234 17.9037C8.54791 17.8308 7.81889 17.8891 7.1482 18.1662C6.44834 18.4578 5.85055 19.0118 5.52978 19.6971C5.31108 20.1637 5.20902 20.674 5.20902 21.1843C5.20902 24.3336 5.20902 27.483 5.20902 30.6323C5.2236 31.5071 5.19444 32.382 5.2236 33.2568C3.76557 32.9797 2.32212 32.659 0.878669 32.3965C0.849508 31.8862 0.893249 31.3613 0.849508 30.8656C0.864089 30.2824 0.864089 29.6992 0.849508 29.116C0.893249 28.5765 0.849508 28.0224 0.864089 27.483C0.864089 25.9375 0.864089 24.3919 0.864089 22.8464C0.849508 21.8841 0.878669 20.9073 0.849508 19.945C0.864089 19.4055 0.864089 18.8514 0.849508 18.312C0.878669 17.233 0.864089 16.1687 0.864089 15.0897C0.878669 14.9877 0.791187 14.8273 0.90783 14.769C2.35128 14.4919 3.78015 14.2149 5.2236 13.9379C5.20902 14.594 5.2236 15.2501 5.2236 15.9062C5.73391 15.2938 6.3317 14.769 7.01697 14.3899ZM54.5779 13.7921C55.2778 13.6754 55.9922 13.5588 56.6921 13.4421C56.6921 14.9585 56.6921 16.4748 56.6921 17.9912C55.9922 18.1224 55.2923 18.2536 54.5925 18.3703C53.5427 18.5452 52.4492 18.8514 51.6618 19.6096C51.0203 20.2074 50.7141 21.0822 50.6558 21.9425C50.6121 22.5548 50.6412 23.1672 50.6412 23.7942C50.6412 26.9435 50.6412 30.0928 50.6412 33.2422C49.4311 32.9943 48.2209 32.7465 46.9962 32.5132C46.7629 32.4694 46.5442 32.4111 46.2963 32.382C46.238 32.0466 46.2817 31.7113 46.2671 31.3759C46.2671 28.0224 46.2671 24.6836 46.2671 21.3301C46.2963 20.2803 46.4713 19.2159 46.9087 18.2391C47.3315 17.2622 48.0751 16.4311 48.9499 15.8187C50.1163 15.0168 51.4723 14.5357 52.8429 14.1712C53.4261 14.0399 53.9801 13.8796 54.5779 13.7921ZM36.6441 5.43756C37.344 5.35008 38.1022 5.42298 38.7 5.84581C39.3852 6.2978 39.7643 7.11429 39.7789 7.91621C39.8226 8.1495 39.7643 8.39736 39.7643 8.63065C39.6914 9.35966 39.3123 10.0595 38.6854 10.4678C38.0293 10.9052 37.1836 10.9781 36.4109 10.8177C35.7693 10.6865 35.1715 10.2782 34.807 9.70959C34.3842 9.03889 34.3113 8.19324 34.4717 7.42048C34.6175 6.69147 35.1132 6.02077 35.7839 5.70001C36.0609 5.56878 36.3525 5.4813 36.6441 5.43756Z" fill="#6C63D4"/>
</svg>
