<svg width="102" height="40" viewBox="0 0 102 40" fill="none" xmlns="http://www.w3.org/2000/svg">
<g clip-path="url(#clip0_1_565)">
<path fill-rule="evenodd" clip-rule="evenodd" d="M9.96495 7.31494C8.59042 7.31494 7.47629 8.43157 7.47629 9.8086C7.47596 10.1357 7.54008 10.4598 7.66496 10.7621C7.78985 11.0645 7.97307 11.3393 8.20417 11.5708C8.43526 11.8024 8.7097 11.9862 9.01182 12.1117C9.31393 12.2372 9.63781 12.3019 9.96495 12.3023H12.454V9.8086C12.4546 9.14787 12.1927 8.51397 11.7259 8.04633C11.2591 7.57869 10.6257 7.3156 9.96495 7.31494ZM9.96495 13.9647H3.32811C1.95357 13.9647 0.839448 15.0813 0.839448 16.4588C0.839448 17.8358 1.95357 18.9524 3.32811 18.9524H9.96537C11.3395 18.9524 12.454 17.8358 12.454 16.4588C12.454 15.0813 11.3395 13.9647 9.96495 13.9647ZM32.3649 27.0344L33.5852 24.1821C34.9214 25.1716 36.6643 25.6953 38.4076 25.6953C39.6858 25.6953 40.4991 25.2008 40.4991 24.4441C40.4879 23.6337 39.3342 23.3804 37.92 23.0699C35.6768 22.5774 32.7781 21.9409 32.7423 18.7093C32.7132 16.0315 35.0956 13.9649 38.4659 13.9649C40.47 13.9649 42.4749 14.4599 43.8982 15.5953L42.7578 18.5085C41.4483 17.6665 39.8308 17.0794 38.2913 17.0794C37.2455 17.0794 36.548 17.574 36.548 18.2148C36.5594 19.0219 37.7452 19.3406 39.1915 19.7293C41.4483 20.3359 44.3393 21.1129 44.3923 24.1821C44.3923 26.9182 42.0678 28.8394 38.7559 28.8394C36.316 28.8394 34.079 28.2573 32.3644 27.0344H32.3649ZM80.9581 23.1492C80.6501 23.6965 80.202 24.152 79.6598 24.4691C79.1176 24.7861 78.5009 24.9532 77.8728 24.9533C75.9154 24.9533 74.3288 23.3633 74.3288 21.4022C74.3288 19.441 75.9154 17.851 77.8728 17.851C78.5009 17.8511 79.1176 18.0182 79.6598 18.3352C80.202 18.6523 80.6501 19.1078 80.9581 19.6551L84.3509 17.7719C83.0801 15.5007 80.656 13.9649 77.8728 13.9649C73.7734 13.9649 70.4501 17.2944 70.4501 21.4022C70.4501 25.5095 73.7734 28.8394 77.8728 28.8394C80.656 28.8394 83.0801 27.3036 84.3509 25.0324L80.9581 23.1492ZM46.5939 28.5481H50.8354V7.77389H46.5943L46.5939 28.5481ZM86.4929 7.77389V28.5481H90.7344V22.3242L95.7605 28.5481H101.182L94.7905 21.1542L100.717 14.2549H95.528L90.7344 19.991V7.77389H86.4929ZM63.9029 14.2557V15.9444C63.2058 14.7799 61.4917 13.9649 59.6905 13.9649C55.9719 13.9649 53.0379 17.2544 53.0379 21.3876C53.0379 25.5208 55.9719 28.8394 59.6905 28.8394C61.4917 28.8394 63.2058 28.0244 63.9029 26.8599V28.5481H68.1444V14.2557H63.9029ZM63.9029 23.1779C63.2929 24.1966 62.0146 24.9529 60.5913 24.9529C58.6335 24.9529 57.0469 23.3633 57.0469 21.4022C57.0469 19.441 58.6335 17.851 60.5913 17.851C62.0146 17.851 63.2929 18.6368 63.9029 19.6843V23.1779ZM23.239 13.9647C24.6135 13.9647 25.7281 15.0813 25.7281 16.4588C25.7286 17.1195 25.4667 17.7534 24.9999 18.2211C24.5331 18.6887 23.8997 18.9518 23.239 18.9524H20.7503V16.4588C20.7503 15.0813 21.8644 13.9647 23.239 13.9647ZM19.0912 9.8086V16.4588V16.4592C19.0918 17.1199 18.8298 17.7538 18.3631 18.2215C17.8963 18.6891 17.2629 18.9522 16.6021 18.9529C15.2276 18.9529 14.1135 17.8362 14.1135 16.4584V9.8086C14.1135 8.43157 15.2276 7.31494 16.6021 7.31494C17.2629 7.3156 17.8963 7.57869 18.3631 8.04633C18.8298 8.51397 19.0918 9.14787 19.0912 9.8086ZM16.6021 32.2524C17.2629 32.2518 17.8963 31.9887 18.3631 31.521C18.8298 31.0534 19.0918 30.4195 19.0912 29.7588C19.0918 29.098 18.8298 28.4641 18.3631 27.9965C17.8963 27.5289 17.2629 27.2658 16.6021 27.2651H14.1135V29.7588C14.1135 31.1358 15.2276 32.2524 16.6021 32.2524ZM16.6021 25.6027H23.2394C24.6135 25.6027 25.7281 24.4861 25.7281 23.1086C25.7286 22.4479 25.4667 21.814 24.9999 21.3463C24.5331 20.8787 23.8997 20.6156 23.239 20.6149H16.6021C15.2276 20.6149 14.1135 21.7316 14.1135 23.1086C14.1131 23.4357 14.1773 23.7597 14.3021 24.0621C14.427 24.3645 14.6103 24.6393 14.8413 24.8708C15.0724 25.1024 15.3469 25.2862 15.649 25.4117C15.9511 25.5372 16.275 25.6019 16.6021 25.6023V25.6027ZM1.02812 24.0621C0.903232 23.7597 0.839121 23.4357 0.839448 23.1086C0.839448 21.7316 1.95358 20.6149 3.32811 20.6149H5.81719V23.1086C5.81774 23.7693 5.55582 24.4032 5.08904 24.8709C4.62226 25.3385 3.98884 25.6016 3.32811 25.6023C3.00097 25.6019 2.67709 25.5372 2.37497 25.4117C2.07286 25.2862 1.79842 25.1024 1.56733 24.8708C1.33623 24.6393 1.15301 24.3645 1.02812 24.0621ZM7.47629 29.7584V23.1086C7.47629 21.7316 8.59042 20.6149 9.96495 20.6149C10.2921 20.6152 10.6161 20.6799 10.9182 20.8054C11.2204 20.9309 11.4949 21.1146 11.726 21.3462C11.9571 21.5778 12.1404 21.8526 12.2653 22.155C12.3902 22.4574 12.4544 22.7814 12.454 23.1086V29.7588C12.4546 30.4195 12.1927 31.0534 11.7259 31.521C11.2591 31.9887 10.6257 32.2518 9.96495 32.2524C8.59042 32.2524 7.47629 31.1358 7.47629 29.7584Z" fill="#6C63D4"/>
</g>
<defs>
<clipPath id="clip0_1_565">
<rect width="101" height="40" fill="white" transform="translate(0.399994)"/>
</clipPath>
</defs>
</svg>
