<svg width="61" height="40" viewBox="0 0 61 40" fill="none" xmlns="http://www.w3.org/2000/svg">
<path d="M3.66477 24.0653C3.91774 24.7367 4.26798 25.3107 4.71553 25.7874C5.16309 26.2641 5.69332 26.6289 6.30621 26.8819C6.91916 27.1349 7.58559 27.2613 8.30556 27.2613C9.00609 27.2613 9.66277 27.13 10.2757 26.8673C10.8887 26.6045 11.4237 26.2349 11.881 25.7582C12.3382 25.2814 12.6934 24.7123 12.9463 24.0507C13.1993 23.3892 13.3258 22.6498 13.3258 21.8325V9.22363H16.3904V29.6547H13.355V27.7575C12.6739 28.4774 11.8712 29.0319 10.947 29.4212C10.0227 29.8103 9.02553 30.0049 7.95533 30.0049C6.86562 30.0049 5.84896 29.8151 4.90521 29.4357C3.96153 29.0563 3.14424 28.5164 2.45352 27.8159C1.76281 27.1153 1.21793 26.2739 0.819062 25.2912C0.420135 24.3086 0.220703 23.2141 0.220703 22.0076V9.22363H3.28535V21.8325C3.28535 22.6498 3.4118 23.394 3.66477 24.0653Z" fill="#6C63D4"/>
<path d="M21.673 9.22363V16.6663C22.3541 15.9853 23.1422 15.4454 24.0372 15.0465C24.9323 14.6476 25.9052 14.4481 26.9559 14.4481C28.0456 14.4481 29.0671 14.6524 30.0206 15.061C30.974 15.4696 31.8009 16.0242 32.5014 16.7247C33.202 17.4253 33.7565 18.2522 34.1652 19.2056C34.5738 20.1591 34.778 21.1709 34.778 22.2411C34.778 23.3113 34.5738 24.3182 34.1652 25.2619C33.7565 26.2057 33.202 27.0278 32.5014 27.7282C31.8009 28.4287 30.974 28.9833 30.0206 29.3919C29.0671 29.8005 28.0455 30.0048 26.9559 30.0048C25.9051 30.0048 24.9274 29.8054 24.0226 29.4065C23.1178 29.0076 22.3249 28.4676 21.6438 27.7866V29.6546H18.7252V9.22363H21.673ZM22.0087 24.255C22.2713 24.8777 22.6362 25.4225 23.1032 25.8895C23.5702 26.3565 24.115 26.7263 24.7377 26.9987C25.3604 27.2711 26.0317 27.4073 26.7516 27.4073C27.4522 27.4073 28.1137 27.2711 28.7363 26.9987C29.359 26.7263 29.8989 26.3566 30.3563 25.8895C30.8135 25.4226 31.1783 24.8777 31.4507 24.255C31.7232 23.6324 31.8594 22.9611 31.8594 22.2411C31.8594 21.5212 31.7232 20.845 31.4507 20.2126C31.1783 19.5802 30.8135 19.0305 30.3563 18.5635C29.8989 18.0966 29.359 17.7317 28.7363 17.469C28.1136 17.2064 27.4521 17.075 26.7516 17.075C26.0512 17.075 25.3896 17.2063 24.7669 17.469C24.1443 17.7318 23.5995 18.0966 23.1324 18.5635C22.6655 19.0305 22.2957 19.5802 22.0233 20.2126C21.7509 20.845 21.6147 21.5212 21.6147 22.2411C21.6147 22.9611 21.746 23.6324 22.0087 24.255Z" fill="#6C63D4"/>
<path d="M36.4413 19.2348C36.8304 18.3008 37.3657 17.4787 38.0466 16.7685C38.7276 16.0583 39.5352 15.4989 40.4692 15.0903C41.4032 14.6817 42.415 14.4774 43.5046 14.4774C44.5748 14.4774 45.5672 14.672 46.4818 15.0611C47.3963 15.4503 48.1843 15.9902 48.8459 16.681C49.5075 17.3717 50.0232 18.189 50.3928 19.1327C50.7625 20.0765 50.9473 21.1029 50.9473 22.212V23.1752H38.8347C38.932 23.7784 39.1266 24.3378 39.4185 24.8534C39.7104 25.369 40.0752 25.8166 40.513 26.196C40.9508 26.5755 41.447 26.8722 42.0015 27.0862C42.5561 27.3002 43.1446 27.4073 43.7673 27.4073C45.5381 27.4073 46.9683 26.6776 48.0579 25.2182L50.1886 26.7943C49.4491 27.7867 48.5347 28.565 47.445 29.1293C46.3553 29.6935 45.1295 29.9757 43.7674 29.9757C42.6583 29.9757 41.6222 29.7811 40.659 29.3919C39.6958 29.0028 38.8591 28.4579 38.1489 27.7574C37.4387 27.0569 36.8793 26.2348 36.4707 25.2911C36.062 24.3474 35.8577 23.321 35.8577 22.2119C35.8576 21.1612 36.0522 20.1688 36.4413 19.2348ZM40.5422 18.0819C39.7152 18.7727 39.1655 19.6921 38.8931 20.8401H47.9703C47.7174 19.6921 47.1774 18.7727 46.3504 18.0819C45.5234 17.3912 44.5554 17.0458 43.4463 17.0458C42.3372 17.0458 41.3691 17.3912 40.5422 18.0819Z" fill="#6C63D4"/>
<path d="M56.4637 18.4176C55.841 19.0986 55.5297 20.0228 55.5297 21.1904V29.6547H52.5817V14.7692H55.5004V16.608C55.8701 16.0048 56.3517 15.5281 56.9452 15.1778C57.5386 14.8275 58.244 14.6524 59.0613 14.6524H60.0828V17.396H58.857C57.8841 17.3961 57.0863 17.7365 56.4637 18.4176Z" fill="#6C63D4"/>
</svg>
